{"glyphs":{"0":{"ha":739,"x_min":74,"x_max":665,"o":"m 369 869 q 531 810 465 869 q 631 651 597 750 q 665 433 665 551 q 631 216 665 315 q 530 56 596 117 q 369 -4 464 -4 q 211 56 278 -4 q 109 216 144 117 q 74 433 74 315 q 108 651 74 551 q 210 810 143 750 q 369 869 276 869 m 376 819 q 278 767 319 819 q 215 628 238 715 q 193 433 193 540 q 215 240 193 328 q 276 99 238 151 q 364 46 314 46 q 465 100 425 46 q 526 244 506 154 q 546 440 546 335 q 524 633 546 547 q 465 769 503 718 q 376 819 426 819 z "},"1":{"ha":739,"x_min":199,"x_max":542,"o":"m 335 157 l 335 706 q 328 746 335 735 q 307 757 322 757 q 260 747 292 757 q 211 729 228 736 q 199 753 199 739 q 199 754 199 753 q 201 761 199 760 q 310 812 257 786 q 399 854 364 838 q 436 871 435 871 l 439 871 q 449 863 446 871 q 453 849 451 854 q 447 815 453 849 q 442 718 442 781 l 442 157 q 442 100 442 126 q 449 57 443 74 q 469 44 451 50 q 508 37 488 39 q 536 35 528 35 q 541 15 540 29 q 536 -4 542 1 q 460 1 494 -1 q 385 3 425 3 q 314 1 346 3 q 240 -4 282 -1 q 235 15 235 1 q 240 35 236 29 q 269 37 249 35 q 307 44 289 39 q 326 57 325 50 q 333 100 332 74 q 335 157 335 126 z "},"2":{"ha":739,"x_min":92,"x_max":649,"o":"m 649 203 q 619 127 635 169 q 592 49 604 85 q 575 0 579 13 l 106 0 q 97 9 101 3 q 92 19 92 15 q 208 153 149 83 q 322 290 268 222 q 415 415 376 358 q 469 522 457 476 q 481 618 481 568 q 438 735 481 688 q 331 782 396 782 q 236 758 276 782 q 171 707 196 735 q 138 665 146 679 q 120 674 129 665 q 111 688 111 683 q 134 730 115 700 q 186 792 153 760 q 263 848 219 825 q 361 871 307 871 q 480 838 426 871 q 565 754 533 806 q 596 644 596 703 q 575 535 596 586 q 518 439 554 483 q 413 315 471 381 q 304 191 356 249 q 222 99 253 133 l 492 99 q 558 124 532 99 q 606 203 583 150 q 621 211 608 211 q 635 208 625 211 q 649 203 644 206 z "},"3":{"ha":739,"x_min":114,"x_max":624,"o":"m 382 871 q 458 851 417 871 q 530 792 500 831 q 560 697 560 753 q 538 618 560 654 q 487 556 517 582 q 433 514 457 529 q 517 482 472 508 q 592 409 561 456 q 624 296 624 363 q 594 170 624 226 q 515 74 564 114 q 404 14 465 35 q 279 -7 343 -7 q 213 1 253 -7 q 142 25 174 8 q 125 44 136 29 q 114 76 114 60 q 131 124 114 106 q 171 142 149 142 q 215 120 199 142 q 247 82 231 99 q 294 55 267 63 q 347 47 321 47 q 420 67 383 47 q 482 134 457 88 q 507 258 507 181 q 482 356 507 314 q 417 424 457 399 q 333 449 378 449 q 288 442 311 449 q 253 432 265 435 q 244 458 244 443 q 247 472 244 468 q 350 510 301 485 q 428 574 399 535 q 458 672 458 614 q 421 763 458 726 q 325 799 383 799 q 250 778 282 799 q 199 737 218 758 q 174 710 181 715 q 163 719 168 710 q 157 739 157 729 q 210 801 178 771 q 286 851 243 831 q 382 871 329 871 z "},"4":{"ha":739,"x_min":68,"x_max":669,"o":"m 550 874 q 566 865 561 874 q 571 849 571 857 l 571 314 l 651 314 q 664 297 658 314 q 669 258 669 281 q 665 236 669 243 l 571 236 l 571 -1 q 562 -5 571 -1 q 513 -8 553 -8 q 464 3 464 -8 l 464 236 l 82 236 q 72 248 75 240 q 68 261 68 256 l 510 839 q 529 860 517 847 q 550 874 542 874 m 464 711 l 160 314 l 464 314 l 464 711 z "},"5":{"ha":739,"x_min":114,"x_max":624,"o":"m 369 536 q 506 500 450 536 q 593 409 563 464 q 624 296 624 354 q 594 170 624 226 q 515 74 564 114 q 404 14 465 35 q 279 -7 343 -7 q 213 1 253 -7 q 142 25 174 8 q 125 44 136 29 q 114 76 114 60 q 131 124 114 106 q 171 142 149 142 q 215 120 199 142 q 247 82 231 99 q 294 55 267 63 q 347 47 321 47 q 420 67 383 47 q 482 134 457 88 q 507 258 507 181 q 485 348 507 301 q 417 427 464 394 q 290 460 369 460 q 231 453 268 460 q 176 439 193 447 q 169 445 172 439 q 165 458 165 451 q 196 611 181 535 q 224 753 211 688 q 244 861 238 819 l 444 861 q 501 864 472 861 q 550 870 531 867 q 569 874 569 874 q 581 867 576 869 q 586 858 586 864 q 581 837 586 854 q 567 799 576 819 q 546 763 558 778 q 479 757 518 760 q 388 754 440 754 l 274 754 q 249 630 261 693 q 225 510 238 567 q 298 528 253 521 q 369 536 343 536 z "},"6":{"ha":739,"x_min":99,"x_max":640,"o":"m 392 536 q 510 510 463 536 q 587 442 558 483 q 628 356 615 401 q 640 275 640 311 q 603 135 640 200 q 505 31 567 71 q 365 -8 443 -8 q 255 19 304 -8 q 171 90 206 46 q 117 190 136 135 q 99 299 99 244 q 132 496 99 403 q 229 658 165 589 q 341 756 278 711 q 470 832 404 800 q 593 878 536 864 q 606 862 603 878 q 608 839 608 846 q 510 800 565 825 q 400 733 456 775 q 300 628 344 692 q 232 475 256 565 q 313 520 268 504 q 392 536 357 536 m 221 415 q 217 369 218 393 q 215 322 215 346 q 225 226 215 276 q 255 133 235 176 q 306 63 275 90 q 376 36 336 36 q 483 97 442 36 q 525 250 525 158 q 508 358 525 308 q 453 439 490 408 q 354 469 415 469 q 290 460 325 469 q 221 415 254 451 z "},"7":{"ha":739,"x_min":85,"x_max":654,"o":"m 553 858 q 610 860 579 858 q 646 863 640 863 q 654 850 654 863 q 642 812 654 836 q 615 760 629 788 l 258 -3 q 244 -7 254 -7 q 207 1 229 -7 q 185 18 185 8 q 261 146 219 71 q 347 304 303 221 q 430 468 390 388 q 501 615 469 549 q 551 720 532 681 q 569 760 569 760 l 225 760 q 164 735 185 760 q 128 656 143 710 q 111 647 126 647 q 98 650 107 647 q 85 656 89 653 q 119 769 103 711 q 142 858 135 826 l 553 858 z "},"8":{"ha":739,"x_min":114,"x_max":625,"o":"m 376 872 q 488 849 438 872 q 569 781 539 825 q 600 672 600 736 q 575 581 600 619 q 515 514 550 542 q 447 467 479 486 q 447 458 438 464 q 530 400 489 436 q 598 319 571 364 q 625 226 625 275 q 589 104 625 158 q 494 19 553 50 q 367 -12 435 -12 q 235 15 293 -12 q 146 93 178 43 q 114 208 114 143 q 133 289 114 253 q 182 353 153 325 q 241 400 211 381 q 290 432 271 419 q 290 439 296 436 q 230 487 263 456 q 174 560 197 518 q 151 651 151 601 q 183 760 151 710 q 265 841 214 810 q 376 872 317 872 m 369 36 q 476 78 436 36 q 515 188 515 119 q 492 266 515 229 q 436 331 468 303 q 376 378 404 360 q 342 400 349 396 q 333 403 336 403 q 328 401 329 403 q 247 322 272 367 q 221 213 221 278 q 243 117 221 157 q 299 57 265 78 q 369 36 333 36 m 369 825 q 287 781 321 825 q 253 675 253 736 q 277 588 253 624 q 335 531 301 553 q 393 493 368 508 q 401 492 396 492 q 403 492 403 492 q 410 493 407 492 q 476 563 451 521 q 501 660 501 604 q 485 738 501 700 q 440 800 469 775 q 369 825 411 825 z "},"9":{"ha":739,"x_min":100,"x_max":640,"o":"m 131 31 q 228 69 174 44 q 339 136 283 94 q 440 241 394 178 q 507 394 485 304 q 427 349 472 365 q 347 333 382 333 q 228 360 276 333 q 152 427 181 386 q 112 513 124 468 q 100 594 100 558 q 137 735 100 671 q 236 838 174 799 q 375 878 299 878 q 485 851 436 878 q 569 779 535 824 q 622 680 604 735 q 640 571 640 625 q 608 374 640 467 q 510 211 575 281 q 399 114 463 158 q 269 38 335 69 q 146 -8 203 7 q 133 8 136 -8 q 131 31 131 25 m 518 454 q 522 500 521 476 q 524 547 524 524 q 514 643 524 593 q 485 736 504 693 q 435 806 465 779 q 364 833 404 833 q 258 772 300 833 q 215 619 215 711 q 232 512 215 563 q 286 431 249 461 q 385 400 324 400 q 449 409 414 400 q 518 454 485 418 z "}," ":{"ha":406,"x_min":0,"x_max":0,"o":""},"!":{"ha":326,"x_min":89,"x_max":238,"o":"m 169 925 q 214 900 200 925 q 229 846 229 874 q 217 621 229 774 q 182 233 206 468 q 160 215 174 217 q 143 231 147 222 q 101 846 101 700 q 121 900 101 874 q 169 925 140 925 m 89 61 q 111 113 89 92 q 164 135 136 135 q 217 113 194 135 q 238 61 238 92 q 217 8 238 32 q 164 -15 196 -15 q 111 8 135 -15 q 89 61 89 31 z "},"\"":{"ha":379,"x_min":53,"x_max":321,"o":"m 124 949 q 158 931 144 949 q 157 884 158 917 q 153 811 156 851 q 147 732 150 771 q 140 667 143 693 q 113 642 133 651 q 100 650 104 642 q 65 774 78 724 q 53 853 53 825 q 62 894 53 872 q 87 933 71 917 q 124 949 103 949 m 286 949 q 321 931 307 949 q 319 884 321 917 q 315 811 318 851 q 309 732 313 771 q 303 667 306 693 q 275 642 296 651 q 263 650 267 642 q 228 774 240 724 q 215 853 215 825 q 224 894 215 872 q 249 933 233 917 q 286 949 265 949 z "},"#":{"ha":650,"x_min":68,"x_max":581,"o":"m 561 500 l 472 500 l 442 308 l 532 308 q 542 294 542 308 q 538 263 543 279 q 524 242 533 246 l 432 242 l 410 104 q 400 93 408 100 q 376 86 392 86 q 364 89 367 86 q 361 92 361 92 l 385 242 l 211 242 l 189 104 q 181 93 188 100 q 158 86 174 86 q 146 89 149 86 q 143 92 143 92 l 167 242 l 76 242 q 69 257 68 242 q 76 289 69 272 q 90 308 82 306 l 178 308 l 208 500 l 115 500 q 107 515 107 500 q 113 547 107 531 q 126 567 118 564 l 218 567 l 240 703 q 247 717 243 713 q 271 721 251 721 q 283 720 281 721 q 289 717 286 719 l 264 567 l 438 567 l 460 703 q 466 717 463 713 q 489 721 469 721 q 501 720 499 721 q 507 717 504 719 l 483 567 l 569 567 q 580 551 579 567 q 576 520 581 536 q 561 500 571 504 m 254 500 l 222 308 l 396 308 l 426 500 l 254 500 z "},"$":{"ha":675,"x_min":69,"x_max":608,"o":"m 396 926 q 424 925 404 926 q 443 917 443 924 l 433 858 q 483 846 457 853 q 546 831 510 839 q 558 745 556 789 q 561 671 560 701 q 561 658 561 664 q 561 646 561 651 q 538 640 551 640 q 518 647 525 640 q 490 726 514 682 q 424 796 465 769 l 372 482 q 377 479 375 481 q 381 476 379 478 q 452 432 413 456 q 527 378 492 408 q 585 311 563 349 q 608 225 608 274 q 569 99 608 153 q 468 16 531 46 q 335 -14 406 -14 q 313 -13 324 -14 q 290 -11 301 -12 l 281 -71 q 252 -68 271 -71 q 233 -58 233 -65 l 242 -6 q 167 10 203 1 q 100 25 131 19 q 85 107 92 64 q 74 183 78 150 q 69 224 69 217 q 85 231 74 228 q 103 235 96 235 q 118 228 115 235 q 134 177 122 213 q 174 106 146 142 q 251 49 201 69 l 307 385 q 209 448 258 414 q 126 528 160 482 q 93 638 93 575 q 130 758 93 707 q 225 838 167 810 q 349 867 283 867 q 369 867 360 867 q 386 865 378 867 l 396 926 m 351 360 l 299 36 q 318 33 308 35 q 338 32 328 32 q 446 73 399 32 q 493 190 493 114 q 474 268 493 239 q 422 318 454 297 q 351 360 390 339 m 328 510 l 378 817 q 359 821 368 819 q 340 822 350 822 q 253 799 283 822 q 210 743 222 776 q 199 678 199 710 q 238 578 199 615 q 328 510 276 542 z "},"%":{"ha":904,"x_min":54,"x_max":847,"o":"m 650 425 q 753 394 710 425 q 822 315 797 364 q 847 206 847 265 q 824 102 847 151 q 756 22 800 53 q 649 -10 711 -10 q 547 19 593 -10 q 472 97 500 49 q 444 206 444 146 q 471 316 444 267 q 544 395 497 365 q 650 425 590 425 m 258 875 q 363 845 318 875 q 432 766 407 815 q 457 657 457 717 q 433 553 457 603 q 365 472 410 504 q 258 440 321 440 q 156 469 203 440 q 82 548 110 499 q 54 657 54 597 q 80 767 54 718 q 152 846 106 817 q 258 875 199 875 m 253 842 q 188 816 213 842 q 153 751 164 790 q 142 672 142 713 q 158 581 142 626 q 203 505 175 535 q 265 475 232 475 q 328 501 306 475 q 359 567 350 528 q 368 646 368 607 q 354 737 368 692 q 315 812 340 782 q 253 842 289 842 m 644 392 q 579 366 604 392 q 543 301 554 340 q 532 222 532 263 q 549 130 532 175 q 596 55 567 85 q 658 25 625 25 q 720 51 699 25 q 750 117 742 78 q 758 196 758 157 q 745 287 758 242 q 706 362 732 332 q 644 392 681 392 m 811 846 l 156 0 q 138 -11 151 -6 q 111 -17 124 -17 q 92 -10 97 -17 q 86 -1 88 -3 l 740 846 q 754 858 746 853 q 768 863 763 863 q 799 859 797 863 q 811 846 801 856 z "},"&":{"ha":925,"x_min":72,"x_max":890,"o":"m 418 890 q 561 851 508 890 q 614 738 614 811 q 585 630 614 676 q 510 547 556 583 q 413 479 464 511 q 508 336 456 407 q 613 208 561 265 q 670 312 650 265 q 690 368 690 358 q 673 388 690 385 q 642 390 656 390 q 629 392 632 392 q 626 409 626 399 q 631 424 626 419 l 738 424 q 807 426 774 424 q 888 431 840 429 q 890 410 890 429 q 886 392 889 392 q 835 384 868 392 q 792 369 803 376 q 771 338 789 368 q 723 261 753 307 q 651 167 693 215 q 728 90 697 119 q 783 61 760 61 q 813 73 799 61 q 840 100 828 85 q 854 124 851 115 q 876 115 865 124 q 886 99 886 106 q 868 69 883 93 q 822 22 853 44 q 738 0 790 0 q 679 15 707 0 q 629 49 651 29 q 594 83 607 68 q 582 97 582 97 q 467 25 533 54 q 335 -4 401 -4 q 144 53 217 -4 q 72 214 72 111 q 105 327 72 279 q 189 410 138 375 q 297 475 240 446 q 244 579 269 524 q 218 704 218 635 q 244 798 218 756 q 316 865 271 840 q 418 890 361 890 m 550 129 q 478 213 517 163 q 406 311 440 263 q 350 393 372 360 q 328 426 328 426 q 260 376 292 401 q 208 316 228 350 q 189 233 189 282 q 216 130 189 169 q 288 72 243 90 q 381 54 332 54 q 469 74 421 54 q 550 129 518 94 m 425 840 q 350 812 382 840 q 318 736 318 783 q 337 634 318 686 q 388 522 356 582 q 487 600 451 558 q 522 719 522 642 q 497 803 522 765 q 425 840 471 840 z "},"'":{"ha":217,"x_min":53,"x_max":158,"o":"m 124 949 q 158 931 144 949 q 157 884 158 917 q 153 811 156 851 q 147 732 150 771 q 140 667 143 693 q 113 642 133 651 q 100 650 104 642 q 65 774 78 724 q 53 853 53 825 q 62 894 53 872 q 87 933 71 917 q 124 949 103 949 z "},"(":{"ha":636,"x_min":203,"x_max":576,"o":"m 306 231 q 393 -240 306 -17 q 576 -512 461 -412 l 556 -536 q 253 -94 340 -367 q 203 231 203 60 q 408 849 203 594 q 478 926 442 889 q 556 996 515 964 l 576 967 q 356 592 428 847 q 306 231 306 417 z "},")":{"ha":636,"x_min":61,"x_max":433,"o":"m 331 231 q 281 592 331 417 q 61 967 208 849 l 81 996 q 229 849 161 932 q 433 231 433 597 q 383 -94 433 60 q 81 -536 296 -367 l 61 -512 q 243 -240 174 -414 q 331 231 331 -17 z "},"*":{"ha":600,"x_min":44,"x_max":546,"o":"m 410 832 q 449 857 428 851 q 485 847 469 863 q 499 810 501 831 q 476 772 496 790 q 408 726 442 740 q 346 685 374 713 q 342 678 346 685 q 339 665 338 671 q 351 653 340 657 q 420 634 388 636 q 497 611 453 632 q 533 583 521 601 q 536 546 546 565 q 506 521 526 525 q 463 529 485 517 q 397 581 419 553 q 339 626 374 608 q 332 630 339 626 q 319 631 325 633 q 313 623 314 628 q 311 613 313 618 q 311 578 310 594 q 314 547 313 563 q 318 509 317 529 q 317 463 319 489 q 301 420 314 438 q 265 406 288 403 q 233 427 243 408 q 228 471 222 446 q 257 550 238 519 q 283 619 276 581 q 283 626 283 619 q 279 638 283 633 q 261 642 274 644 q 196 617 224 633 q 119 589 168 600 q 74 590 96 583 q 49 619 51 597 q 60 658 44 642 q 100 676 75 674 q 147 678 125 679 q 186 672 168 676 q 221 669 204 671 q 257 669 238 667 q 264 672 257 669 q 272 681 271 675 q 269 700 276 689 q 225 755 250 733 q 176 819 200 776 q 165 864 164 842 q 183 896 165 886 q 223 897 204 907 q 253 864 242 888 q 275 784 274 819 q 294 713 276 749 q 299 706 294 713 q 308 697 303 699 q 326 706 317 696 q 365 765 353 733 q 410 832 378 796 z "},"+":{"ha":735,"x_min":42,"x_max":693,"o":"m 328 643 q 362 654 344 650 q 386 658 379 658 q 401 654 397 658 q 404 650 404 650 l 404 372 l 681 372 q 693 356 693 372 q 686 322 693 339 q 671 296 679 304 l 404 296 l 404 22 q 374 10 392 13 q 346 7 357 7 q 328 19 328 7 l 328 296 l 50 296 q 46 298 50 296 q 42 310 42 300 q 47 339 42 314 q 63 372 53 364 l 328 372 l 328 643 z "},",":{"ha":272,"x_min":24,"x_max":203,"o":"m 144 167 q 179 157 163 167 q 194 123 186 144 q 203 63 203 101 q 188 -4 203 33 q 149 -78 174 -42 q 97 -145 125 -115 q 43 -189 69 -175 q 30 -177 36 -189 q 24 -160 24 -165 q 58 -131 38 -149 q 93 -83 78 -112 q 108 -10 108 -53 q 97 27 108 13 q 75 58 86 42 q 64 100 64 74 q 86 144 64 122 q 144 167 108 167 z "},"-":{"ha":511,"x_min":79,"x_max":433,"o":"m 96 354 q 125 356 96 354 q 199 360 154 357 q 290 365 243 363 q 373 369 336 367 q 424 371 410 371 q 433 358 433 371 q 415 285 433 324 q 330 281 383 283 q 213 275 276 278 q 88 269 150 272 q 79 285 79 269 q 84 322 79 304 q 96 354 89 339 z "},".":{"ha":281,"x_min":65,"x_max":214,"o":"m 65 61 q 88 113 65 92 q 142 135 111 135 q 193 113 172 135 q 214 61 214 92 q 193 8 214 31 q 142 -15 172 -15 q 88 8 111 -15 q 65 61 65 31 z "},"/":{"ha":478,"x_min":21,"x_max":436,"o":"m 419 975 q 436 963 432 975 l 99 -228 q 81 -247 97 -235 q 46 -258 65 -258 q 31 -256 39 -258 q 22 -251 25 -253 l 21 -249 l 365 956 q 372 963 365 958 q 392 971 378 967 q 419 975 404 975 z "},":":{"ha":306,"x_min":79,"x_max":228,"o":"m 79 511 q 101 563 79 542 q 154 585 124 585 q 206 563 185 585 q 228 511 228 542 q 206 458 228 481 q 154 435 185 435 q 101 458 124 435 q 79 511 79 481 m 79 61 q 101 113 79 92 q 154 135 124 135 q 206 113 185 135 q 228 61 228 92 q 206 8 228 31 q 154 -15 185 -15 q 101 8 124 -15 q 79 61 79 31 z "},";":{"ha":314,"x_min":51,"x_max":232,"o":"m 172 167 q 207 157 190 167 q 223 123 214 144 q 232 63 232 101 q 217 -4 232 33 q 178 -78 203 -42 q 126 -145 154 -115 q 72 -189 99 -175 q 58 -177 65 -189 q 51 -160 51 -165 q 85 -131 65 -149 q 122 -83 106 -112 q 138 -10 138 -53 q 126 27 138 13 q 103 58 115 42 q 92 100 92 74 q 114 144 92 122 q 172 167 136 167 m 83 511 q 106 563 83 542 q 158 585 128 585 q 210 563 189 585 q 232 511 232 542 q 210 458 232 481 q 158 435 189 435 q 106 458 128 435 q 83 511 83 481 z "},"<":{"ha":667,"x_min":40,"x_max":603,"o":"m 603 47 q 599 26 603 43 q 590 -6 596 10 q 581 -21 585 -21 q 574 -18 579 -21 l 65 240 q 45 263 50 249 q 40 294 40 276 q 48 313 40 306 q 65 326 56 321 l 565 581 q 572 583 571 583 q 582 570 575 583 q 596 519 589 557 q 594 510 597 514 q 592 507 592 507 l 149 283 l 599 56 q 601 54 599 56 q 603 47 603 53 z "},"=":{"ha":765,"x_min":90,"x_max":676,"o":"m 649 358 l 99 358 q 92 376 90 358 q 102 412 94 393 q 119 433 110 431 l 667 433 q 675 417 676 433 q 666 382 674 400 q 649 358 658 364 m 649 163 l 99 163 q 92 180 90 163 q 102 216 94 197 q 119 238 110 235 l 667 238 q 675 221 676 238 q 666 186 674 204 q 649 163 658 168 z "},">":{"ha":668,"x_min":65,"x_max":626,"o":"m 65 47 q 67 53 65 51 q 69 56 69 56 l 518 283 l 78 507 q 76 509 78 507 q 74 518 74 511 q 82 560 74 538 q 94 583 90 583 q 101 581 96 583 l 604 326 q 626 294 626 315 q 623 263 626 276 q 604 240 619 249 l 94 -18 q 88 -21 89 -21 q 78 -6 83 -21 q 69 25 72 8 q 65 47 65 42 z "},"?":{"ha":482,"x_min":76,"x_max":421,"o":"m 136 743 q 99 760 122 743 q 76 811 76 778 q 88 861 76 846 q 153 871 107 871 q 231 854 186 871 q 320 805 276 838 q 392 726 364 772 q 421 619 421 679 q 390 504 421 551 q 283 413 360 457 q 242 384 265 401 q 201 351 219 367 q 178 328 182 336 q 169 293 171 314 q 169 253 168 272 q 169 242 169 247 q 169 233 169 238 q 161 221 165 225 q 147 215 157 217 q 131 231 136 219 q 122 290 125 253 q 119 354 119 328 q 138 435 119 404 q 183 487 157 467 q 235 522 210 507 q 319 583 285 554 q 353 661 353 613 q 322 743 353 714 q 253 772 292 772 q 198 765 217 772 q 167 751 179 758 q 136 743 154 743 m 86 61 q 108 113 86 92 q 161 135 131 135 q 213 113 192 135 q 235 61 235 92 q 213 8 235 31 q 161 -15 192 -15 q 108 8 131 -15 q 86 61 86 31 z "},"@":{"ha":1014,"x_min":67,"x_max":965,"o":"m 567 783 q 741 749 667 783 q 865 654 815 714 q 940 520 915 594 q 965 367 965 446 q 928 178 965 264 q 828 41 892 92 q 686 -10 765 -10 q 605 17 636 -10 q 574 107 574 44 q 577 140 574 119 q 583 169 581 161 q 553 122 574 151 q 507 63 533 92 q 451 13 481 33 q 392 -7 421 -7 q 321 19 350 -7 q 277 88 292 46 q 263 176 263 129 q 297 324 263 251 q 388 458 331 397 q 513 554 444 518 q 651 590 582 590 q 709 585 688 590 q 750 572 731 579 l 667 144 q 665 128 665 140 q 664 110 664 115 q 683 63 664 78 q 728 49 701 49 q 813 92 771 49 q 883 206 856 135 q 911 363 911 278 q 890 497 911 432 q 827 615 869 563 q 720 698 785 667 q 567 729 656 729 q 381 685 463 729 q 240 569 299 642 q 151 408 182 496 q 121 231 121 319 q 175 25 121 113 q 301 -106 229 -62 q 360 -135 338 -128 q 403 -144 383 -142 q 385 -160 403 -153 q 354 -168 367 -168 q 328 -167 342 -168 q 301 -160 315 -165 q 185 -81 239 -136 q 99 55 132 -25 q 67 231 67 135 q 100 428 67 331 q 198 607 133 526 q 356 735 263 688 q 567 783 449 783 m 594 528 q 515 499 556 528 q 440 424 475 471 q 385 320 406 378 q 364 204 364 263 q 381 106 364 140 q 433 72 399 72 q 488 100 458 72 q 544 173 517 128 q 592 271 571 218 q 622 372 613 324 l 650 510 q 624 524 640 521 q 594 528 608 528 z "},"A":{"ha":850,"x_min":-19,"x_max":860,"o":"m 129 189 q 142 223 129 189 q 178 315 156 257 q 228 445 200 374 q 286 592 257 517 q 342 738 315 668 q 390 860 369 807 q 415 885 396 871 q 443 899 433 899 q 447 898 446 899 q 450 896 447 897 l 726 171 q 761 82 757 90 q 788 56 768 67 q 828 40 808 44 q 854 35 849 35 q 858 13 860 28 q 856 -4 857 -1 q 783 1 815 -1 q 707 3 751 3 q 628 1 660 3 q 550 -4 597 -1 q 545 15 544 1 q 551 35 546 29 q 590 40 564 35 q 626 53 617 44 q 632 72 632 58 q 623 115 632 85 q 600 182 614 144 q 572 255 586 219 q 549 313 558 290 q 540 336 540 336 q 538 339 540 336 q 532 342 535 342 q 481 343 511 343 q 424 343 450 343 q 410 343 417 343 q 397 343 403 343 q 326 342 356 343 q 251 339 297 342 q 247 337 250 339 q 244 335 244 335 q 234 307 244 335 q 209 241 224 279 q 183 169 194 203 q 167 111 171 135 q 164 74 164 88 q 185 49 164 58 q 230 38 207 40 q 258 35 253 35 q 263 17 261 32 q 261 -4 264 3 q 216 -1 235 -3 q 178 1 197 0 q 129 3 160 3 q 78 1 99 3 q 36 -1 57 0 q -17 -4 15 -3 q -19 13 -19 -1 q -17 35 -19 28 q 26 41 -4 35 q 65 61 56 47 q 101 120 86 88 q 129 189 115 153 m 394 735 l 271 404 q 272 401 271 404 q 274 399 272 399 q 337 397 300 397 q 396 396 374 396 q 453 397 428 396 q 510 400 479 399 q 513 403 513 400 q 514 407 514 407 l 394 735 z "},"B":{"ha":808,"x_min":56,"x_max":749,"o":"m 414 894 q 508 884 460 894 q 597 851 557 874 q 663 789 638 828 q 688 692 688 750 q 663 599 688 640 q 606 531 639 557 q 550 494 574 504 q 550 489 546 492 q 608 472 575 488 q 674 428 642 457 q 728 360 707 400 q 749 269 749 319 q 728 161 749 211 q 658 69 708 111 q 531 13 610 29 q 374 -4 451 -3 l 61 -4 q 56 15 56 1 q 61 35 57 29 q 92 37 69 35 q 134 44 114 39 q 156 57 154 50 q 162 100 161 74 q 163 157 163 126 l 163 736 q 162 794 163 767 q 156 838 161 821 q 134 850 154 846 q 92 856 114 854 q 61 858 69 858 q 56 878 57 864 q 61 897 56 892 q 143 894 103 896 q 222 892 183 892 q 308 893 263 892 q 414 894 354 894 m 281 450 l 281 156 q 281 126 281 146 q 285 88 282 106 q 292 64 288 69 q 334 43 307 47 q 399 39 361 39 q 499 54 450 39 q 582 113 549 69 q 615 239 615 157 q 596 338 615 290 q 522 418 576 386 q 363 450 467 450 l 281 450 m 281 501 l 393 501 q 492 525 454 501 q 547 585 529 549 q 564 661 564 622 q 506 801 564 751 q 354 850 449 850 q 316 849 342 850 q 286 838 290 847 q 281 803 282 826 q 281 753 281 779 q 281 743 281 747 q 281 735 281 739 l 281 501 z "},"C":{"ha":914,"x_min":65,"x_max":857,"o":"m 524 904 q 663 899 590 904 q 811 876 736 893 q 816 848 811 876 q 826 781 821 819 q 837 712 832 743 q 842 675 842 681 q 833 664 843 669 q 813 658 824 658 q 796 663 803 658 q 783 710 793 678 q 745 776 772 742 q 667 835 718 811 q 531 860 615 860 q 394 826 456 860 q 290 734 333 792 q 223 606 246 676 q 200 465 200 536 q 222 310 200 386 q 287 172 243 233 q 397 73 331 110 q 551 36 463 36 q 658 56 614 36 q 731 101 701 75 q 789 182 771 138 q 814 260 807 226 q 857 249 838 263 q 852 210 857 239 q 840 147 847 181 q 825 86 833 113 q 810 53 817 60 q 683 7 754 22 q 518 -8 613 -8 q 335 27 418 -8 q 191 124 251 63 q 98 266 131 186 q 65 436 65 346 q 99 616 65 532 q 194 765 133 700 q 340 867 256 831 q 524 904 424 904 z "},"D":{"ha":963,"x_min":56,"x_max":894,"o":"m 418 893 q 674 835 567 893 q 838 678 781 778 q 894 453 894 579 q 871 285 894 367 q 791 138 847 203 q 639 34 735 72 q 400 -4 543 -4 l 61 -4 q 56 15 56 1 q 61 35 57 29 q 92 37 69 35 q 134 44 114 39 q 156 57 154 50 q 162 100 161 74 q 163 157 163 126 l 163 736 q 162 794 163 767 q 156 838 161 821 q 134 850 154 846 q 92 856 114 854 q 61 858 69 858 q 56 878 57 864 q 61 897 56 892 q 143 894 103 896 q 222 892 183 892 q 318 892 263 892 q 418 893 374 893 m 282 733 l 282 156 q 282 124 282 146 q 284 83 282 103 q 289 58 286 63 q 330 43 297 47 q 400 39 363 39 q 578 81 497 39 q 710 208 660 122 q 760 425 760 293 q 728 621 760 540 q 644 752 697 701 q 523 826 590 803 q 382 849 456 849 q 351 848 374 849 q 310 844 329 847 q 288 835 290 842 q 283 798 283 821 q 282 750 282 775 q 282 742 282 746 q 282 733 282 738 z "},"E":{"ha":796,"x_min":56,"x_max":758,"o":"m 222 892 q 433 896 318 892 q 658 900 549 900 q 676 806 665 849 q 697 717 688 763 q 674 710 690 710 q 654 719 656 710 q 592 824 632 801 q 497 846 551 846 l 381 846 q 350 845 372 846 q 308 842 328 844 q 286 832 289 839 q 281 796 282 818 q 281 750 281 774 q 281 735 281 740 l 281 482 q 299 475 281 476 q 339 474 317 474 l 410 474 q 485 476 458 474 q 525 489 513 479 q 544 518 538 499 q 560 571 551 538 q 579 581 561 581 q 603 574 596 581 l 603 318 q 581 313 597 313 q 560 322 564 313 q 544 378 550 361 q 533 402 538 396 q 521 413 528 408 q 489 420 514 418 q 434 423 464 422 q 378 424 404 424 q 337 423 360 424 q 297 420 314 422 q 281 411 281 418 l 281 153 q 281 144 281 150 q 281 94 281 125 q 288 60 282 64 q 322 48 301 50 q 385 46 342 46 l 450 46 q 546 56 499 46 q 621 83 593 65 q 671 140 653 103 q 706 219 689 176 q 725 228 708 228 q 758 219 750 228 q 716 101 739 164 q 686 -6 693 39 q 468 -3 576 -6 q 224 0 360 0 q 139 -2 176 0 q 61 -4 101 -4 q 56 15 56 1 q 61 35 57 29 q 92 37 69 35 q 134 44 114 39 q 156 57 154 50 q 162 100 161 74 q 163 157 163 126 l 163 736 q 162 794 163 767 q 156 838 161 821 q 134 850 154 846 q 92 856 114 854 q 61 858 69 858 q 56 878 57 864 q 61 897 56 892 q 143 894 103 896 q 222 892 183 892 z "},"F":{"ha":725,"x_min":56,"x_max":697,"o":"m 222 892 q 433 896 318 892 q 658 900 549 900 q 676 806 665 849 q 697 717 688 763 q 674 710 690 710 q 654 719 656 710 q 592 824 632 801 q 497 846 551 846 l 381 846 q 350 845 372 846 q 308 842 328 844 q 286 832 289 839 q 281 796 282 818 q 281 750 281 774 q 281 735 281 740 l 281 482 q 299 475 281 476 q 339 474 317 474 l 410 474 q 485 476 458 474 q 525 489 513 479 q 544 518 538 499 q 560 571 551 538 q 579 581 561 581 q 603 574 596 581 l 603 318 q 581 313 597 313 q 560 322 564 313 q 544 378 550 361 q 533 402 538 396 q 521 413 528 408 q 489 420 514 418 q 434 423 464 422 q 378 424 404 424 q 337 423 360 424 q 297 420 314 422 q 281 411 281 418 l 281 157 q 281 149 281 153 q 281 140 281 144 q 281 92 281 114 q 286 57 282 71 q 312 44 289 50 q 360 37 335 39 q 394 35 386 35 q 399 15 399 29 q 394 -4 400 1 q 308 1 353 -1 q 222 3 263 3 q 138 -1 175 3 q 61 -4 101 -4 q 56 15 56 1 q 61 35 57 29 q 92 37 69 35 q 134 44 114 39 q 156 57 154 50 q 162 100 161 74 q 163 157 163 126 l 163 736 q 162 794 163 767 q 156 838 161 821 q 134 850 154 846 q 92 856 114 854 q 61 858 69 858 q 56 878 57 864 q 61 897 56 892 q 143 894 103 896 q 222 892 183 892 z "},"G":{"ha":976,"x_min":65,"x_max":943,"o":"m 725 238 q 725 246 725 242 q 725 254 725 250 q 724 302 725 281 q 719 338 724 324 q 698 351 718 346 q 656 358 678 356 q 626 360 635 360 q 622 379 622 365 q 626 399 621 393 q 707 394 668 397 q 785 392 746 392 q 860 394 825 392 q 938 399 896 397 q 942 379 943 393 q 938 360 942 365 q 908 358 929 360 q 869 351 888 356 q 849 338 851 346 q 842 294 843 321 q 842 238 842 268 l 842 142 q 849 108 842 119 q 856 86 856 97 q 851 76 856 81 q 829 63 847 72 q 762 31 800 47 q 666 3 724 14 q 518 -8 608 -8 q 335 27 418 -8 q 191 124 251 63 q 98 266 131 186 q 65 436 65 346 q 99 616 65 532 q 194 765 133 700 q 340 867 256 831 q 524 904 424 904 q 663 899 590 904 q 811 876 736 893 q 816 848 811 876 q 826 781 821 819 q 837 712 832 743 q 842 675 842 681 q 833 664 843 669 q 813 658 824 658 q 796 663 803 658 q 783 710 793 678 q 745 776 772 742 q 667 835 718 811 q 531 860 615 860 q 394 826 456 860 q 290 734 333 792 q 223 606 246 676 q 200 465 200 536 q 222 310 200 386 q 287 172 243 233 q 397 73 331 110 q 551 36 463 36 q 645 51 604 36 q 717 81 686 65 q 724 88 724 83 q 725 100 725 93 l 725 238 z "},"H":{"ha":983,"x_min":56,"x_max":929,"o":"m 222 892 q 301 894 263 892 q 381 897 339 896 q 385 876 386 892 q 381 854 385 860 q 350 852 372 854 q 308 846 328 850 q 286 833 289 842 q 281 797 282 819 q 281 749 281 775 q 281 740 281 744 q 281 732 281 736 l 281 494 q 282 492 281 493 q 283 492 283 492 q 386 489 333 490 q 496 488 439 488 q 601 489 544 488 q 703 492 657 490 q 704 493 703 492 q 706 496 706 494 l 706 732 q 705 790 706 763 q 699 833 704 817 q 677 846 697 842 q 635 852 657 850 q 606 854 614 854 q 601 876 601 860 q 606 897 600 892 q 687 894 647 896 q 765 892 726 892 q 844 894 806 892 q 924 897 882 896 q 928 876 929 892 q 924 854 928 860 q 894 852 915 854 q 853 846 872 850 q 831 833 833 842 q 824 790 825 817 q 824 732 824 763 l 824 161 q 824 104 824 131 q 831 61 825 78 q 853 49 833 54 q 894 41 872 43 q 924 39 915 39 q 928 17 928 33 q 924 -4 929 1 q 844 1 882 -1 q 765 3 806 3 q 687 1 726 3 q 606 -4 647 -1 q 601 17 600 1 q 606 39 601 33 q 635 41 614 39 q 677 49 657 43 q 699 61 697 54 q 705 104 704 78 q 706 161 706 131 l 706 431 q 704 434 706 433 q 703 435 703 435 q 602 438 656 436 q 496 440 549 440 q 357 439 401 440 q 299 436 313 438 q 282 433 285 435 q 281 431 281 432 q 281 431 281 431 l 281 161 q 281 153 281 157 q 281 144 281 149 q 281 97 281 118 q 286 61 282 75 q 308 49 289 54 q 350 41 328 43 q 381 39 372 39 q 385 17 385 33 q 381 -4 386 1 q 301 1 339 -1 q 222 3 263 3 q 143 1 183 3 q 61 -4 103 -1 q 56 17 56 1 q 61 39 57 33 q 92 41 69 39 q 134 49 114 43 q 156 61 154 54 q 162 104 161 78 q 163 161 163 131 l 163 732 q 162 790 163 763 q 156 833 161 817 q 134 846 154 842 q 92 852 114 850 q 61 854 69 854 q 56 876 57 860 q 61 897 56 892 q 143 894 103 896 q 222 892 183 892 z "},"I":{"ha":439,"x_min":56,"x_max":386,"o":"m 222 892 q 301 894 263 892 q 381 897 339 896 q 385 878 386 892 q 381 858 385 864 q 350 856 372 858 q 308 850 328 854 q 286 838 289 846 q 281 801 282 824 q 281 753 281 779 q 281 744 281 749 q 281 736 281 740 l 281 157 q 281 149 281 153 q 281 140 281 144 q 281 92 281 114 q 286 57 282 71 q 308 44 289 50 q 350 37 328 39 q 381 35 372 35 q 385 15 385 29 q 381 -4 386 1 q 301 1 339 -1 q 222 3 263 3 q 143 1 183 3 q 61 -4 103 -1 q 56 15 56 1 q 61 35 57 29 q 92 37 69 35 q 134 44 114 39 q 156 57 154 50 q 162 100 161 74 q 163 157 163 126 l 163 736 q 162 794 163 767 q 156 838 161 821 q 134 850 154 846 q 92 856 114 854 q 61 858 69 858 q 56 878 57 864 q 61 897 56 892 q 143 894 103 896 q 222 892 183 892 z "},"J":{"ha":424,"x_min":-142,"x_max":379,"o":"m 214 892 q 293 894 254 892 q 374 897 332 896 q 378 878 379 892 q 374 858 378 864 q 343 856 365 858 q 301 850 321 854 q 279 838 282 846 q 273 794 274 821 q 272 736 272 767 l 272 164 q 231 -110 272 -6 q 119 -261 190 -214 q -44 -308 47 -308 q -89 -301 -60 -308 q -131 -283 -118 -293 q -142 -253 -142 -272 q -125 -199 -142 -221 q -76 -176 -108 -176 q -41 -190 -57 -176 q -11 -215 -25 -203 q 16 -235 0 -225 q 50 -244 32 -244 q 90 -227 71 -244 q 124 -167 110 -210 q 146 -44 138 -124 q 154 157 154 35 l 154 736 q 153 794 154 767 q 147 838 153 821 q 126 850 146 846 q 84 856 106 854 q 54 858 63 858 q 49 878 50 864 q 54 897 49 892 q 135 894 96 896 q 214 892 175 892 z "},"K":{"ha":890,"x_min":56,"x_max":901,"o":"m 222 892 q 301 894 263 892 q 381 897 339 896 q 385 876 386 892 q 381 854 385 860 q 350 852 372 854 q 308 846 328 850 q 286 833 289 842 q 281 797 282 819 q 281 749 281 775 q 281 740 281 744 q 281 732 281 736 l 281 463 q 321 494 296 472 q 376 545 346 517 q 433 600 406 574 q 516 683 486 653 q 565 735 546 713 q 606 783 585 757 q 619 804 613 792 q 625 826 625 817 q 610 848 625 842 q 578 855 596 854 q 553 856 561 856 q 549 856 550 856 q 546 875 546 863 q 549 897 546 888 q 626 893 586 896 q 704 890 667 890 q 780 893 749 890 q 851 897 811 896 q 854 874 854 892 q 849 856 854 856 q 819 853 843 856 q 766 841 794 851 q 714 806 738 831 q 606 692 656 742 q 508 597 557 643 q 400 493 460 550 q 400 483 397 489 q 584 270 499 369 q 747 97 669 171 q 806 57 772 75 q 896 35 840 39 q 899 14 901 29 q 894 -4 896 -1 q 774 0 826 -4 q 701 11 722 4 q 663 29 688 17 q 610 69 638 42 q 552 133 596 85 q 444 253 508 181 q 304 413 381 325 q 292 417 301 417 q 281 414 286 417 l 281 161 q 281 153 281 157 q 281 144 281 149 q 281 97 281 118 q 286 61 282 75 q 308 49 289 54 q 350 41 328 43 q 381 39 372 39 q 385 17 385 33 q 381 -4 386 1 q 301 1 339 -1 q 222 3 263 3 q 143 1 183 3 q 61 -4 103 -1 q 56 17 56 1 q 61 39 57 33 q 92 41 69 39 q 134 49 114 43 q 156 61 154 54 q 162 104 161 78 q 163 161 163 131 l 163 732 q 162 790 163 763 q 156 833 161 817 q 134 846 154 842 q 92 852 114 850 q 61 854 69 854 q 56 876 57 860 q 61 897 56 892 q 143 894 103 896 q 222 892 183 892 z "},"L":{"ha":764,"x_min":56,"x_max":758,"o":"m 281 157 q 281 149 281 154 q 281 116 281 136 q 282 79 281 96 q 288 60 283 63 q 322 48 301 50 q 385 46 342 46 l 461 46 q 547 55 500 46 q 621 83 593 64 q 667 133 646 101 q 706 219 689 165 q 725 228 708 228 q 758 219 750 228 q 716 101 739 164 q 686 -6 693 39 q 468 -3 576 -6 q 224 0 360 0 q 139 -2 176 0 q 61 -4 101 -4 q 56 15 56 1 q 61 35 57 29 q 92 37 69 35 q 134 44 114 39 q 156 57 154 50 q 162 100 161 74 q 163 157 163 126 l 163 736 q 162 794 163 767 q 156 838 161 821 q 134 850 154 846 q 92 856 114 854 q 61 858 69 858 q 56 878 57 864 q 61 897 56 892 q 143 894 103 896 q 222 892 183 892 q 301 894 263 892 q 381 897 339 896 q 385 878 386 892 q 381 858 385 864 q 350 856 372 858 q 308 850 328 854 q 286 838 289 846 q 281 801 282 824 q 281 753 281 779 q 281 744 281 749 q 281 736 281 740 l 281 157 z "},"M":{"ha":1229,"x_min":32,"x_max":1188,"o":"m 221 892 q 282 894 256 892 q 331 897 308 896 q 362 815 339 871 q 416 684 385 760 q 483 524 447 608 q 554 355 519 439 q 618 199 589 271 q 624 196 619 196 q 629 201 628 196 q 701 387 669 304 q 766 552 733 469 q 838 735 799 635 q 864 804 850 767 q 888 869 878 842 q 897 897 897 897 q 1004 893 963 893 q 1085 894 1040 893 q 1156 897 1131 896 q 1158 876 1157 894 q 1160 858 1160 858 q 1128 856 1150 858 q 1088 847 1107 853 q 1064 835 1068 842 q 1058 810 1060 825 q 1057 782 1057 794 q 1060 676 1058 747 q 1063 517 1061 606 q 1067 343 1065 429 q 1071 190 1069 257 q 1075 117 1072 151 q 1088 58 1078 82 q 1113 44 1092 49 q 1155 37 1133 39 q 1182 35 1176 35 q 1187 12 1188 25 q 1185 -4 1186 -1 q 1106 1 1144 -1 q 1024 3 1068 3 q 942 1 976 3 q 860 -4 907 -1 q 857 13 858 -1 q 860 35 856 26 q 886 37 868 35 q 922 42 904 39 q 949 50 940 46 q 958 74 956 54 q 961 107 961 93 q 960 147 961 122 q 958 186 958 171 q 953 376 956 285 q 947 562 950 467 q 940 767 944 657 q 938 782 940 771 q 928 793 935 793 q 921 783 925 793 q 844 590 879 679 q 775 419 808 501 q 708 251 742 336 q 635 67 674 165 q 622 44 632 61 q 602 13 613 28 q 583 -3 592 -1 q 574 -1 581 -4 q 571 0 572 0 l 240 792 q 236 608 239 703 q 231 425 233 514 q 227 265 229 336 q 224 149 225 193 q 222 101 222 106 q 224 80 222 92 q 228 60 225 68 q 256 44 232 50 q 306 37 281 39 q 336 35 331 35 q 340 14 342 29 q 338 -4 339 -1 q 268 1 297 -1 q 194 3 239 3 q 115 1 147 3 q 36 -4 83 -1 q 33 13 35 -1 q 36 35 32 26 q 69 38 44 35 q 117 46 93 40 q 146 60 140 51 q 158 90 156 74 q 163 128 161 106 q 170 363 167 250 q 176 565 174 475 q 179 710 178 654 q 181 776 181 767 q 180 806 181 792 q 175 831 179 819 q 152 845 172 839 q 110 855 132 851 q 81 858 89 858 q 79 877 79 858 q 81 897 79 896 q 132 894 113 896 q 171 892 151 893 q 221 892 190 892 z "},"N":{"ha":1051,"x_min":50,"x_max":1017,"o":"m 194 896 q 254 896 225 896 q 297 897 283 896 q 364 807 318 865 q 471 674 410 749 q 597 521 532 600 q 724 365 663 442 q 829 225 785 288 l 829 739 q 828 796 829 775 q 815 833 826 817 q 790 847 811 840 q 747 856 769 853 q 713 860 724 860 q 708 880 707 867 q 710 899 708 893 q 785 895 750 897 q 865 893 821 893 q 917 894 897 893 q 959 896 938 894 q 1011 899 981 897 q 1015 882 1014 893 q 1011 860 1017 871 q 978 857 1003 860 q 932 848 954 854 q 904 833 910 842 q 893 799 894 818 q 892 740 892 779 l 892 189 q 892 121 892 150 q 892 65 892 92 q 894 1 893 38 q 886 -6 893 -4 q 876 -7 879 -7 q 858 0 871 -7 q 829 25 844 7 l 238 772 l 238 156 q 240 99 238 119 q 251 63 242 79 q 276 49 256 56 q 319 39 296 43 q 353 35 342 35 q 358 15 358 28 q 356 -4 358 3 q 281 1 315 -1 q 201 3 246 3 q 149 1 171 3 q 108 -1 128 0 q 56 -4 88 -3 q 51 13 53 1 q 56 35 50 24 q 88 38 64 35 q 134 48 111 42 q 161 63 157 54 q 173 97 171 78 q 175 154 175 115 l 175 743 q 173 801 175 782 q 161 836 171 821 q 134 851 157 844 q 88 860 111 857 q 56 863 64 863 q 51 885 50 874 q 56 901 53 896 q 132 898 103 900 q 194 896 161 896 z "},"O":{"ha":1014,"x_min":67,"x_max":949,"o":"m 506 904 q 676 871 596 904 q 817 776 756 838 q 913 630 878 714 q 949 444 949 546 q 913 266 949 349 q 817 120 878 183 q 676 22 756 57 q 506 -14 596 -14 q 337 19 417 -14 q 197 115 257 53 q 101 260 136 176 q 67 444 67 344 q 101 624 67 540 q 197 770 136 707 q 337 869 257 833 q 506 904 417 904 m 486 858 q 356 824 410 858 q 267 735 301 790 q 217 611 233 679 q 201 475 201 543 q 223 317 201 396 q 286 174 244 239 q 388 71 328 110 q 528 32 449 32 q 658 66 604 32 q 747 157 713 100 q 798 283 782 214 q 814 419 814 351 q 792 576 814 499 q 728 718 771 654 q 626 820 686 782 q 486 858 565 858 z "},"P":{"ha":743,"x_min":56,"x_max":703,"o":"m 703 650 q 665 506 703 568 q 560 410 628 444 q 404 376 493 376 q 375 379 393 376 q 346 388 357 382 q 335 398 343 390 q 326 418 326 406 q 333 425 326 426 q 357 419 344 422 q 385 415 369 415 q 522 470 467 415 q 578 626 578 525 q 522 789 578 728 q 354 850 467 850 q 316 849 342 850 q 286 838 290 847 q 280 795 281 825 q 279 735 279 765 l 279 157 q 280 100 279 126 q 286 57 281 74 q 308 44 289 50 q 349 37 328 39 q 379 35 371 35 q 384 15 383 29 q 379 -4 385 1 q 299 1 338 -1 q 221 3 261 3 q 142 1 182 3 q 61 -4 103 -1 q 56 15 56 1 q 61 35 57 29 q 91 37 69 35 q 133 44 113 39 q 154 57 153 50 q 160 100 160 74 q 161 157 161 126 l 161 736 q 160 794 161 767 q 154 838 160 821 q 133 850 153 846 q 91 856 113 854 q 61 858 69 858 q 56 878 57 864 q 61 897 56 892 q 142 894 103 896 q 221 892 182 892 q 308 893 261 892 q 414 894 354 894 q 552 866 486 894 q 660 783 618 838 q 703 650 703 729 z "},"Q":{"ha":1013,"x_min":67,"x_max":1051,"o":"m 506 904 q 676 871 596 904 q 817 776 756 838 q 913 630 878 714 q 949 444 949 546 q 907 251 949 340 q 794 99 865 163 q 632 6 722 35 q 714 -39 681 -18 q 776 -76 747 -60 q 841 -101 806 -92 q 929 -110 876 -110 q 994 -106 969 -110 q 1025 -101 1018 -103 q 1040 -104 1032 -101 q 1050 -111 1047 -107 q 1051 -115 1051 -112 q 942 -165 996 -144 q 826 -185 889 -185 q 723 -162 772 -185 q 624 -109 674 -140 q 519 -47 574 -78 q 397 0 464 -17 q 228 85 303 24 q 110 240 153 147 q 67 444 67 332 q 101 624 67 540 q 197 770 136 707 q 337 869 257 833 q 506 904 417 904 m 486 858 q 356 824 410 858 q 267 735 301 790 q 217 611 233 679 q 201 475 201 543 q 223 317 201 396 q 286 174 244 239 q 388 71 328 110 q 528 32 449 32 q 658 66 604 32 q 747 157 713 100 q 798 283 782 214 q 814 419 814 351 q 792 576 814 499 q 728 718 771 654 q 626 820 686 782 q 486 858 565 858 z "},"R":{"ha":842,"x_min":56,"x_max":882,"o":"m 414 894 q 508 879 460 894 q 598 835 557 864 q 664 762 639 806 q 689 660 689 718 q 662 565 689 611 q 592 485 635 519 q 504 435 550 450 q 574 325 540 375 q 643 226 607 275 q 724 117 679 176 q 787 58 753 78 q 876 35 821 39 q 879 14 882 29 q 875 -4 876 -1 q 762 1 807 -4 q 696 13 717 6 q 657 30 682 18 q 608 72 632 42 q 578 115 600 83 q 525 193 556 147 q 460 291 494 239 q 393 393 425 343 q 351 410 382 410 l 281 410 l 281 157 q 281 149 281 153 q 281 140 281 144 q 281 92 281 114 q 286 57 282 71 q 308 44 289 50 q 350 37 328 39 q 381 35 372 35 q 385 15 385 29 q 381 -4 386 1 q 301 1 339 -1 q 222 3 263 3 q 143 1 183 3 q 61 -4 103 -1 q 56 15 56 1 q 61 35 57 29 q 92 37 69 35 q 134 44 114 39 q 156 57 154 50 q 162 100 161 74 q 163 157 163 126 l 161 736 q 160 794 161 767 q 154 838 160 821 q 133 850 153 846 q 91 856 113 854 q 61 858 69 858 q 56 878 57 864 q 61 897 56 892 q 142 894 103 896 q 221 892 182 892 q 308 893 261 892 q 414 894 354 894 m 563 647 q 515 793 563 736 q 354 850 467 850 q 316 849 342 850 q 286 838 290 847 q 280 795 281 825 q 279 735 279 765 l 281 451 l 353 451 q 453 476 406 451 q 532 544 501 500 q 563 647 563 588 z "},"S":{"ha":681,"x_min":67,"x_max":622,"o":"m 354 903 q 426 898 397 903 q 484 885 454 893 q 558 865 514 876 q 572 756 567 813 q 578 672 576 700 q 568 662 579 665 q 550 658 557 658 q 535 664 540 658 q 518 722 532 689 q 480 786 504 756 q 422 837 456 817 q 344 857 388 857 q 257 833 289 857 q 211 775 225 810 q 197 707 197 740 q 226 617 197 653 q 298 553 254 581 q 386 496 342 525 q 460 450 419 475 q 538 394 500 425 q 599 324 575 364 q 622 235 622 285 q 581 105 622 161 q 476 17 540 49 q 339 -14 411 -14 q 208 1 271 -14 q 94 26 144 17 q 80 113 86 67 q 70 193 74 158 q 67 236 67 228 q 83 248 74 243 q 101 253 92 253 q 117 240 114 253 q 134 187 121 221 q 173 117 147 153 q 240 56 199 81 q 342 32 281 32 q 456 76 407 32 q 504 199 504 119 q 478 288 504 256 q 412 343 453 319 q 324 393 371 367 q 217 460 272 424 q 125 547 163 497 q 88 665 88 597 q 126 791 88 738 q 225 874 164 844 q 354 903 286 903 z "},"T":{"ha":849,"x_min":17,"x_max":832,"o":"m 689 897 q 732 904 706 897 q 771 917 758 911 q 786 922 782 922 q 796 919 790 922 q 812 799 803 857 q 832 686 821 740 q 822 679 829 683 q 806 676 815 675 q 786 683 790 676 q 740 801 772 754 q 657 849 708 849 l 485 849 l 485 157 q 485 100 485 126 q 492 57 486 74 q 514 44 494 50 q 555 37 533 39 q 585 35 576 35 q 590 15 589 29 q 585 -4 590 1 q 505 1 543 -1 q 426 3 467 3 q 347 1 388 3 q 265 -4 307 -1 q 260 15 260 1 q 265 35 261 29 q 296 37 274 35 q 338 44 318 39 q 360 57 358 50 q 366 100 365 74 q 367 157 367 126 l 367 849 l 192 849 q 108 801 140 849 q 61 683 76 754 q 42 676 57 676 q 26 679 32 675 q 17 686 19 683 q 36 799 28 740 q 51 919 44 857 q 68 920 58 922 q 83 915 78 918 q 119 903 96 910 q 158 897 142 897 l 689 897 z "},"U":{"ha":981,"x_min":35,"x_max":961,"o":"m 200 892 q 278 894 240 892 q 358 897 317 896 q 363 878 364 892 q 358 858 363 864 q 328 856 350 858 q 288 850 307 854 q 265 838 268 846 q 259 794 260 821 q 258 736 258 767 l 258 401 q 276 254 258 317 q 325 151 293 192 q 511 74 389 74 q 640 100 582 74 q 735 191 699 126 q 774 372 772 256 l 774 739 q 772 796 774 775 q 760 833 771 817 q 736 847 756 840 q 695 856 717 853 q 663 860 674 860 q 658 880 657 867 q 660 899 658 893 q 733 895 700 897 q 810 893 765 893 q 862 894 842 893 q 903 896 882 894 q 956 899 925 897 q 960 882 958 893 q 956 860 961 871 q 924 857 947 860 q 878 848 900 854 q 850 833 856 842 q 838 799 840 818 q 836 740 836 779 l 836 375 q 792 156 836 240 q 667 33 747 72 q 482 -6 588 -6 q 347 18 410 -6 q 240 85 285 42 q 167 194 193 129 q 140 340 140 260 l 140 736 q 140 794 140 767 q 133 838 139 821 q 112 850 132 846 q 70 856 92 854 q 40 858 49 858 q 35 878 36 864 q 40 897 35 892 q 122 894 82 896 q 200 892 161 892 z "},"V":{"ha":865,"x_min":-10,"x_max":886,"o":"m 149 892 q 235 894 193 892 q 317 897 276 896 q 319 876 319 892 q 314 858 318 860 q 288 855 308 858 q 250 842 268 851 q 232 814 232 833 q 257 722 232 792 q 287 641 268 692 q 328 529 306 590 q 373 407 350 468 q 415 294 396 346 q 445 210 433 243 q 458 175 457 178 q 476 217 461 181 q 515 311 492 254 q 565 437 538 368 q 622 576 593 506 q 675 710 650 647 q 692 760 685 733 q 699 804 699 786 q 680 838 699 826 q 640 853 661 849 q 610 857 618 857 q 604 876 604 860 q 610 897 604 892 q 681 894 647 896 q 751 892 714 892 q 802 892 783 892 q 839 894 821 893 q 883 897 857 896 q 885 875 886 892 q 881 858 883 858 q 842 851 872 858 q 794 824 813 844 q 762 767 782 810 q 726 686 742 725 q 658 515 689 593 q 597 365 626 438 q 535 215 567 293 q 463 43 503 138 q 438 7 451 17 q 411 -3 425 -3 q 404 6 407 -3 q 399 19 401 15 q 313 245 353 140 q 233 458 274 350 q 140 697 192 567 q 110 769 125 738 q 78 828 96 801 q 53 846 71 839 q 17 856 35 853 q -8 858 0 858 q -10 877 -10 858 q -8 897 -10 896 q 70 894 39 896 q 149 892 101 892 z "},"W":{"ha":1219,"x_min":-7,"x_max":1229,"o":"m 160 892 q 235 894 204 892 q 306 897 265 896 q 308 876 308 892 q 303 858 307 860 q 278 855 297 858 q 240 842 258 851 q 222 814 222 833 q 228 785 222 808 q 243 725 233 761 q 285 583 258 669 q 342 397 311 496 q 400 201 372 297 q 453 372 424 281 q 511 556 482 464 q 565 725 540 647 q 606 853 590 803 q 628 885 613 872 q 654 897 643 897 q 669 876 660 897 q 687 822 672 868 q 724 705 701 776 q 774 548 746 633 q 831 374 801 463 q 886 204 860 285 q 926 344 908 282 q 960 463 944 407 q 993 579 976 519 q 1028 711 1010 639 q 1039 761 1035 735 q 1043 806 1043 788 q 1024 839 1043 828 q 982 854 1004 850 q 951 858 960 858 q 946 876 946 861 q 951 897 946 892 q 1025 894 989 896 q 1099 892 1061 892 q 1148 892 1131 892 q 1183 894 1165 893 q 1226 897 1200 896 q 1228 875 1229 892 q 1224 858 1226 858 q 1187 850 1215 858 q 1138 824 1158 842 q 1113 787 1124 811 q 1089 721 1101 763 q 1021 485 1051 593 q 960 271 990 376 q 894 43 931 165 q 873 11 889 25 q 843 -3 857 -3 q 835 6 839 -3 q 829 19 831 15 q 790 136 813 68 q 743 280 768 204 q 694 428 718 356 q 651 559 671 500 q 620 653 632 618 q 608 689 608 689 l 608 689 q 554 516 579 596 q 505 362 529 436 q 456 210 481 288 q 404 43 432 133 q 382 11 399 25 q 351 -3 365 -3 q 344 6 347 -3 q 339 19 340 15 q 266 255 300 146 q 197 476 232 364 q 121 722 163 589 q 100 788 108 763 q 72 832 92 814 q 33 852 58 846 q -6 858 7 858 q -7 877 -7 858 q -6 897 -7 896 q 77 894 42 896 q 160 892 113 892 z "},"X":{"ha":906,"x_min":-14,"x_max":910,"o":"m 217 892 q 308 894 267 892 q 390 897 350 896 q 393 875 393 892 q 388 858 393 858 q 358 855 378 858 q 322 842 339 851 q 306 815 306 833 q 322 775 306 800 l 479 533 q 596 688 540 615 q 676 800 651 760 q 681 814 681 807 q 682 822 682 821 q 665 844 682 832 q 592 857 649 857 q 587 874 588 858 q 589 897 586 890 q 660 892 629 894 q 729 890 692 890 q 818 893 782 890 q 878 897 854 896 q 881 878 881 892 q 875 857 882 864 q 848 853 869 857 q 801 838 826 850 q 754 803 775 826 q 665 694 703 740 q 590 601 626 649 q 506 489 554 554 l 772 89 q 832 47 792 60 q 906 35 872 35 q 909 14 910 29 q 907 -4 908 -1 q 838 1 867 -1 q 767 3 808 3 q 667 1 710 3 q 568 -4 625 -1 q 563 18 563 1 q 568 35 563 35 q 595 39 576 35 q 631 52 614 43 q 647 74 647 61 q 645 81 647 76 q 640 89 643 86 l 433 408 q 367 319 403 368 q 299 222 332 269 q 242 139 265 175 q 210 89 218 103 q 206 81 208 86 q 203 68 203 75 q 226 45 203 56 q 307 35 250 35 q 312 14 311 29 q 310 -4 313 -1 q 233 1 272 -1 q 157 3 194 3 q 67 1 104 3 q -11 -4 29 -1 q -12 17 -14 3 q -8 35 -10 32 q 26 40 -3 35 q 87 58 54 44 q 138 94 119 71 q 231 217 189 161 q 313 328 272 272 q 403 450 354 385 q 363 512 388 475 q 313 589 339 549 q 265 664 288 629 q 227 721 242 699 q 213 743 213 743 q 170 800 190 779 q 122 838 150 821 q 81 853 104 849 q 46 858 58 858 q 40 875 40 858 q 46 897 40 892 q 131 894 96 896 q 217 892 167 892 z "},"Y":{"ha":810,"x_min":-19,"x_max":821,"o":"m 354 157 l 354 363 q 344 400 354 381 q 292 494 315 454 q 249 571 269 535 q 205 648 228 607 q 151 743 182 689 q 110 801 129 781 q 63 838 90 821 q 22 853 44 849 q -14 858 -1 858 q -19 875 -19 858 q -14 897 -19 892 q 71 894 36 896 q 156 892 106 892 q 247 894 206 892 q 329 897 289 896 q 332 875 332 892 q 326 858 332 858 q 297 855 317 858 q 262 842 278 851 q 246 815 246 833 q 261 775 246 800 l 450 449 q 503 547 475 493 q 556 651 531 600 q 599 742 581 701 q 626 800 618 782 q 629 809 628 803 q 631 821 631 815 q 612 844 631 832 q 536 857 593 857 q 533 876 533 857 q 533 897 532 894 q 601 893 571 896 q 668 890 631 890 q 727 892 704 890 q 771 894 750 893 q 818 897 792 896 q 819 874 821 892 q 815 857 818 857 q 786 855 810 857 q 736 842 763 853 q 694 803 710 831 q 647 719 675 769 q 589 612 619 668 q 530 502 558 556 q 479 408 501 449 q 474 390 474 399 q 474 374 474 382 q 474 367 474 369 q 474 277 474 326 q 473 192 474 228 q 472 157 472 157 q 472 149 472 153 q 472 140 472 144 q 473 92 472 114 q 478 57 474 71 q 500 44 481 50 q 542 37 519 39 q 572 35 564 35 q 577 15 576 29 q 572 -4 578 1 q 492 1 531 -1 q 414 3 454 3 q 335 1 375 3 q 253 -4 294 -1 q 248 15 247 1 q 253 35 249 29 q 283 37 261 35 q 326 44 306 39 q 347 57 346 50 q 353 100 353 74 q 354 157 354 126 z "},"Z":{"ha":858,"x_min":43,"x_max":817,"o":"m 293 849 q 178 801 225 849 q 108 671 131 754 q 93 665 104 665 q 72 669 83 665 q 58 676 61 674 q 87 781 76 724 q 103 907 97 839 q 156 901 125 904 q 214 897 188 897 l 478 897 q 578 899 535 897 q 663 903 621 900 q 763 910 706 906 q 776 899 767 908 q 786 881 786 889 q 761 842 786 879 q 695 746 736 806 q 603 613 654 686 q 499 460 553 539 q 393 308 444 381 q 301 176 342 235 q 237 82 261 117 q 213 47 213 47 l 567 47 q 641 60 611 47 q 693 96 671 74 q 738 163 722 125 q 765 229 754 200 q 772 233 767 232 q 783 233 778 233 q 803 229 794 233 q 817 221 813 225 q 790 131 801 168 q 769 65 778 94 q 751 0 760 35 l 72 0 q 52 7 61 0 q 47 19 43 14 l 624 849 l 293 849 z "},"[":{"ha":501,"x_min":203,"x_max":440,"o":"m 229 986 l 436 994 l 440 986 l 440 982 q 429 961 440 967 q 428 960 428 961 q 428 960 428 960 q 361 944 401 951 q 268 929 321 936 l 268 -471 l 360 -485 q 428 -501 407 -493 q 440 -524 440 -508 q 439 -531 440 -529 l 438 -535 l 436 -536 l 315 -529 q 272 -528 293 -528 q 229 -528 250 -528 q 203 -496 207 -526 l 203 956 q 217 983 203 974 q 229 986 221 986 z "},"\\":{"ha":478,"x_min":42,"x_max":458,"o":"m 60 975 q 88 971 75 975 q 107 963 101 967 q 114 956 114 958 l 458 -249 l 456 -251 q 449 -256 453 -254 q 433 -258 440 -258 q 399 -247 414 -258 q 381 -228 382 -235 l 42 963 q 60 975 46 975 z "},"]":{"ha":501,"x_min":61,"x_max":299,"o":"m 272 986 q 286 983 282 986 q 299 956 299 975 l 299 -496 q 272 -528 294 -526 q 231 -528 251 -528 q 188 -529 210 -528 l 65 -536 l 64 -535 l 63 -531 q 61 -524 61 -529 q 75 -501 61 -510 q 143 -485 96 -493 l 233 -471 l 233 929 q 141 944 181 936 q 75 960 101 951 q 74 960 75 960 q 72 961 74 961 q 61 982 61 967 l 61 986 l 65 994 l 272 986 z "},"^":{"ha":528,"x_min":83,"x_max":422,"o":"m 253 875 q 274 857 265 875 q 324 764 301 804 q 369 685 346 724 q 422 596 393 647 q 415 580 422 586 q 401 574 408 574 q 352 628 378 599 q 303 685 326 658 q 267 731 281 713 q 253 749 253 749 q 239 731 253 749 q 202 685 225 713 q 153 628 179 658 q 104 574 128 599 q 91 580 99 574 q 83 596 83 586 q 136 685 113 647 q 183 764 160 724 q 232 857 206 804 q 253 875 242 875 z "},"_":{"ha":685,"x_min":19,"x_max":654,"o":"m 19 -44 q 22 -28 19 -44 q 28 3 24 -12 q 39 18 32 18 l 649 18 q 654 11 654 18 q 651 -13 654 1 q 640 -50 647 -28 q 635 -57 639 -56 q 632 -58 632 -58 l 29 -58 q 24 -56 29 -58 q 19 -44 19 -54 z "},"`":{"ha":463,"x_min":157,"x_max":374,"o":"m 206 928 q 231 923 221 928 q 243 917 242 918 q 281 866 260 896 q 324 806 303 836 q 360 753 346 775 q 374 728 374 731 q 372 716 374 722 q 363 710 369 710 q 336 724 358 710 q 284 760 314 738 q 225 806 254 782 q 176 853 196 831 q 157 888 157 875 q 164 910 157 893 q 206 928 171 928 z "},"a":{"ha":583,"x_min":50,"x_max":567,"o":"m 326 592 q 399 567 365 592 q 454 500 433 542 q 475 406 475 458 l 475 126 q 485 81 475 100 q 517 63 494 63 q 547 71 536 63 q 561 81 558 79 q 565 76 564 81 q 567 69 567 72 q 560 43 567 54 q 533 24 551 36 q 494 1 514 11 q 458 -8 474 -8 q 406 21 429 -8 q 376 81 383 50 q 351 60 371 75 q 304 28 331 44 q 252 1 278 13 q 208 -11 226 -11 q 96 34 142 -11 q 50 144 50 79 q 73 216 50 186 q 118 254 96 246 q 205 284 157 268 q 294 315 253 300 q 356 339 336 331 q 369 349 367 343 q 372 374 372 356 l 372 410 q 357 470 372 440 q 315 520 342 500 q 256 540 289 540 q 204 518 221 540 q 181 456 188 496 q 117 390 168 390 q 83 408 94 390 q 71 447 71 426 q 74 463 71 451 q 81 481 76 475 q 140 526 101 500 q 228 572 179 553 q 326 592 278 592 m 254 63 q 306 74 278 63 q 353 98 333 85 q 372 118 372 111 l 372 303 q 306 282 346 294 q 246 263 265 269 q 186 222 210 249 q 163 157 163 196 q 189 91 163 119 q 254 63 215 63 z "},"b":{"ha":675,"x_min":4,"x_max":622,"o":"m 286 -10 q 240 -2 271 -10 q 186 11 208 6 q 175 14 182 13 q 138 23 157 19 q 99 19 118 26 q 87 31 93 19 q 81 49 81 43 q 94 99 90 69 q 97 149 97 128 l 97 757 q 97 793 97 771 q 90 828 96 815 q 60 847 85 843 q 7 851 35 851 q 5 869 6 851 q 8 888 4 886 q 109 908 60 893 q 201 942 158 922 q 212 934 207 942 q 217 919 217 926 q 209 889 217 919 q 201 801 201 858 l 201 535 q 203 522 201 529 q 210 521 204 515 q 250 547 221 529 q 314 579 279 564 q 374 594 349 594 q 481 569 435 594 q 559 502 528 543 q 606 412 590 461 q 622 317 622 363 q 578 153 622 228 q 459 35 535 79 q 286 -10 383 -10 m 308 514 q 250 501 282 514 q 208 478 218 488 q 201 463 201 471 l 201 133 q 221 82 201 104 q 269 48 240 60 q 328 36 299 36 q 417 70 376 36 q 483 156 458 104 q 508 263 508 208 q 453 447 508 381 q 308 514 399 514 z "},"c":{"ha":574,"x_min":53,"x_max":533,"o":"m 518 524 q 501 473 518 488 q 467 458 485 458 q 425 478 444 458 q 388 508 406 497 q 351 529 365 524 q 311 535 338 535 q 240 508 275 535 q 181 431 204 481 q 158 308 158 381 q 222 135 158 190 q 378 79 286 79 q 472 106 435 79 q 522 147 508 132 q 528 142 524 147 q 533 129 533 138 q 525 104 533 118 q 486 58 513 85 q 419 10 460 31 q 326 -11 379 -11 q 183 28 244 -11 q 87 129 121 67 q 53 263 53 192 q 84 398 53 338 q 165 503 115 458 q 272 571 214 547 q 382 594 329 594 q 504 561 457 594 q 513 546 508 557 q 518 524 518 535 z "},"d":{"ha":697,"x_min":53,"x_max":674,"o":"m 376 594 q 429 590 399 594 q 469 581 460 585 q 476 608 476 581 l 476 757 q 476 794 476 772 q 469 828 475 815 q 439 847 464 843 q 386 851 414 851 q 384 869 385 851 q 388 888 383 886 q 488 908 439 893 q 581 942 538 922 q 591 934 586 942 q 596 919 596 926 q 588 889 596 919 q 581 801 581 858 l 581 221 q 583 142 581 182 q 590 88 585 103 q 623 69 597 72 q 663 64 649 65 q 669 64 668 64 q 673 56 672 63 q 674 47 674 50 q 672 37 674 46 q 664 28 669 28 q 588 17 629 26 q 518 -2 547 7 q 488 -11 489 -11 q 479 -1 482 -11 q 476 15 476 8 l 476 63 q 472 71 476 75 q 431 40 463 60 q 363 5 400 21 q 292 -11 325 -11 q 176 27 231 -11 q 87 131 121 65 q 53 279 53 197 q 85 403 53 346 q 169 503 118 461 q 275 570 219 546 q 376 594 331 594 m 332 538 q 244 505 281 538 q 187 421 207 472 q 167 313 167 369 q 189 194 167 249 q 254 107 211 140 q 358 74 297 74 q 440 92 404 74 q 476 128 476 111 l 476 471 q 433 516 476 494 q 332 538 389 538 z "},"e":{"ha":582,"x_min":54,"x_max":532,"o":"m 150 336 q 179 192 149 250 q 261 105 210 133 q 372 76 313 76 q 440 90 410 76 q 492 120 471 103 q 521 147 513 138 q 527 142 522 147 q 532 129 532 138 q 524 104 532 118 q 485 58 511 85 q 418 10 458 31 q 325 -11 378 -11 q 185 26 246 -11 q 89 128 124 64 q 54 271 54 192 q 78 398 54 339 q 142 501 103 457 q 229 569 182 544 q 321 594 276 594 q 422 574 382 594 q 484 522 461 553 q 516 461 507 492 q 525 410 525 431 q 518 364 525 381 q 492 346 511 347 q 442 344 479 344 q 358 342 406 343 q 265 339 311 340 q 188 337 219 338 q 150 336 156 336 m 157 386 l 378 386 q 399 393 390 386 q 410 418 408 400 q 400 465 411 435 q 365 521 389 496 q 299 546 340 546 q 228 522 256 546 q 184 466 200 497 q 162 410 168 435 q 157 386 156 386 z "},"f":{"ha":417,"x_min":33,"x_max":443,"o":"m 365 946 q 405 943 396 946 q 429 929 414 940 q 438 914 433 925 q 443 892 443 903 q 423 847 443 856 q 389 838 403 838 q 369 842 379 838 q 349 851 360 846 q 331 861 338 858 q 310 864 324 864 q 256 832 279 864 q 235 736 233 800 l 235 568 l 396 568 q 401 557 401 568 q 401 553 401 554 q 383 513 401 531 l 235 513 l 235 157 q 235 100 235 126 q 242 57 236 74 q 263 44 244 50 q 303 37 282 39 q 333 35 325 35 q 338 15 338 29 q 333 -4 339 1 q 257 1 292 -1 q 182 3 222 3 q 112 1 143 3 q 39 -4 81 -1 q 34 15 33 1 q 39 35 35 29 q 67 37 47 35 q 104 44 86 39 q 124 57 122 50 q 130 100 129 74 q 131 157 131 126 l 131 513 l 51 513 q 47 517 49 513 q 46 525 46 522 q 54 538 46 528 q 72 558 63 549 q 81 568 81 568 l 131 568 l 131 594 q 155 732 131 668 q 217 844 179 796 q 294 919 254 892 q 365 946 335 946 z "},"g":{"ha":632,"x_min":31,"x_max":618,"o":"m 408 90 q 510 71 463 90 q 588 19 558 51 q 618 -51 618 -12 q 590 -137 618 -93 q 513 -221 561 -182 q 400 -284 464 -260 q 265 -308 336 -308 q 157 -290 211 -308 q 67 -235 103 -272 q 31 -143 31 -199 q 57 -85 31 -112 q 118 -35 83 -57 q 175 -1 153 -12 q 126 24 151 7 q 82 66 100 40 q 64 125 64 92 q 99 158 76 139 q 145 193 122 176 q 181 217 168 210 q 99 292 131 244 q 68 390 68 340 q 98 491 68 444 q 180 567 128 538 q 297 596 232 596 q 372 584 342 596 q 421 565 403 572 q 441 558 440 558 q 451 556 442 558 l 597 576 q 610 563 610 572 q 600 534 610 554 q 579 507 590 514 q 542 509 563 508 q 506 511 521 510 q 490 513 490 513 q 485 508 485 513 q 506 467 490 503 q 522 385 522 432 q 492 292 522 338 q 410 216 463 246 q 293 186 358 186 q 251 190 275 186 q 217 199 228 194 q 183 172 199 189 q 167 139 167 156 q 188 110 167 129 q 249 90 208 90 l 408 90 m 346 -6 q 305 -6 333 -6 q 251 -8 276 -7 q 219 -12 225 -10 q 168 -51 197 -26 q 139 -103 139 -76 q 186 -212 139 -168 q 319 -256 233 -256 q 414 -235 367 -256 q 493 -181 461 -214 q 525 -110 525 -147 q 507 -66 525 -90 q 450 -24 489 -42 q 346 -6 411 -6 m 292 554 q 226 531 253 554 q 186 471 200 507 q 172 396 172 435 q 188 315 172 354 q 232 251 203 276 q 303 226 261 226 q 366 249 340 226 q 405 308 392 272 q 418 381 418 343 q 404 463 418 424 q 363 528 390 503 q 292 554 335 554 z "},"h":{"ha":699,"x_min":24,"x_max":690,"o":"m 417 594 q 528 564 490 594 q 578 469 565 533 q 592 307 592 406 l 592 157 q 592 100 592 126 q 599 57 593 74 q 619 44 601 50 q 656 37 636 39 q 685 35 676 35 q 690 15 689 29 q 685 -4 690 1 q 611 1 643 -1 q 539 3 579 3 q 469 1 500 3 q 396 -4 438 -1 q 391 15 390 1 q 396 35 392 29 q 424 37 404 35 q 461 44 443 39 q 481 57 479 50 q 487 100 486 74 q 488 157 488 126 l 488 293 q 476 426 488 378 q 436 494 465 474 q 354 515 407 515 q 299 499 329 515 q 247 465 269 483 q 225 440 225 447 l 225 157 q 226 100 225 126 q 232 57 226 74 q 252 44 235 50 q 290 37 269 39 q 318 35 310 35 q 323 15 322 29 q 318 -4 324 1 q 244 1 276 -1 q 172 3 213 3 q 102 1 133 3 q 29 -4 71 -1 q 24 15 24 1 q 29 35 25 29 q 57 37 38 35 q 94 44 76 39 q 114 57 113 50 q 120 100 119 74 q 121 157 121 126 l 121 757 q 120 793 121 771 q 114 828 119 815 q 84 847 108 843 q 32 851 60 851 q 30 869 31 851 q 33 888 29 886 q 133 908 85 893 q 225 942 182 922 q 235 934 231 942 q 240 919 240 926 q 233 889 240 919 q 225 801 225 858 l 225 494 q 229 492 225 492 q 233 494 231 492 q 278 533 247 510 q 347 576 310 557 q 417 594 385 594 z "},"i":{"ha":365,"x_min":43,"x_max":343,"o":"m 115 804 q 135 852 115 832 q 183 872 156 872 q 231 852 211 872 q 251 804 251 832 q 231 756 251 776 q 183 736 211 736 q 135 756 156 736 q 115 804 115 776 m 246 157 q 247 100 246 126 q 253 57 247 74 q 273 44 256 50 q 310 37 290 39 q 338 35 329 35 q 342 15 342 29 q 338 -4 343 1 q 265 1 296 -1 q 193 3 233 3 q 122 1 154 3 q 49 -4 90 -1 q 44 15 43 1 q 49 35 44 29 q 77 37 57 35 q 115 44 97 39 q 135 57 133 50 q 141 100 140 74 q 142 157 142 126 l 142 410 q 141 446 142 424 q 135 481 140 468 q 111 498 131 493 q 72 503 92 503 q 47 504 53 504 q 44 521 46 507 q 47 540 43 535 q 150 561 100 547 q 240 597 200 575 q 251 589 246 597 q 256 575 256 581 q 253 551 256 571 q 248 513 250 532 q 246 486 246 493 l 246 157 z "},"j":{"ha":324,"x_min":-26,"x_max":239,"o":"m 89 804 q 109 852 89 832 q 157 872 129 872 q 205 852 185 872 q 225 804 225 832 q 205 756 225 776 q 157 736 185 736 q 109 756 129 736 q 89 804 89 776 m 125 61 l 125 410 q 124 446 125 424 q 118 481 124 468 q 94 498 114 493 q 54 503 74 503 q 29 504 35 504 q 26 521 28 507 q 29 540 25 535 q 133 561 82 547 q 224 597 183 575 q 234 589 229 597 q 239 575 239 581 q 236 553 239 571 q 231 515 233 535 q 229 486 229 496 l 229 92 q 206 -76 229 -6 q 146 -195 182 -147 q 69 -272 110 -243 q -6 -314 29 -300 q -24 -293 -18 -306 q -24 -283 -26 -286 q 49 -219 15 -256 q 104 -117 83 -182 q 125 61 125 -51 z "},"k":{"ha":701,"x_min":24,"x_max":697,"o":"m 225 157 q 226 100 225 126 q 232 57 226 74 q 252 44 235 50 q 290 37 269 39 q 318 35 310 35 q 323 15 322 29 q 318 -4 324 1 q 244 1 276 -1 q 172 3 213 3 q 102 1 133 3 q 29 -4 71 -1 q 24 15 24 1 q 29 35 25 29 q 57 37 38 35 q 94 44 76 39 q 114 57 113 50 q 120 100 119 74 q 121 157 121 126 l 121 757 q 120 794 121 772 q 114 828 119 815 q 84 847 108 843 q 32 851 60 851 q 30 869 31 851 q 33 888 29 886 q 133 908 85 893 q 225 942 182 922 q 235 934 231 942 q 240 919 240 926 q 233 889 240 919 q 225 801 225 858 l 225 318 q 273 349 243 325 q 338 401 303 372 q 426 475 390 446 q 461 514 461 504 q 448 529 461 525 q 419 535 435 533 q 397 538 404 538 q 392 560 392 544 q 399 576 393 575 q 463 572 428 574 q 529 569 497 569 q 649 576 600 569 q 652 556 653 571 q 649 538 651 542 q 601 529 635 538 q 544 506 567 521 q 515 485 539 501 q 459 443 492 468 q 391 390 426 418 q 325 338 356 363 q 426 227 376 283 q 515 128 476 171 q 569 72 554 86 q 631 42 596 50 q 693 35 667 33 q 697 20 696 32 q 694 3 697 8 q 661 -3 688 0 q 607 -6 635 -6 q 501 16 547 -6 q 440 54 456 38 q 422 74 440 54 q 372 127 403 94 q 308 196 342 160 q 246 264 275 232 q 233 273 242 269 q 225 276 225 276 l 225 157 z "},"l":{"ha":346,"x_min":24,"x_max":324,"o":"m 121 757 q 120 794 121 772 q 114 828 119 815 q 84 847 108 843 q 32 851 60 851 q 30 869 31 851 q 33 888 29 886 q 133 908 85 893 q 225 942 182 922 q 235 934 231 942 q 240 919 240 926 q 233 889 240 919 q 225 801 225 858 l 225 157 q 226 100 225 126 q 232 57 226 74 q 252 44 235 50 q 290 37 269 39 q 318 35 310 35 q 323 15 322 29 q 318 -4 324 1 q 244 1 276 -1 q 172 3 213 3 q 102 1 133 3 q 29 -4 71 -1 q 24 15 24 1 q 29 35 25 29 q 57 37 38 35 q 94 44 76 39 q 114 57 113 50 q 120 100 119 74 q 121 157 121 126 l 121 757 z "},"m":{"ha":1071,"x_min":43,"x_max":1060,"o":"m 433 594 q 533 569 494 594 q 588 482 571 543 q 685 558 632 522 q 788 594 739 594 q 899 564 861 594 q 949 469 936 533 q 963 307 963 406 l 963 157 q 963 100 963 126 q 969 57 964 74 q 990 44 972 50 q 1026 37 1007 39 q 1054 35 1046 35 q 1059 15 1058 29 q 1054 -4 1060 1 q 981 1 1013 -1 q 910 3 950 3 q 839 1 871 3 q 765 -4 807 -1 q 760 15 760 1 q 765 35 761 29 q 794 37 774 35 q 832 44 814 39 q 851 57 850 50 q 856 92 856 71 q 857 140 857 114 q 857 149 857 144 q 857 157 857 153 l 857 303 q 848 418 857 371 q 813 490 839 465 q 731 515 786 515 q 667 498 697 515 q 617 462 636 481 q 597 438 597 443 q 598 430 597 436 q 599 421 599 424 q 603 372 601 401 q 604 324 604 343 l 604 157 q 605 100 604 126 q 611 57 606 74 q 631 44 614 50 q 668 37 649 39 q 696 35 688 35 q 701 15 700 29 q 696 -4 701 1 q 623 1 654 -1 q 551 3 592 3 q 481 1 513 3 q 407 -4 449 -1 q 402 15 401 1 q 407 35 403 29 q 435 37 415 35 q 474 44 456 39 q 493 57 492 50 q 499 100 499 74 q 500 157 500 126 l 500 296 q 473 467 500 419 q 372 515 446 515 q 313 500 342 515 q 265 467 283 485 q 246 440 246 450 l 246 157 q 247 100 246 126 q 253 57 247 74 q 273 44 256 50 q 310 37 290 39 q 338 35 329 35 q 342 15 342 29 q 338 -4 343 1 q 265 1 296 -1 q 193 3 233 3 q 122 1 154 3 q 49 -4 90 -1 q 44 15 43 1 q 49 35 44 29 q 77 37 57 35 q 115 44 97 39 q 135 57 133 50 q 141 100 140 74 q 142 157 142 126 l 142 404 q 141 443 142 418 q 135 481 140 468 q 111 498 131 493 q 72 503 92 503 q 47 504 53 504 q 44 521 46 507 q 47 540 43 535 q 150 561 100 547 q 240 597 200 575 q 251 589 246 597 q 256 575 256 581 q 253 556 256 571 q 249 525 251 540 q 247 504 247 510 q 250 499 247 499 q 254 501 251 499 q 299 538 271 517 q 362 577 326 560 q 433 594 397 594 z "},"n":{"ha":721,"x_min":43,"x_max":710,"o":"m 438 594 q 549 564 511 594 q 599 469 586 533 q 613 307 613 406 l 613 157 q 613 100 613 126 q 619 57 614 74 q 640 44 622 50 q 676 37 657 39 q 704 35 696 35 q 709 15 708 29 q 704 -4 710 1 q 631 1 663 -1 q 560 3 600 3 q 489 1 521 3 q 415 -4 457 -1 q 410 15 410 1 q 415 35 411 29 q 444 37 424 35 q 482 44 464 39 q 501 57 500 50 q 508 100 507 74 q 508 157 508 126 l 508 293 q 497 426 508 378 q 457 494 486 474 q 375 515 428 515 q 320 499 350 515 q 268 465 290 483 q 246 440 246 447 l 246 157 q 247 100 246 126 q 253 57 247 74 q 273 44 256 50 q 310 37 290 39 q 338 35 329 35 q 342 15 342 29 q 338 -4 343 1 q 265 1 296 -1 q 193 3 233 3 q 122 1 154 3 q 49 -4 90 -1 q 44 15 43 1 q 49 35 44 29 q 77 37 57 35 q 115 44 97 39 q 135 57 133 50 q 141 100 140 74 q 142 157 142 126 l 142 404 q 141 443 142 418 q 135 481 140 468 q 111 498 131 493 q 72 503 92 503 q 47 504 53 504 q 44 521 46 507 q 47 540 43 535 q 150 561 100 547 q 240 597 200 575 q 251 589 246 597 q 256 575 256 581 q 253 553 256 571 q 249 519 251 536 q 247 497 247 503 q 250 492 247 492 q 254 494 251 492 q 299 533 268 510 q 368 576 331 557 q 438 594 406 594 z "},"o":{"ha":690,"x_min":56,"x_max":635,"o":"m 344 596 q 499 557 435 596 q 599 451 564 518 q 635 300 635 385 q 597 142 635 213 q 494 31 560 72 q 347 -10 429 -10 q 192 30 258 -10 q 91 137 126 69 q 56 289 56 204 q 94 446 56 376 q 197 556 132 515 q 344 596 263 596 m 329 550 q 238 516 272 550 q 188 428 203 482 q 172 317 172 375 q 194 186 172 251 q 258 78 215 121 q 361 35 300 35 q 453 69 419 35 q 503 157 488 103 q 518 268 518 211 q 496 399 518 335 q 432 507 474 464 q 329 550 390 550 z "},"p":{"ha":692,"x_min":18,"x_max":639,"o":"m 394 594 q 503 568 457 594 q 580 499 550 542 q 624 408 610 456 q 639 315 639 360 q 611 191 639 250 q 538 87 583 132 q 435 15 492 42 q 322 -11 379 -11 q 269 -6 296 -11 q 226 4 243 -1 q 224 -1 226 4 q 221 -14 221 -6 l 221 -144 q 222 -202 221 -175 q 228 -246 222 -229 q 248 -258 231 -253 q 285 -265 265 -262 q 314 -267 306 -267 q 319 -287 318 -272 q 314 -307 319 -301 q 240 -302 272 -304 q 168 -300 208 -300 q 98 -302 129 -300 q 25 -307 67 -304 q 20 -287 19 -301 q 25 -267 21 -272 q 53 -265 33 -267 q 90 -258 72 -262 q 110 -246 108 -253 q 116 -202 115 -229 q 117 -144 117 -175 l 117 410 q 116 446 117 424 q 110 481 115 468 q 86 498 106 493 q 47 503 67 503 q 22 504 28 504 q 19 521 21 507 q 22 540 18 535 q 126 561 75 547 q 217 597 176 575 q 226 589 222 597 q 231 575 231 581 q 225 548 229 568 q 221 519 221 528 q 224 514 221 514 q 228 517 225 514 q 274 550 244 532 q 335 581 303 568 q 394 594 368 594 m 336 514 q 282 505 308 514 q 238 483 256 496 q 221 461 221 471 l 221 136 q 242 79 221 101 q 294 47 264 57 q 347 36 324 36 q 444 70 404 36 q 504 157 483 104 q 525 264 525 210 q 469 449 525 385 q 336 514 414 514 z "},"q":{"ha":674,"x_min":53,"x_max":675,"o":"m 388 594 q 438 586 408 594 q 497 569 467 578 q 550 560 528 560 q 576 564 564 560 q 589 552 583 564 q 594 535 594 540 q 581 484 585 514 q 578 433 578 454 l 578 -146 q 578 -203 578 -176 q 585 -247 579 -231 q 605 -259 588 -254 q 642 -266 622 -264 q 669 -268 661 -268 q 674 -288 674 -274 q 669 -308 675 -303 q 597 -303 628 -306 q 525 -301 565 -301 q 454 -303 486 -301 q 381 -308 422 -306 q 376 -288 375 -303 q 381 -268 376 -274 q 409 -266 389 -268 q 447 -259 429 -264 q 467 -247 465 -254 q 473 -203 472 -231 q 474 -146 474 -176 l 474 54 q 472 66 474 60 q 464 68 469 72 q 424 41 454 60 q 359 6 394 22 q 294 -10 324 -10 q 191 17 236 -10 q 115 85 146 43 q 69 175 85 126 q 53 269 53 224 q 84 399 53 339 q 166 502 115 458 q 275 570 217 546 q 388 594 333 594 m 347 546 q 265 522 300 546 q 209 463 231 499 q 177 389 188 428 q 167 318 167 350 q 224 135 167 199 q 365 72 281 72 q 440 92 406 72 q 474 126 474 111 l 474 450 q 454 501 474 479 q 406 534 435 522 q 347 546 378 546 z "},"r":{"ha":519,"x_min":43,"x_max":500,"o":"m 411 593 q 461 581 438 593 q 494 553 485 569 q 499 538 497 547 q 500 517 500 528 q 483 463 500 479 q 454 446 465 446 q 428 456 440 446 q 404 472 415 465 q 384 484 394 479 q 354 489 374 489 q 301 465 325 489 q 261 411 276 440 q 246 367 246 382 l 246 157 q 247 100 246 126 q 253 57 247 74 q 281 44 256 50 q 333 37 306 39 q 369 35 361 35 q 374 15 374 29 q 369 -4 375 1 q 285 1 328 -1 q 201 3 242 3 q 126 1 163 3 q 49 -4 90 -1 q 44 15 43 1 q 49 35 44 29 q 77 37 57 35 q 115 44 97 39 q 135 57 133 50 q 141 100 140 74 q 142 157 142 126 l 142 410 q 141 446 142 424 q 135 481 140 468 q 111 498 131 493 q 72 503 92 503 q 47 504 53 504 q 44 521 46 507 q 47 540 43 535 q 150 561 100 547 q 240 597 200 575 q 251 589 246 597 q 256 575 256 581 q 253 543 256 571 q 248 487 250 515 q 246 450 246 458 q 248 446 246 446 q 251 447 250 446 q 291 510 265 476 q 349 569 317 544 q 411 593 381 593 z "},"s":{"ha":500,"x_min":56,"x_max":446,"o":"m 264 593 q 331 587 304 593 q 403 575 358 581 q 414 503 410 544 q 419 426 418 463 q 406 419 419 419 q 394 421 400 419 q 382 426 388 422 q 359 481 375 451 q 320 530 343 510 q 268 550 297 550 q 196 526 219 550 q 172 465 172 501 q 189 409 172 431 q 233 372 206 388 q 290 338 260 356 q 357 297 321 319 q 419 245 393 275 q 446 172 446 215 q 417 76 446 118 q 340 9 388 33 q 238 -15 293 -15 q 157 -6 190 -15 q 79 11 124 3 q 68 53 74 26 q 59 107 63 79 q 56 151 56 135 q 81 160 67 160 q 92 157 88 160 q 121 99 100 129 q 172 49 142 69 q 239 29 203 29 q 308 54 281 29 q 336 126 336 79 q 311 194 336 168 q 249 240 286 219 q 171 282 211 260 q 99 340 131 306 q 68 428 68 374 q 97 515 68 478 q 169 573 125 553 q 264 593 214 593 z "},"t":{"ha":421,"x_min":28,"x_max":399,"o":"m 217 586 l 392 586 q 399 571 399 586 q 379 531 399 550 l 217 531 l 217 175 q 307 64 217 64 q 363 76 338 64 q 394 94 388 89 q 399 86 399 93 q 393 65 399 71 q 363 36 383 54 q 315 4 343 18 q 254 -10 288 -10 q 187 3 219 -10 q 133 47 154 15 q 113 138 113 79 l 113 531 l 33 531 q 29 535 31 531 q 28 543 28 540 q 36 556 28 546 q 53 576 44 567 q 63 586 63 586 l 113 586 l 113 671 q 145 706 126 686 q 179 744 164 726 q 196 763 194 761 q 209 768 201 768 q 217 764 217 768 l 217 586 z "},"u":{"ha":697,"x_min":18,"x_max":672,"o":"m 474 433 q 474 439 474 435 q 472 473 474 453 q 464 507 471 493 q 428 531 454 526 q 388 535 401 535 q 384 551 385 538 q 388 569 383 564 q 489 579 440 572 q 574 597 538 586 q 583 583 579 597 q 588 564 588 569 q 581 531 583 556 q 579 476 579 506 l 579 192 q 581 148 579 181 q 588 88 582 115 q 619 68 592 71 q 660 64 646 65 q 668 64 667 64 q 672 57 671 63 q 672 49 672 51 q 669 38 672 47 q 661 28 667 28 q 585 17 626 26 q 515 -2 544 7 q 485 -11 486 -11 q 476 -3 479 -11 q 474 11 474 4 l 474 74 q 472 80 474 79 q 471 81 471 81 q 421 40 453 61 q 351 4 389 18 q 279 -10 314 -10 q 192 16 225 -10 q 140 83 158 42 q 116 171 122 124 q 110 261 110 218 l 110 433 q 108 469 110 447 q 99 507 107 492 q 63 531 89 526 q 22 535 36 535 q 19 551 19 538 q 22 569 18 564 q 124 579 75 572 q 208 597 172 586 q 219 586 214 597 q 224 569 224 575 q 217 533 219 561 q 214 476 214 506 l 214 276 q 247 117 214 168 q 350 67 279 67 q 408 78 381 67 q 455 108 436 90 q 474 142 474 126 l 474 433 z "},"v":{"ha":640,"x_min":-1,"x_max":643,"o":"m 139 576 q 206 579 178 576 q 275 583 235 582 q 276 561 278 578 q 269 544 275 544 q 249 543 265 544 q 217 537 232 542 q 203 521 203 532 q 204 515 203 518 l 353 149 q 364 178 353 149 q 394 255 375 208 q 433 356 413 301 q 474 457 454 410 q 481 481 479 469 q 482 500 482 493 q 460 533 482 521 q 403 544 438 544 q 397 561 397 544 q 403 583 397 578 q 453 579 435 582 q 513 576 471 576 q 575 579 551 576 q 639 583 599 582 q 641 561 643 578 q 635 544 639 544 q 612 540 629 544 q 576 526 594 536 q 550 497 558 517 q 495 367 519 425 q 448 253 471 308 q 400 140 425 199 q 346 8 375 81 q 331 -8 343 0 q 311 -15 318 -15 q 299 -10 301 -15 q 184 275 233 147 q 78 517 135 403 q 43 541 68 538 q 6 544 18 544 q 3 544 3 544 q 0 562 1 550 q 3 583 -1 574 q 71 579 44 582 q 139 576 97 576 z "},"w":{"ha":978,"x_min":0,"x_max":979,"o":"m 138 576 q 205 579 176 576 q 274 583 233 582 q 276 563 276 578 q 271 544 275 547 q 249 542 265 544 q 217 534 232 540 q 203 513 203 528 q 210 492 203 510 q 257 376 222 460 q 349 158 292 293 q 430 362 401 290 q 458 443 458 433 q 449 474 458 450 q 426 518 440 499 q 397 540 415 535 q 367 544 379 544 q 361 563 361 547 q 367 583 361 578 q 412 581 394 582 q 446 578 429 579 q 490 576 463 576 q 560 579 529 576 q 631 583 590 582 q 633 563 633 578 q 629 544 633 549 q 563 500 563 544 q 565 486 563 493 q 603 383 574 460 q 689 163 633 307 q 762 342 729 261 q 808 467 794 424 q 814 486 813 478 q 815 499 815 494 q 801 527 815 518 q 769 540 788 536 q 735 544 750 543 q 730 563 731 547 q 735 583 729 578 q 778 581 763 582 q 809 578 793 579 q 853 576 825 576 q 914 579 892 576 q 976 583 936 582 q 978 565 978 581 q 972 544 979 550 q 948 540 967 544 q 909 526 929 536 q 881 494 889 515 q 813 326 843 400 q 753 177 783 251 q 683 8 724 103 q 672 -8 681 0 q 656 -15 663 -15 q 639 -10 642 -15 l 489 382 l 342 11 q 330 -3 340 8 q 308 -15 319 -15 q 296 -10 299 -15 q 238 133 264 69 q 188 255 213 196 q 137 376 164 314 q 76 514 110 438 q 41 540 67 536 q 3 544 15 544 q 0 565 0 551 q 3 583 0 578 q 70 579 44 582 q 138 576 96 576 z "},"x":{"ha":644,"x_min":14,"x_max":638,"o":"m 167 576 q 245 579 208 576 q 304 583 282 582 q 306 565 306 579 q 301 544 307 551 q 266 540 285 544 q 247 521 247 536 q 254 504 247 515 l 343 363 q 383 422 361 392 q 422 478 406 453 q 439 518 439 504 q 426 535 439 529 q 398 542 414 540 q 372 544 382 543 q 364 544 365 544 q 362 563 363 546 q 364 583 361 579 q 432 579 406 582 q 500 576 458 576 q 566 579 536 576 q 610 583 596 582 q 611 561 611 578 q 608 544 611 544 q 574 542 596 544 q 533 533 553 539 q 503 514 513 526 q 450 439 479 481 q 398 365 421 397 q 368 325 375 333 q 390 293 372 319 q 431 232 407 267 q 477 163 454 197 q 515 107 500 129 q 531 85 531 85 q 578 45 551 56 q 635 35 606 35 q 637 17 638 35 q 633 -4 636 0 q 569 1 596 -1 q 506 3 543 3 q 431 1 463 3 q 356 -4 400 -1 q 353 19 353 3 q 357 35 354 35 q 393 42 372 36 q 414 60 414 47 q 411 68 414 63 q 400 86 411 68 q 372 132 389 104 q 336 188 354 160 q 304 238 318 217 q 259 172 285 208 q 206 90 233 135 q 199 76 200 82 q 199 65 199 71 q 224 42 199 46 q 272 35 250 38 q 275 18 275 35 q 271 -4 275 1 q 208 1 232 -1 q 143 3 183 3 q 79 1 104 3 q 15 -4 54 -1 q 15 17 14 4 q 18 35 15 29 q 88 49 50 40 q 147 88 125 57 q 160 106 147 88 q 192 152 172 125 q 230 208 211 179 q 263 256 249 236 q 279 279 278 276 q 259 310 276 285 q 219 369 242 335 q 174 436 196 403 q 137 492 151 469 q 122 514 122 514 q 81 538 111 531 q 31 544 51 544 q 29 561 29 544 q 32 583 29 578 q 97 578 65 581 q 167 576 128 576 z "},"y":{"ha":636,"x_min":0,"x_max":638,"o":"m 138 576 q 216 579 176 576 q 274 583 256 582 q 275 561 276 578 q 268 544 274 544 q 247 543 264 544 q 216 537 231 542 q 201 521 201 532 q 203 515 201 518 l 347 149 q 358 178 347 149 q 388 255 369 208 q 426 356 406 301 q 467 457 447 410 q 474 481 472 469 q 475 500 475 493 q 453 533 475 521 q 397 544 432 544 q 392 561 392 544 q 397 583 392 578 q 445 579 413 582 q 519 576 478 576 q 585 579 558 576 q 633 583 613 582 q 635 561 638 578 q 629 544 633 544 q 606 540 624 544 q 570 526 589 536 q 543 497 551 517 q 488 367 513 425 q 441 253 464 308 q 394 140 418 199 q 340 8 369 81 q 292 -117 315 -54 q 232 -233 268 -179 q 178 -289 210 -268 q 114 -310 147 -310 q 75 -299 94 -310 q 56 -251 56 -287 q 60 -228 56 -239 q 71 -211 65 -217 q 127 -208 103 -211 q 174 -187 151 -204 q 225 -135 197 -171 q 250 -90 236 -119 q 276 -32 264 -60 q 289 3 288 -4 q 218 184 251 100 q 151 349 185 268 q 76 517 117 431 q 42 541 67 538 q 4 544 17 544 q 1 544 1 544 q 0 563 0 544 q 1 583 0 582 q 58 579 21 582 q 138 576 96 576 z "},"z":{"ha":606,"x_min":46,"x_max":568,"o":"m 201 585 l 375 585 q 465 588 431 585 q 540 596 499 590 q 544 581 544 589 q 544 567 544 574 q 544 563 544 564 q 525 535 544 563 q 474 461 506 507 q 403 361 442 415 q 326 252 365 307 q 256 151 288 197 q 204 76 224 104 q 185 47 185 49 l 375 47 q 474 87 438 47 q 524 169 511 126 q 533 178 525 178 q 568 161 554 178 q 557 134 568 161 q 532 69 546 107 q 507 0 518 32 l 67 0 q 53 11 60 3 q 46 28 46 19 q 46 32 46 29 q 47 36 46 35 l 396 538 l 206 539 q 147 520 167 539 q 117 478 126 501 q 103 443 108 456 q 74 432 97 432 q 58 435 58 432 q 70 496 63 450 q 81 596 78 542 q 101 593 81 596 q 149 588 121 590 q 201 585 178 585 z "},"{":{"ha":551,"x_min":197,"x_max":375,"o":"m 264 -312 q 353 -515 258 -410 q 350 -547 365 -532 q 318 -549 335 -562 q 207 -279 210 -457 q 246 -92 204 -196 q 290 53 285 13 q 197 208 303 144 l 197 253 q 290 408 303 317 q 276 466 288 431 q 246 553 265 501 q 207 740 207 660 q 318 1008 211 918 q 350 1008 335 1024 q 351 975 364 992 q 264 772 257 871 q 307 653 268 718 q 356 411 375 540 q 253 231 338 289 q 356 50 338 169 q 307 -192 375 -79 q 264 -312 268 -257 z "},"|":{"ha":278,"x_min":104,"x_max":174,"o":"m 174 -512 q 117 -535 174 -524 l 113 -535 q 104 -531 104 -535 l 104 -528 q 105 -525 104 -526 q 106 -524 106 -524 l 106 972 l 107 981 q 110 982 108 982 q 113 983 111 982 q 163 993 142 993 q 174 985 174 993 l 174 -512 z "},"}":{"ha":551,"x_min":188,"x_max":356,"o":"m 289 -312 q 244 -192 285 -260 q 199 -74 210 -135 q 197 50 188 -14 q 300 231 215 169 q 197 411 215 289 q 199 535 188 475 q 244 653 210 596 q 289 772 285 721 q 200 975 294 869 q 201 1008 188 992 q 233 1008 217 1024 q 346 740 342 917 q 306 553 346 663 q 276 466 288 501 q 261 408 264 431 q 356 253 249 318 l 356 208 q 261 53 249 143 q 306 -92 267 13 q 346 -279 349 -200 q 233 -549 344 -456 q 201 -547 217 -562 q 200 -515 188 -533 q 289 -312 294 -410 z "},"~":{"ha":772,"x_min":76,"x_max":707,"o":"m 368 376 q 295 401 333 390 q 211 411 257 411 q 142 392 172 411 q 88 351 111 374 q 76 375 76 357 q 106 424 76 400 q 176 465 135 449 q 253 481 217 481 q 340 469 301 481 q 414 443 378 457 q 488 419 450 429 q 572 408 525 408 q 639 427 613 408 q 694 468 665 446 q 707 444 707 463 q 681 398 707 422 q 616 356 656 374 q 533 339 576 339 q 444 351 483 339 q 368 376 406 363 z "},"":{"ha":406,"x_min":0,"x_max":0,"o":""},"":{"ha":290,"x_min":72,"x_max":221,"o":"m 140 -303 q 95 -276 110 -303 q 81 -224 81 -250 q 92 -58 81 -196 q 126 335 104 81 q 134 347 131 343 q 147 353 138 351 q 158 348 153 351 q 167 338 164 344 q 181 168 174 256 q 194 1 189 81 q 203 -137 200 -78 q 207 -224 207 -197 q 190 -277 207 -251 q 140 -303 172 -303 m 72 507 q 93 560 72 538 q 144 583 114 583 q 198 560 175 583 q 221 507 221 538 q 198 455 221 476 q 144 433 175 433 q 93 455 114 433 q 72 507 72 476 z "},"":{"ha":604,"x_min":61,"x_max":542,"o":"m 369 640 q 374 640 371 640 q 394 640 382 640 q 407 632 407 639 l 401 594 q 513 561 468 592 q 522 546 517 557 q 526 524 526 535 q 510 473 526 488 q 475 458 493 458 q 433 478 453 458 q 396 508 414 497 q 388 514 392 511 l 318 88 q 386 79 350 79 q 480 106 443 79 q 531 147 517 132 q 537 142 532 147 q 542 129 542 138 q 533 104 542 118 q 494 58 521 85 q 428 10 468 31 q 335 -11 388 -11 q 303 -10 318 -11 l 294 -61 q 271 -60 285 -61 q 257 -51 257 -58 l 265 -3 q 157 53 203 13 q 86 148 111 93 q 61 263 61 203 q 88 390 61 332 q 160 491 115 447 q 257 560 204 535 q 361 593 310 586 l 369 640 m 282 100 l 351 532 q 319 535 339 535 q 248 508 283 535 q 190 431 213 481 q 167 308 167 381 q 199 175 167 226 q 282 100 231 124 z "},"":{"ha":646,"x_min":60,"x_max":597,"o":"m 426 863 q 481 855 463 863 q 524 831 500 847 q 533 815 528 826 q 538 792 538 803 q 521 741 538 756 q 486 726 504 726 q 447 745 464 726 q 414 778 429 764 q 390 797 399 793 q 367 800 381 800 q 311 775 332 800 q 282 710 290 750 q 274 622 274 669 q 280 539 274 578 q 292 464 286 500 l 517 464 q 522 436 532 453 q 504 415 511 419 l 300 415 q 303 369 303 390 q 280 270 303 319 q 228 184 257 221 q 182 132 199 147 q 208 141 197 139 q 229 143 218 143 q 278 133 257 143 q 319 111 299 124 q 369 89 340 99 q 443 79 397 79 q 509 101 481 79 q 556 150 538 124 q 579 189 574 176 q 589 182 581 189 q 597 167 597 175 q 593 146 597 158 q 571 103 588 129 q 528 51 554 78 q 468 7 501 25 q 394 -11 435 -11 q 297 8 336 -11 q 225 47 257 28 q 157 67 193 67 q 124 53 136 67 q 103 21 113 39 q 82 -8 94 3 q 67 2 74 -8 q 60 22 60 13 q 72 62 60 42 q 101 100 85 82 q 128 128 118 118 q 178 210 156 156 q 201 314 201 264 q 197 353 201 324 q 188 415 193 382 l 75 415 q 76 431 71 419 q 91 453 82 443 q 106 464 100 464 l 179 464 q 172 510 175 489 q 169 542 169 531 q 205 707 167 635 q 303 821 243 779 q 426 863 363 863 z "},"":{"ha":778,"x_min":106,"x_max":675,"o":"m 540 617 l 619 692 q 648 678 628 700 q 675 632 668 656 l 594 556 q 633 417 633 493 q 589 269 633 333 l 663 192 q 649 163 671 183 q 603 136 626 143 l 532 210 q 465 175 501 188 q 388 163 428 163 q 305 177 344 163 q 233 217 265 192 l 161 149 q 133 163 153 140 q 106 208 113 185 l 179 278 q 139 417 139 339 q 153 501 139 461 q 190 574 167 542 l 119 650 q 133 678 111 658 q 179 706 156 699 l 250 631 q 388 672 308 672 q 471 658 432 672 q 540 617 510 643 m 399 206 q 472 233 440 206 q 519 304 503 260 q 536 399 536 349 q 514 513 536 461 q 456 597 492 565 q 376 628 419 628 q 303 600 335 628 q 255 528 272 572 q 238 433 238 485 q 260 319 238 371 q 319 237 282 268 q 399 206 356 206 z "},"":{"ha":911,"x_min":35,"x_max":875,"o":"m 303 238 l 408 238 l 408 296 l 275 296 q 276 313 271 300 q 289 335 281 325 q 303 346 297 346 l 407 346 q 399 371 404 360 q 347 465 369 425 q 303 542 324 506 q 259 619 282 578 q 206 714 236 660 q 164 771 183 751 q 117 807 144 790 q 76 824 99 818 q 40 829 53 829 q 35 846 35 829 q 40 868 35 863 q 125 864 90 867 q 210 861 160 861 q 301 864 260 861 q 383 868 343 867 q 386 846 386 863 q 381 829 386 829 q 351 825 371 829 q 316 812 332 821 q 300 785 300 803 q 315 744 300 769 l 504 422 q 558 520 529 467 q 612 625 586 574 q 657 717 638 676 q 683 774 676 757 q 686 782 685 776 q 688 793 688 788 q 665 814 688 800 q 586 828 643 828 q 583 846 583 828 q 583 867 582 864 q 653 863 621 865 q 722 860 685 860 q 781 861 758 860 q 825 864 804 863 q 872 867 846 865 q 874 844 875 861 q 869 828 872 828 q 840 826 864 828 q 790 813 817 824 q 749 774 764 801 q 702 690 729 740 q 644 583 675 639 q 585 472 614 526 q 535 378 557 418 q 529 361 531 369 q 528 346 528 353 l 657 346 q 662 317 672 335 q 644 296 651 300 l 528 296 q 528 266 528 281 q 528 238 528 251 l 657 238 q 662 209 672 226 q 644 188 651 192 l 526 188 q 526 165 526 174 q 526 157 526 157 q 527 100 526 126 q 533 57 528 74 q 556 44 536 50 q 597 37 575 39 q 626 35 618 35 q 631 15 631 29 q 626 -4 632 1 q 547 1 585 -1 q 468 3 508 3 q 389 1 429 3 q 307 -4 349 -1 q 302 15 301 1 q 307 35 303 29 q 338 37 315 35 q 380 44 360 39 q 401 57 400 50 q 408 100 407 74 q 408 157 408 126 l 408 188 l 275 188 q 276 204 271 192 q 289 227 281 217 q 303 238 297 238 z "},"":{"ha":278,"x_min":99,"x_max":172,"o":"m 101 142 q 108 151 100 149 q 161 158 133 158 q 169 157 168 158 q 172 153 172 154 l 172 -512 q 143 -526 172 -519 q 121 -531 129 -529 q 108 -533 113 -533 q 106 -533 107 -533 q 103 -532 104 -532 q 101 -531 101 -532 q 101 -531 101 -531 l 101 142 m 172 346 q 143 332 172 339 q 121 327 129 329 q 108 325 113 325 q 106 326 107 325 q 103 326 104 326 q 101 328 101 326 q 101 329 101 329 l 101 979 q 108 990 99 988 q 161 997 133 997 q 169 994 167 997 q 172 990 172 992 l 172 346 z "},"":{"ha":597,"x_min":51,"x_max":549,"o":"m 413 886 q 468 875 442 886 q 475 856 474 865 q 476 839 476 846 q 460 808 476 825 q 428 790 444 790 q 399 796 410 790 q 378 807 389 801 q 360 815 369 811 q 335 818 350 818 q 288 810 314 818 q 244 787 263 803 q 225 744 225 771 q 253 672 225 714 q 319 590 281 631 q 390 519 358 549 q 463 445 426 488 q 524 352 499 403 q 549 243 549 301 q 531 169 549 210 q 488 90 514 129 q 433 17 461 50 q 383 -35 404 -15 q 301 -86 350 -67 q 188 -106 251 -106 q 132 -94 158 -106 q 125 -74 126 -83 q 124 -60 124 -65 q 140 -28 124 -44 q 172 -11 156 -11 q 201 -17 190 -11 q 221 -28 211 -22 q 239 -35 229 -32 q 264 -37 249 -37 q 311 -30 285 -37 q 356 -6 338 -22 q 375 35 375 10 q 347 108 375 67 q 279 191 318 150 q 208 261 240 232 q 137 336 174 294 q 76 428 100 378 q 51 538 51 479 q 69 611 51 571 q 113 691 86 651 q 167 763 139 731 q 217 815 196 796 q 300 867 250 847 q 413 886 350 886 m 435 68 q 463 121 451 96 q 475 183 475 146 q 452 289 475 240 q 394 379 429 338 q 322 454 360 421 q 253 520 290 485 q 189 597 215 556 q 163 688 163 639 q 164 708 163 699 q 136 658 147 682 q 125 597 125 633 q 147 492 125 542 q 205 401 169 443 q 276 325 240 360 q 347 260 310 296 q 410 182 383 224 q 436 92 436 140 q 435 68 436 79 z "},"":{"ha":511,"x_min":68,"x_max":444,"o":"m 133 764 q 177 744 158 764 q 196 700 196 725 q 176 657 196 675 q 132 639 157 639 q 88 658 107 639 q 68 701 68 676 q 88 745 68 726 q 133 764 108 764 m 382 764 q 426 744 407 764 q 444 700 444 725 q 425 657 444 675 q 381 639 406 639 q 336 658 356 639 q 317 701 317 676 q 337 745 317 726 q 382 764 357 764 z "},"":{"ha":893,"x_min":76,"x_max":818,"o":"m 76 464 q 105 608 76 540 q 184 726 133 675 q 302 806 235 776 q 446 835 369 835 q 590 806 522 835 q 708 726 657 776 q 789 608 760 675 q 818 464 818 540 q 789 320 818 388 q 708 202 760 253 q 590 122 657 151 q 446 93 522 93 q 302 122 369 93 q 184 202 235 151 q 105 320 133 253 q 76 464 76 388 m 121 464 q 165 299 121 374 q 283 181 208 225 q 447 136 357 136 q 613 181 538 136 q 732 299 688 225 q 776 464 776 374 q 732 628 776 554 q 613 747 688 703 q 447 792 538 792 q 283 747 357 792 q 165 628 208 703 q 121 464 121 554 m 618 375 q 613 353 618 374 q 603 313 608 333 q 592 290 597 293 q 447 264 529 264 q 349 290 393 264 q 280 359 306 315 q 254 456 254 403 q 278 556 254 510 q 346 628 303 601 q 444 656 389 656 q 519 649 475 656 q 597 629 563 643 q 602 610 597 629 q 613 570 607 590 q 618 547 618 550 q 611 538 618 542 q 597 535 604 535 q 588 538 593 535 q 574 564 586 547 q 536 594 563 581 q 461 608 510 608 q 368 567 406 608 q 331 468 331 525 q 353 378 331 414 q 410 326 376 343 q 474 308 443 308 q 531 315 504 308 q 571 333 557 321 q 587 361 583 344 q 592 378 590 378 q 606 378 594 378 q 618 375 617 378 z "},"":{"ha":467,"x_min":64,"x_max":422,"o":"m 256 754 q 327 717 296 754 q 358 626 358 681 l 358 433 q 364 401 358 414 q 386 388 369 388 q 408 393 399 388 q 418 400 417 399 q 422 393 422 400 q 417 376 422 385 q 385 353 408 368 q 346 339 361 339 q 309 358 325 339 q 289 400 293 378 q 262 379 283 394 q 215 351 240 364 q 174 338 190 338 q 95 369 126 338 q 64 446 64 400 q 80 494 64 474 q 111 521 96 515 q 171 542 138 531 q 233 565 204 554 q 275 581 261 575 q 284 588 282 583 q 286 604 286 592 l 286 629 q 265 688 286 661 q 206 714 244 714 q 170 701 182 714 q 153 661 158 689 q 110 615 144 615 q 86 628 94 615 q 78 656 78 642 q 80 667 78 658 q 85 678 82 675 q 126 710 100 692 q 187 741 153 728 q 256 754 221 754 m 204 388 q 240 397 221 388 q 272 418 258 407 q 286 433 286 429 l 286 550 q 240 536 267 544 q 200 522 213 528 q 158 497 175 513 q 142 454 142 481 q 160 408 142 428 q 204 388 178 388 z "},"":{"ha":653,"x_min":36,"x_max":601,"o":"m 36 333 q 38 347 36 344 q 43 358 39 349 q 195 461 132 413 q 292 542 258 510 q 326 574 326 574 q 349 564 343 568 q 357 557 356 560 q 331 518 354 546 q 276 456 308 490 q 212 388 244 421 q 156 335 179 356 q 212 281 179 314 q 276 214 244 249 q 331 151 308 179 q 357 113 354 124 q 349 106 356 110 q 326 96 343 101 q 292 128 326 97 q 195 210 258 160 q 43 313 132 260 q 39 322 42 315 q 36 333 36 328 m 281 333 q 282 347 281 344 q 288 358 283 349 q 440 461 376 413 q 537 542 503 510 q 571 574 571 574 q 594 564 588 568 q 601 557 600 560 q 576 518 599 546 q 521 456 553 490 q 456 388 489 421 q 400 335 424 356 q 456 281 424 314 q 521 214 489 249 q 576 151 553 179 q 601 113 599 124 q 594 106 600 110 q 571 96 588 101 q 537 128 571 97 q 440 210 503 160 q 288 313 376 260 q 283 322 286 315 q 281 333 281 328 z "},"":{"ha":796,"x_min":61,"x_max":700,"o":"m 700 569 l 700 229 q 678 218 699 228 q 636 208 657 208 q 628 210 636 208 q 618 218 621 213 l 618 493 l 69 493 q 65 495 69 493 q 61 507 61 497 q 63 522 61 507 q 70 553 65 538 q 82 569 75 569 l 700 569 z "},"":{"ha":0,"x_min":0,"x_max":0,"o":""},"":{"ha":893,"x_min":76,"x_max":818,"o":"m 76 551 q 105 695 76 628 q 184 813 133 763 q 302 893 235 864 q 446 922 369 922 q 590 893 522 922 q 708 813 657 864 q 789 695 760 763 q 818 551 818 628 q 789 408 818 475 q 708 290 760 340 q 590 210 657 239 q 446 181 522 181 q 302 210 369 181 q 184 290 235 239 q 105 408 133 340 q 76 551 76 475 m 121 551 q 165 387 121 461 q 283 268 208 313 q 447 224 357 224 q 613 268 538 224 q 732 387 688 313 q 776 551 776 461 q 732 716 776 642 q 613 835 688 790 q 447 879 538 879 q 283 835 357 879 q 165 716 208 790 q 121 551 121 642 m 438 750 q 492 739 464 750 q 541 706 521 728 q 561 650 561 683 q 538 593 561 619 q 486 556 515 567 q 533 487 510 518 q 583 421 556 456 q 611 399 597 406 q 649 389 625 392 q 649 382 650 388 q 647 372 649 376 q 647 369 647 369 q 591 372 618 369 q 556 376 564 374 q 540 383 550 379 q 518 401 529 388 q 498 429 514 407 q 461 481 482 451 q 422 539 440 511 q 406 546 419 546 l 385 546 l 385 440 q 385 417 385 428 q 388 399 386 406 q 406 391 389 393 q 428 389 422 389 q 431 380 431 388 q 428 369 431 372 q 390 372 410 371 q 354 372 371 372 q 317 372 338 372 q 279 369 297 371 q 278 380 278 372 q 279 389 278 388 q 301 391 285 389 q 318 399 317 393 q 321 416 321 406 q 321 440 321 426 l 321 681 q 321 704 321 693 q 318 722 321 715 q 301 730 317 728 q 279 732 285 732 q 278 742 278 735 q 279 751 278 750 q 319 749 297 750 q 357 749 340 749 q 393 749 374 749 q 438 750 413 750 m 496 636 q 481 701 496 675 q 417 726 465 726 q 401 726 411 726 q 388 721 390 725 q 385 703 386 715 q 385 678 385 692 l 385 571 l 410 571 q 471 587 446 571 q 496 636 496 603 z "},"":{"ha":458,"x_min":68,"x_max":393,"o":"m 379 761 q 296 761 349 761 q 185 761 243 761 q 75 761 126 761 q 68 776 68 764 q 73 801 68 789 q 83 818 78 814 q 189 818 143 818 q 281 818 235 818 q 386 818 328 818 q 392 792 393 813 q 379 761 390 772 z "},"":{"ha":371,"x_min":51,"x_max":318,"o":"m 51 726 q 91 821 51 782 q 186 860 131 860 q 280 821 242 860 q 318 726 318 782 q 280 632 318 671 q 186 593 242 593 q 91 632 131 593 q 51 726 51 671 m 101 726 q 126 667 101 692 q 186 643 151 643 q 244 667 221 643 q 268 726 268 692 q 244 785 268 761 q 186 810 221 810 q 126 785 151 810 q 101 726 101 761 z "},"":{"ha":743,"x_min":46,"x_max":697,"o":"m 67 490 l 332 490 l 332 761 q 366 772 349 768 q 390 776 383 776 q 405 772 401 776 q 408 768 408 768 l 408 490 l 685 490 q 697 474 697 490 q 690 440 697 457 q 675 414 683 422 l 408 414 l 408 140 q 378 128 396 131 q 350 125 361 125 q 332 138 332 125 l 332 414 l 54 414 q 50 416 54 414 q 46 428 46 418 q 51 457 46 432 q 67 490 57 482 m 67 85 l 685 85 q 697 68 697 85 q 690 34 697 51 q 675 8 683 17 l 54 8 q 50 10 54 8 q 46 22 46 13 q 51 51 46 26 q 67 85 57 76 z "},"":{"ha":485,"x_min":51,"x_max":435,"o":"m 435 489 q 412 419 424 460 q 385 344 400 378 l 69 344 q 58 351 64 344 q 53 361 51 357 q 147 458 93 406 q 243 567 201 511 q 290 644 271 606 q 308 719 308 682 q 285 790 308 763 q 219 817 263 817 q 147 794 174 817 q 101 750 121 772 q 87 757 97 746 q 78 774 76 768 q 144 846 101 814 q 235 878 188 878 q 351 838 306 878 q 396 732 396 797 q 381 665 396 699 q 335 596 365 632 q 260 517 308 564 q 164 419 213 469 l 328 419 q 372 435 356 419 q 396 467 388 450 q 408 492 404 485 q 415 496 410 494 q 425 494 418 496 q 435 489 432 493 z "},"":{"ha":431,"x_min":53,"x_max":381,"o":"m 219 876 q 300 851 263 876 q 338 772 338 825 q 310 699 338 728 q 260 660 282 671 q 306 644 278 660 q 358 599 335 629 q 381 524 381 568 q 350 422 381 464 q 269 359 319 381 q 160 338 219 338 q 109 343 138 338 q 69 358 81 349 q 61 367 69 358 q 53 390 53 376 q 65 423 53 411 q 94 435 78 435 q 122 422 113 435 q 144 396 132 408 q 197 376 164 376 q 267 406 240 376 q 294 499 294 436 q 265 582 294 549 q 197 615 235 615 q 164 611 179 615 q 143 606 149 607 q 136 619 139 610 q 136 633 133 629 q 224 674 186 644 q 261 754 261 704 q 240 802 261 781 q 193 824 219 824 q 148 813 168 824 q 115 790 128 803 q 97 774 101 778 q 88 785 92 776 q 86 794 85 793 q 113 828 96 810 q 157 862 131 847 q 219 876 183 876 z "},"":{"ha":351,"x_min":68,"x_max":285,"o":"m 236 928 q 278 910 272 928 q 285 888 285 893 q 265 853 285 875 q 217 806 246 831 q 158 760 188 782 q 106 724 128 738 q 79 710 83 710 q 70 716 72 710 q 68 728 68 722 q 82 753 68 731 q 117 806 96 775 q 160 866 139 836 q 199 917 182 896 q 211 923 200 918 q 236 928 222 928 z "},"":{"ha":733,"x_min":106,"x_max":697,"o":"m 196 303 q 203 200 196 250 q 225 118 210 150 q 264 86 240 86 q 347 122 310 86 q 413 208 385 157 q 457 308 440 260 l 457 404 q 457 426 457 408 q 458 494 457 453 q 457 565 458 536 q 470 583 463 574 q 490 593 478 593 q 515 584 497 593 q 547 564 532 575 q 561 543 561 553 q 553 474 561 525 q 531 333 546 424 l 517 264 q 540 140 517 192 q 611 89 564 89 q 656 105 638 89 q 681 131 674 121 q 693 118 686 131 q 697 103 697 110 q 647 26 683 58 q 571 -6 611 -6 q 530 20 546 -6 q 504 81 514 46 q 490 147 494 115 q 483 193 485 179 q 432 99 464 146 q 360 19 400 51 q 272 -12 319 -12 q 236 5 251 -12 q 211 47 221 22 q 196 97 201 72 q 188 138 190 122 q 188 118 188 132 q 188 85 188 104 q 188 -19 188 43 q 194 -151 189 -82 q 210 -281 199 -219 q 197 -299 204 -289 q 178 -308 190 -308 q 153 -299 171 -308 q 121 -278 136 -290 q 106 -258 106 -267 q 107 -208 106 -251 q 111 -100 108 -164 q 117 35 114 -36 q 125 169 121 106 q 135 276 129 233 q 132 341 135 300 q 129 404 129 382 q 129 426 129 408 q 130 494 129 453 q 129 565 131 536 q 142 583 135 574 q 161 593 149 593 q 185 584 168 593 q 218 564 203 575 q 233 543 233 553 q 228 474 233 525 q 203 333 222 424 q 199 315 201 328 q 196 303 196 303 z "},"":{"ha":656,"x_min":46,"x_max":588,"o":"m 490 406 l 490 157 q 490 149 490 153 q 490 140 490 144 q 491 92 490 114 q 496 57 492 71 q 517 44 499 50 q 556 34 535 38 q 585 31 576 31 q 588 14 588 31 q 585 -6 588 -3 q 517 -2 542 -4 q 469 1 493 0 q 403 3 446 3 q 305 0 356 3 q 214 -6 254 -3 q 212 14 213 1 q 217 31 211 26 q 242 34 222 31 q 280 44 261 38 q 300 57 299 50 q 306 100 306 74 q 307 157 307 126 l 307 389 q 193 414 242 389 q 112 477 144 439 q 63 558 79 515 q 46 636 46 601 q 81 766 46 710 q 169 853 115 822 q 278 885 222 885 q 322 884 308 885 q 344 882 335 883 q 366 880 353 881 q 410 879 379 879 q 526 883 478 879 q 574 886 574 886 q 578 865 579 881 q 572 846 578 849 q 528 839 557 846 q 494 819 500 832 q 492 799 493 813 q 492 732 492 785 l 492 460 q 512 464 496 460 q 542 473 528 468 q 557 478 557 478 q 571 469 571 478 q 554 441 569 460 q 532 419 539 422 q 490 406 506 407 m 436 451 l 436 822 q 420 828 432 826 q 397 829 408 829 q 377 828 388 829 q 360 821 367 828 l 360 444 q 381 445 364 444 q 416 448 399 446 q 436 451 433 450 m 435 396 q 399 393 421 394 q 360 390 376 392 l 360 157 q 360 100 360 126 q 364 57 361 74 q 377 49 365 50 q 396 49 389 49 q 397 49 397 49 q 418 50 404 49 q 433 57 432 51 q 436 90 436 71 q 436 132 436 110 q 436 145 436 139 q 436 157 436 151 l 435 396 z "},"":{"ha":406,"x_min":125,"x_max":282,"o":"m 125 358 q 147 413 125 390 q 203 436 169 436 q 258 413 235 436 q 282 358 282 390 q 258 302 282 326 q 203 278 235 278 q 147 302 169 278 q 125 358 125 326 z "},"":{"ha":313,"x_min":67,"x_max":244,"o":"m 151 -36 l 185 -36 q 228 -56 211 -36 q 244 -103 244 -76 q 208 -178 244 -150 q 118 -206 171 -206 q 71 -194 88 -206 q 68 -185 69 -189 q 67 -175 67 -181 q 74 -162 67 -168 q 86 -156 81 -156 q 109 -165 99 -156 q 136 -174 119 -174 q 179 -160 164 -174 q 194 -129 194 -147 q 181 -94 194 -106 q 153 -83 167 -83 q 135 -85 142 -83 q 118 -92 129 -87 q 110 -85 117 -92 q 104 -75 103 -79 q 126 -40 114 -60 q 147 -6 139 -19 l 176 -6 l 151 -36 z "},"":{"ha":396,"x_min":53,"x_max":351,"o":"m 167 703 q 160 761 167 750 q 142 772 153 772 q 108 765 129 772 q 65 750 86 757 q 56 760 60 753 q 53 774 53 768 q 57 783 53 782 q 212 856 165 828 q 261 885 258 885 l 263 885 q 274 870 269 885 q 279 853 278 856 q 273 818 279 853 q 267 743 267 783 l 267 461 q 269 427 267 440 q 278 397 271 414 q 295 388 281 393 q 326 381 310 383 q 349 378 343 378 q 351 363 351 378 q 349 343 351 347 q 284 346 310 344 q 218 347 258 347 q 151 346 179 347 q 83 343 124 344 q 78 361 78 346 q 83 376 78 376 q 109 379 92 376 q 142 387 126 382 q 158 396 157 392 q 165 429 164 410 q 167 458 167 449 l 167 703 z "},"":{"ha":525,"x_min":51,"x_max":475,"o":"m 265 751 q 372 724 325 751 q 447 650 419 696 q 475 547 475 604 q 447 443 475 492 q 372 365 419 394 q 265 335 325 335 q 158 363 207 335 q 81 439 110 392 q 51 542 51 486 q 80 647 51 600 q 157 723 108 694 q 265 751 206 751 m 254 719 q 191 694 215 719 q 156 633 167 669 q 144 557 144 596 q 159 469 144 513 q 203 397 174 425 q 276 368 232 368 q 337 393 314 368 q 370 456 360 418 q 381 531 381 493 q 367 618 381 575 q 326 690 354 661 q 254 719 299 719 z "},"":{"ha":653,"x_min":56,"x_max":619,"o":"m 376 333 q 374 322 376 328 q 369 313 372 315 q 217 210 281 260 q 121 128 154 160 q 86 96 88 97 q 64 106 69 101 q 56 113 58 110 q 81 151 58 124 q 136 214 104 179 q 201 281 168 249 q 257 335 233 314 q 201 388 233 356 q 136 456 168 421 q 81 518 104 490 q 56 557 58 546 q 64 564 58 560 q 86 574 69 568 q 121 542 88 574 q 217 461 154 510 q 369 358 281 413 q 375 347 374 349 q 376 333 376 344 m 619 333 q 617 322 619 328 q 613 313 615 315 q 460 210 524 260 q 364 128 397 160 q 329 96 331 97 q 308 106 313 101 q 300 113 303 110 q 325 151 303 124 q 379 214 347 179 q 444 281 411 249 q 500 335 476 314 q 444 388 476 356 q 379 456 411 421 q 325 518 347 490 q 300 557 303 546 q 308 564 303 560 q 329 574 313 568 q 364 542 331 574 q 460 461 397 510 q 613 358 524 413 q 618 347 617 349 q 619 333 619 344 z "},"":{"ha":947,"x_min":46,"x_max":899,"o":"m 822 551 q 832 547 829 551 q 835 536 835 542 l 835 199 l 882 199 q 895 175 892 190 q 890 144 899 160 l 839 144 l 839 0 q 825 -3 838 -1 q 797 -4 813 -4 q 772 -3 783 -4 q 754 3 760 -1 l 754 144 l 531 144 q 522 150 525 146 q 517 165 518 154 l 794 536 q 806 547 799 542 q 822 551 814 551 m 236 724 l 236 456 q 246 389 236 418 q 262 381 247 385 q 292 374 276 376 q 314 371 308 371 q 318 354 319 365 q 315 340 317 343 q 273 342 289 342 q 241 344 257 343 q 199 344 225 344 q 137 343 160 344 q 74 340 114 342 q 69 355 68 343 q 74 371 69 367 q 113 377 86 371 q 142 390 139 383 q 149 424 147 404 q 151 453 151 443 l 151 706 q 146 739 151 725 q 129 753 140 753 q 101 746 118 753 q 64 732 85 739 q 53 743 58 735 q 46 757 49 751 q 104 792 65 769 q 229 865 143 814 q 247 843 247 860 q 244 824 247 843 q 239 778 242 806 q 236 724 236 750 m 253 -17 q 240 -10 243 -14 q 238 -6 238 -6 l 711 863 q 724 871 713 865 q 753 874 735 876 q 762 867 760 872 q 764 860 764 863 l 296 3 q 281 -11 293 -3 q 253 -17 269 -19 m 754 204 l 754 414 q 679 313 713 361 q 600 204 646 264 l 754 204 z "},"":{"ha":1017,"x_min":50,"x_max":971,"o":"m 772 532 q 888 492 843 532 q 933 386 933 451 q 917 319 933 353 q 871 250 901 286 q 797 171 844 218 q 701 74 750 124 l 864 74 q 908 89 892 74 q 933 122 925 104 q 946 146 942 139 q 953 150 947 149 q 962 149 956 150 q 971 143 968 147 q 948 73 960 114 q 921 -1 936 32 l 607 -1 q 595 5 601 -1 q 590 15 589 11 q 679 106 629 57 q 769 206 729 154 q 824 290 803 247 q 844 374 844 333 q 822 444 844 417 q 756 471 799 471 q 683 449 710 471 q 638 404 657 426 q 623 411 633 400 q 614 428 613 422 q 681 500 638 468 q 772 532 725 532 m 240 724 l 240 456 q 250 389 240 418 q 266 381 251 385 q 297 374 281 376 q 318 371 313 371 q 322 354 324 365 q 318 340 319 343 q 276 342 292 342 q 245 344 261 343 q 203 344 229 344 q 141 343 164 344 q 78 340 118 342 q 73 355 72 343 q 78 371 74 367 q 116 377 90 371 q 144 390 142 383 q 153 424 150 404 q 156 453 156 443 l 156 706 q 150 739 156 725 q 133 753 144 753 q 106 746 122 753 q 68 732 89 739 q 58 743 63 735 q 50 757 53 751 q 108 792 69 769 q 233 865 147 814 q 251 843 251 860 q 249 824 251 843 q 243 778 246 806 q 240 724 240 750 m 765 860 l 297 3 q 283 -11 294 -3 q 254 -17 271 -19 q 242 -10 244 -14 q 239 -6 239 -6 l 713 863 q 725 871 714 865 q 754 874 736 876 q 763 867 761 872 q 765 860 765 863 z "},"":{"ha":949,"x_min":47,"x_max":900,"o":"m 824 551 q 833 547 831 551 q 836 536 836 542 l 836 199 l 883 199 q 897 175 893 190 q 892 144 900 160 l 839 144 l 839 0 q 826 -3 838 -1 q 799 -4 814 -4 q 773 -3 785 -4 q 756 3 761 -1 l 756 144 l 532 144 q 523 150 526 146 q 518 165 519 154 l 796 536 q 808 547 800 542 q 824 551 815 551 m 214 876 q 294 851 257 876 q 332 772 332 825 q 304 699 332 728 q 254 660 276 671 q 301 644 272 660 q 353 599 329 629 q 376 524 376 568 q 345 422 376 464 q 264 359 314 381 q 154 338 214 338 q 103 343 132 338 q 64 358 75 349 q 56 367 64 358 q 47 390 47 376 q 60 423 47 411 q 89 435 72 435 q 117 422 107 435 q 139 396 126 408 q 192 376 158 376 q 262 406 235 376 q 289 499 289 436 q 259 582 289 549 q 192 615 229 615 q 158 611 174 615 q 138 606 143 607 q 131 621 133 611 q 131 633 128 628 q 219 674 181 644 q 257 754 257 704 q 235 802 257 781 q 188 824 214 824 q 142 813 163 824 q 109 790 122 803 q 92 774 96 778 q 83 785 86 776 q 81 794 79 793 q 108 828 90 810 q 151 862 125 847 q 214 876 178 876 m 772 860 l 304 3 q 290 -11 301 -3 q 261 -17 278 -19 q 248 -10 251 -14 q 244 -6 244 -6 l 719 863 q 732 871 721 865 q 761 874 743 876 q 770 867 768 872 q 772 860 772 863 m 756 204 l 756 414 q 681 313 714 361 q 601 204 647 264 l 756 204 z "},"":{"ha":467,"x_min":56,"x_max":400,"o":"m 346 338 q 354 278 351 315 q 357 214 357 242 q 339 133 357 164 q 294 82 321 101 q 242 46 267 63 q 158 -14 192 15 q 124 -92 124 -43 q 154 -174 124 -144 q 224 -203 185 -203 q 278 -196 260 -203 q 310 -182 297 -189 q 340 -175 324 -175 q 378 -192 356 -175 q 400 -243 400 -210 q 388 -293 400 -275 q 322 -303 368 -303 q 244 -286 289 -303 q 156 -237 199 -269 q 84 -158 113 -204 q 56 -51 56 -111 q 86 65 56 18 q 193 156 117 113 q 234 184 211 167 q 276 217 257 201 q 299 240 294 233 q 307 275 306 254 q 307 315 308 296 q 307 326 307 321 q 307 335 307 331 q 315 347 311 343 q 328 353 318 351 q 346 338 340 347 m 390 507 q 368 455 390 476 q 315 433 346 433 q 263 455 285 433 q 242 507 242 476 q 263 560 242 538 q 315 583 285 583 q 368 560 346 583 q 390 507 390 538 z "},"":{"ha":850,"x_min":-19,"x_max":860,"o":"m 482 1000 q 479 992 482 997 q 474 988 476 988 q 440 997 467 988 q 378 1023 414 1007 q 309 1058 343 1039 q 253 1095 275 1076 q 231 1128 231 1114 q 242 1154 231 1140 q 293 1168 254 1168 q 318 1164 310 1168 q 363 1126 336 1151 q 417 1072 390 1100 q 463 1024 444 1044 q 482 1000 482 1004 m 129 189 q 142 223 129 189 q 178 315 156 257 q 228 445 200 374 q 286 592 257 517 q 342 738 315 668 q 390 860 369 807 q 415 885 396 871 q 443 899 433 899 q 447 898 446 899 q 450 896 447 897 l 726 171 q 761 82 757 90 q 788 56 768 67 q 828 40 808 44 q 854 35 849 35 q 858 13 860 28 q 856 -4 857 -1 q 783 1 815 -1 q 707 3 751 3 q 628 1 660 3 q 550 -4 597 -1 q 545 15 544 1 q 551 35 546 29 q 590 40 564 35 q 626 53 617 44 q 632 72 632 58 q 623 115 632 85 q 600 182 614 144 q 572 255 586 219 q 549 313 558 290 q 540 336 540 336 q 538 339 540 336 q 532 342 535 342 q 481 343 511 343 q 424 343 450 343 q 410 343 417 343 q 397 343 403 343 q 326 342 356 343 q 251 339 297 342 q 247 337 250 339 q 244 335 244 335 q 234 307 244 335 q 209 241 224 279 q 183 169 194 203 q 167 111 171 135 q 164 74 164 88 q 185 49 164 58 q 230 38 207 40 q 258 35 253 35 q 263 17 261 32 q 261 -4 264 3 q 216 -1 235 -3 q 178 1 197 0 q 129 3 160 3 q 78 1 99 3 q 36 -1 57 0 q -17 -4 15 -3 q -19 13 -19 -1 q -17 35 -19 28 q 26 41 -4 35 q 65 61 56 47 q 101 120 86 88 q 129 189 115 153 m 394 735 l 271 404 q 272 401 271 404 q 274 399 272 399 q 337 397 300 397 q 396 396 374 396 q 453 397 428 396 q 510 400 479 399 q 513 403 513 400 q 514 407 514 407 l 394 735 z "},"":{"ha":850,"x_min":-19,"x_max":860,"o":"m 364 1000 q 383 1024 364 1004 q 428 1072 401 1044 q 483 1126 456 1100 q 528 1164 510 1151 q 553 1168 536 1168 q 604 1154 593 1168 q 615 1128 615 1140 q 593 1095 615 1114 q 537 1058 571 1076 q 467 1023 503 1039 q 406 997 432 1007 q 372 988 379 988 q 367 992 369 988 q 364 1000 364 997 m 129 189 q 142 223 129 189 q 178 315 156 257 q 228 445 200 374 q 286 592 257 517 q 342 738 315 668 q 390 860 369 807 q 415 885 396 871 q 443 899 433 899 q 447 898 446 899 q 450 896 447 897 l 726 171 q 761 82 757 90 q 788 56 768 67 q 828 40 808 44 q 854 35 849 35 q 858 13 860 28 q 856 -4 857 -1 q 783 1 815 -1 q 707 3 751 3 q 628 1 660 3 q 550 -4 597 -1 q 545 15 544 1 q 551 35 546 29 q 590 40 564 35 q 626 53 617 44 q 632 72 632 58 q 623 115 632 85 q 600 182 614 144 q 572 255 586 219 q 549 313 558 290 q 540 336 540 336 q 538 339 540 336 q 532 342 535 342 q 481 343 511 343 q 424 343 450 343 q 410 343 417 343 q 397 343 403 343 q 326 342 356 343 q 251 339 297 342 q 247 337 250 339 q 244 335 244 335 q 234 307 244 335 q 209 241 224 279 q 183 169 194 203 q 167 111 171 135 q 164 74 164 88 q 185 49 164 58 q 230 38 207 40 q 258 35 253 35 q 263 17 261 32 q 261 -4 264 3 q 216 -1 235 -3 q 178 1 197 0 q 129 3 160 3 q 78 1 99 3 q 36 -1 57 0 q -17 -4 15 -3 q -19 13 -19 -1 q -17 35 -19 28 q 26 41 -4 35 q 65 61 56 47 q 101 120 86 88 q 129 189 115 153 m 394 735 l 271 404 q 272 401 271 404 q 274 399 272 399 q 337 397 300 397 q 396 396 374 396 q 453 397 428 396 q 510 400 479 399 q 513 403 513 400 q 514 407 514 407 l 394 735 z "},"":{"ha":850,"x_min":-19,"x_max":860,"o":"m 440 1165 q 449 1162 444 1165 q 457 1154 453 1158 q 504 1104 485 1125 q 544 1063 524 1083 q 594 1010 565 1042 q 591 995 594 1004 q 582 986 588 986 q 551 1006 574 992 q 502 1035 528 1019 q 458 1061 476 1050 q 440 1072 440 1072 q 424 1062 440 1072 q 383 1037 407 1051 q 335 1008 358 1022 q 299 986 313 994 q 289 995 293 986 q 285 1010 285 1004 q 335 1061 314 1040 q 376 1103 356 1082 q 424 1154 396 1124 q 432 1162 428 1158 q 440 1165 436 1165 m 129 189 q 142 223 129 189 q 178 315 156 257 q 228 445 200 374 q 286 592 257 517 q 342 738 315 668 q 390 860 369 807 q 415 885 396 871 q 443 899 433 899 q 447 898 446 899 q 450 896 447 897 l 726 171 q 761 82 757 90 q 788 56 768 67 q 828 40 808 44 q 854 35 849 35 q 858 13 860 28 q 856 -4 857 -1 q 783 1 815 -1 q 707 3 751 3 q 628 1 660 3 q 550 -4 597 -1 q 545 15 544 1 q 551 35 546 29 q 590 40 564 35 q 626 53 617 44 q 632 72 632 58 q 623 115 632 85 q 600 182 614 144 q 572 255 586 219 q 549 313 558 290 q 540 336 540 336 q 538 339 540 336 q 532 342 535 342 q 481 343 511 343 q 424 343 450 343 q 410 343 417 343 q 397 343 403 343 q 326 342 356 343 q 251 339 297 342 q 247 337 250 339 q 244 335 244 335 q 234 307 244 335 q 209 241 224 279 q 183 169 194 203 q 167 111 171 135 q 164 74 164 88 q 185 49 164 58 q 230 38 207 40 q 258 35 253 35 q 263 17 261 32 q 261 -4 264 3 q 216 -1 235 -3 q 178 1 197 0 q 129 3 160 3 q 78 1 99 3 q 36 -1 57 0 q -17 -4 15 -3 q -19 13 -19 -1 q -17 35 -19 28 q 26 41 -4 35 q 65 61 56 47 q 101 120 86 88 q 129 189 115 153 m 394 735 l 271 404 q 272 401 271 404 q 274 399 272 399 q 337 397 300 397 q 396 396 374 396 q 453 397 428 396 q 510 400 479 399 q 513 403 513 400 q 514 407 514 407 l 394 735 z "},"":{"ha":850,"x_min":-19,"x_max":860,"o":"m 367 1100 q 415 1091 394 1100 q 457 1071 436 1082 q 502 1049 479 1058 q 540 1039 525 1039 q 585 1050 568 1039 q 613 1074 603 1061 q 628 1089 624 1086 q 634 1084 632 1089 q 636 1075 636 1079 q 630 1050 636 1063 q 617 1028 624 1038 q 575 992 599 1006 q 524 978 551 978 q 475 987 496 978 q 433 1007 454 996 q 391 1030 411 1019 q 350 1040 371 1040 q 306 1028 324 1040 q 278 1003 288 1017 q 263 988 268 990 q 256 993 258 988 q 254 1003 254 999 q 260 1028 254 1015 q 274 1051 267 1042 q 367 1100 314 1100 m 129 189 q 142 223 129 189 q 178 315 156 257 q 228 445 200 374 q 286 592 257 517 q 342 738 315 668 q 390 860 369 807 q 415 885 396 871 q 443 899 433 899 q 447 898 446 899 q 450 896 447 897 l 726 171 q 761 82 757 90 q 788 56 768 67 q 828 40 808 44 q 854 35 849 35 q 858 13 860 28 q 856 -4 857 -1 q 783 1 815 -1 q 707 3 751 3 q 628 1 660 3 q 550 -4 597 -1 q 545 15 544 1 q 551 35 546 29 q 590 40 564 35 q 626 53 617 44 q 632 72 632 58 q 623 115 632 85 q 600 182 614 144 q 572 255 586 219 q 549 313 558 290 q 540 336 540 336 q 538 339 540 336 q 532 342 535 342 q 481 343 511 343 q 424 343 450 343 q 410 343 417 343 q 397 343 403 343 q 326 342 356 343 q 251 339 297 342 q 247 337 250 339 q 244 335 244 335 q 234 307 244 335 q 209 241 224 279 q 183 169 194 203 q 167 111 171 135 q 164 74 164 88 q 185 49 164 58 q 230 38 207 40 q 258 35 253 35 q 263 17 261 32 q 261 -4 264 3 q 216 -1 235 -3 q 178 1 197 0 q 129 3 160 3 q 78 1 99 3 q 36 -1 57 0 q -17 -4 15 -3 q -19 13 -19 -1 q -17 35 -19 28 q 26 41 -4 35 q 65 61 56 47 q 101 120 86 88 q 129 189 115 153 m 394 735 l 271 404 q 272 401 271 404 q 274 399 272 399 q 337 397 300 397 q 396 396 374 396 q 453 397 428 396 q 510 400 479 399 q 513 403 513 400 q 514 407 514 407 l 394 735 z "},"":{"ha":850,"x_min":-19,"x_max":860,"o":"m 129 189 q 142 223 129 189 q 178 315 156 257 q 228 445 200 374 q 286 592 257 517 q 342 738 315 668 q 390 860 369 807 q 415 885 396 871 q 443 899 433 899 q 447 898 446 899 q 450 896 447 897 l 726 171 q 761 82 757 90 q 788 56 768 67 q 828 40 808 44 q 854 35 849 35 q 858 13 860 28 q 856 -4 857 -1 q 783 1 815 -1 q 707 3 751 3 q 628 1 660 3 q 550 -4 597 -1 q 545 15 544 1 q 551 35 546 29 q 590 40 564 35 q 626 53 617 44 q 632 72 632 58 q 623 115 632 85 q 600 182 614 144 q 572 255 586 219 q 549 313 558 290 q 540 336 540 336 q 538 339 540 336 q 532 342 535 342 q 481 343 511 343 q 424 343 450 343 q 410 343 417 343 q 397 343 403 343 q 326 342 356 343 q 251 339 297 342 q 247 337 250 339 q 244 335 244 335 q 234 307 244 335 q 209 241 224 279 q 183 169 194 203 q 167 111 171 135 q 164 74 164 88 q 185 49 164 58 q 230 38 207 40 q 258 35 253 35 q 263 17 261 32 q 261 -4 264 3 q 216 -1 235 -3 q 178 1 197 0 q 129 3 160 3 q 78 1 99 3 q 36 -1 57 0 q -17 -4 15 -3 q -19 13 -19 -1 q -17 35 -19 28 q 26 41 -4 35 q 65 61 56 47 q 101 120 86 88 q 129 189 115 153 m 394 735 l 271 404 q 272 401 271 404 q 274 399 272 399 q 337 397 300 397 q 396 396 374 396 q 453 397 428 396 q 510 400 479 399 q 513 403 513 400 q 514 407 514 407 l 394 735 m 250 1056 q 270 1103 250 1083 q 318 1124 290 1124 q 366 1103 346 1124 q 386 1056 386 1083 q 366 1008 386 1028 q 318 988 346 988 q 270 1008 290 988 q 250 1056 250 1028 m 496 1056 q 516 1103 496 1083 q 564 1124 536 1124 q 612 1103 592 1124 q 632 1056 632 1083 q 612 1008 632 1028 q 564 988 592 988 q 516 1008 536 988 q 496 1056 496 1028 z "},"":{"ha":850,"x_min":-19,"x_max":860,"o":"m 315 1021 q 351 1106 315 1071 q 436 1142 388 1142 q 519 1106 485 1142 q 554 1021 554 1071 q 519 935 554 971 q 436 899 485 899 q 351 935 388 899 q 315 1021 315 971 m 360 1021 q 383 967 360 990 q 436 944 406 944 q 488 967 467 944 q 510 1021 510 990 q 488 1074 510 1053 q 436 1096 467 1096 q 383 1074 406 1096 q 360 1021 360 1053 m 129 189 q 142 223 129 189 q 178 315 156 257 q 228 445 200 374 q 286 592 257 517 q 342 738 315 668 q 390 860 369 807 q 415 885 396 871 q 443 899 433 899 q 447 898 446 899 q 450 896 447 897 l 726 171 q 761 82 757 90 q 788 56 768 67 q 828 40 808 44 q 854 35 849 35 q 858 13 860 28 q 856 -4 857 -1 q 783 1 815 -1 q 707 3 751 3 q 628 1 660 3 q 550 -4 597 -1 q 545 15 544 1 q 551 35 546 29 q 590 40 564 35 q 626 53 617 44 q 632 72 632 58 q 623 115 632 85 q 600 182 614 144 q 572 255 586 219 q 549 313 558 290 q 540 336 540 336 q 538 339 540 336 q 532 342 535 342 q 481 343 511 343 q 424 343 450 343 q 410 343 417 343 q 397 343 403 343 q 326 342 356 343 q 251 339 297 342 q 247 337 250 339 q 244 335 244 335 q 234 307 244 335 q 209 241 224 279 q 183 169 194 203 q 167 111 171 135 q 164 74 164 88 q 185 49 164 58 q 230 38 207 40 q 258 35 253 35 q 263 17 261 32 q 261 -4 264 3 q 216 -1 235 -3 q 178 1 197 0 q 129 3 160 3 q 78 1 99 3 q 36 -1 57 0 q -17 -4 15 -3 q -19 13 -19 -1 q -17 35 -19 28 q 26 41 -4 35 q 65 61 56 47 q 101 120 86 88 q 129 189 115 153 m 394 735 l 271 404 q 272 401 271 404 q 274 399 272 399 q 337 397 300 397 q 396 396 374 396 q 453 397 428 396 q 510 400 479 399 q 513 403 513 400 q 514 407 514 407 l 394 735 z "},"":{"ha":1215,"x_min":-21,"x_max":1178,"o":"m 642 0 q 529 -2 574 0 q 485 -4 485 -4 q 482 18 481 1 q 485 35 483 35 q 513 40 493 35 q 552 51 533 44 q 574 67 571 58 q 582 128 581 90 q 583 183 583 165 l 583 346 q 526 348 565 347 q 463 349 488 349 q 416 348 435 349 q 377 346 397 347 q 325 342 357 344 q 321 340 324 342 q 318 338 318 338 q 302 311 318 338 q 263 247 286 285 q 218 175 239 208 q 181 115 197 144 q 164 71 164 85 q 183 47 164 56 q 224 37 203 39 q 251 35 246 35 q 256 17 254 32 q 254 -4 257 3 q 209 -1 228 -3 q 172 1 190 0 q 122 3 153 3 q 72 1 92 3 q 33 -1 53 0 q -18 -4 14 -3 q -21 13 -21 -1 q -18 35 -21 28 q 19 43 -6 35 q 58 61 44 51 q 111 115 83 78 q 160 186 139 153 l 536 792 q 542 805 539 797 q 546 819 546 813 q 522 846 546 839 q 485 853 497 853 q 481 876 479 860 q 485 893 483 892 q 529 892 485 893 q 642 892 574 892 q 852 896 738 892 q 1076 900 967 900 q 1095 806 1083 849 q 1117 717 1107 763 q 1092 710 1110 710 q 1072 719 1074 710 q 1010 824 1050 801 q 915 846 969 846 l 799 846 q 769 845 790 846 q 728 842 747 844 q 706 832 708 839 q 699 789 700 815 q 699 735 699 763 l 699 482 q 717 475 699 476 q 757 474 735 474 l 829 474 q 904 476 878 474 q 943 489 931 479 q 963 518 956 499 q 978 571 969 538 q 999 581 979 581 q 1021 574 1014 581 l 1021 318 q 1000 313 1015 313 q 978 322 982 313 q 962 378 968 361 q 951 402 956 396 q 940 413 947 408 q 908 420 933 418 q 853 423 883 422 q 796 424 822 424 q 755 423 778 424 q 715 420 732 422 q 699 411 699 418 l 699 153 q 699 122 699 143 q 701 82 700 100 q 707 60 703 64 q 740 48 721 50 q 803 46 760 46 l 868 46 q 964 56 917 46 q 1039 83 1011 65 q 1090 140 1071 103 q 1125 219 1108 176 q 1143 228 1128 228 q 1165 225 1154 228 q 1178 219 1175 222 q 1135 101 1158 164 q 1104 -6 1111 39 q 886 -3 994 -6 q 642 0 778 0 m 583 403 l 583 768 q 550 714 575 754 q 493 622 525 674 q 431 522 461 571 q 381 440 400 472 q 361 407 361 407 q 361 404 361 407 q 363 401 361 401 q 418 400 389 400 q 469 400 447 400 q 533 401 501 400 q 583 403 564 401 z "},"":{"ha":914,"x_min":67,"x_max":858,"o":"m 525 904 q 665 899 592 904 q 813 876 738 893 q 817 848 813 876 q 828 781 822 819 q 838 712 833 743 q 843 675 843 681 q 835 664 844 669 q 814 658 825 658 q 797 663 804 658 q 784 710 794 678 q 747 776 774 742 q 668 835 719 811 q 532 860 617 860 q 396 826 457 860 q 291 734 335 792 q 224 606 247 676 q 201 465 201 536 q 223 310 201 386 q 288 172 244 233 q 398 73 332 110 q 553 36 464 36 q 659 56 615 36 q 732 101 703 75 q 790 182 772 138 q 815 260 808 226 q 858 249 839 263 q 853 210 858 239 q 842 147 849 181 q 826 86 835 113 q 811 53 818 60 q 685 7 756 22 q 519 -8 614 -8 q 336 27 419 -8 q 192 124 253 63 q 99 266 132 186 q 67 436 67 346 q 101 616 67 532 q 196 765 135 700 q 341 867 257 831 q 525 904 425 904 m 515 -36 l 556 -36 q 607 -60 588 -36 q 626 -115 626 -83 q 583 -203 626 -171 q 476 -236 539 -236 q 445 -232 463 -236 q 421 -222 428 -228 q 418 -211 419 -215 q 417 -200 417 -207 q 424 -185 417 -192 q 439 -178 432 -178 q 466 -188 454 -178 q 497 -199 478 -199 q 549 -182 531 -199 q 567 -144 567 -165 q 550 -103 567 -117 q 518 -90 533 -90 q 497 -93 504 -90 q 476 -101 489 -96 q 467 -94 475 -101 q 460 -82 458 -87 q 486 -40 471 -62 q 511 0 501 -18 l 544 0 l 515 -36 z "},"":{"ha":796,"x_min":56,"x_max":758,"o":"m 465 1000 q 463 992 465 997 q 457 988 460 988 q 424 997 450 988 q 362 1023 397 1007 q 292 1058 326 1039 q 236 1095 258 1076 q 214 1128 214 1114 q 226 1154 214 1140 q 276 1168 238 1168 q 301 1164 293 1168 q 347 1126 319 1151 q 401 1072 374 1100 q 447 1024 428 1044 q 465 1000 465 1004 m 222 892 q 433 896 318 892 q 658 900 549 900 q 676 806 665 849 q 697 717 688 763 q 674 710 690 710 q 654 719 656 710 q 592 824 632 801 q 497 846 551 846 l 381 846 q 350 845 372 846 q 308 842 328 844 q 286 832 289 839 q 281 796 282 818 q 281 750 281 774 q 281 735 281 740 l 281 482 q 299 475 281 476 q 339 474 317 474 l 410 474 q 485 476 458 474 q 525 489 513 479 q 544 518 538 499 q 560 571 551 538 q 579 581 561 581 q 603 574 596 581 l 603 318 q 581 313 597 313 q 560 322 564 313 q 544 378 550 361 q 533 402 538 396 q 521 413 528 408 q 489 420 514 418 q 434 423 464 422 q 378 424 404 424 q 337 423 360 424 q 297 420 314 422 q 281 411 281 418 l 281 153 q 281 144 281 150 q 281 94 281 125 q 288 60 282 64 q 322 48 301 50 q 385 46 342 46 l 450 46 q 546 56 499 46 q 621 83 593 65 q 671 140 653 103 q 706 219 689 176 q 725 228 708 228 q 758 219 750 228 q 716 101 739 164 q 686 -6 693 39 q 468 -3 576 -6 q 224 0 360 0 q 139 -2 176 0 q 61 -4 101 -4 q 56 15 56 1 q 61 35 57 29 q 92 37 69 35 q 134 44 114 39 q 156 57 154 50 q 162 100 161 74 q 163 157 163 126 l 163 736 q 162 794 163 767 q 156 838 161 821 q 134 850 154 846 q 92 856 114 854 q 61 858 69 858 q 56 878 57 864 q 61 897 56 892 q 143 894 103 896 q 222 892 183 892 z "},"":{"ha":796,"x_min":56,"x_max":758,"o":"m 347 1000 q 366 1024 347 1004 q 412 1072 385 1044 q 466 1126 439 1100 q 511 1164 493 1151 q 536 1168 519 1168 q 588 1154 576 1168 q 599 1128 599 1140 q 576 1095 599 1114 q 520 1058 554 1076 q 451 1023 486 1039 q 389 997 415 1007 q 356 988 363 988 q 350 992 353 988 q 347 1000 347 997 m 222 892 q 433 896 318 892 q 658 900 549 900 q 676 806 665 849 q 697 717 688 763 q 674 710 690 710 q 654 719 656 710 q 592 824 632 801 q 497 846 551 846 l 381 846 q 350 845 372 846 q 308 842 328 844 q 286 832 289 839 q 281 796 282 818 q 281 750 281 774 q 281 735 281 740 l 281 482 q 299 475 281 476 q 339 474 317 474 l 410 474 q 485 476 458 474 q 525 489 513 479 q 544 518 538 499 q 560 571 551 538 q 579 581 561 581 q 603 574 596 581 l 603 318 q 581 313 597 313 q 560 322 564 313 q 544 378 550 361 q 533 402 538 396 q 521 413 528 408 q 489 420 514 418 q 434 423 464 422 q 378 424 404 424 q 337 423 360 424 q 297 420 314 422 q 281 411 281 418 l 281 153 q 281 144 281 150 q 281 94 281 125 q 288 60 282 64 q 322 48 301 50 q 385 46 342 46 l 450 46 q 546 56 499 46 q 621 83 593 65 q 671 140 653 103 q 706 219 689 176 q 725 228 708 228 q 758 219 750 228 q 716 101 739 164 q 686 -6 693 39 q 468 -3 576 -6 q 224 0 360 0 q 139 -2 176 0 q 61 -4 101 -4 q 56 15 56 1 q 61 35 57 29 q 92 37 69 35 q 134 44 114 39 q 156 57 154 50 q 162 100 161 74 q 163 157 163 126 l 163 736 q 162 794 163 767 q 156 838 161 821 q 134 850 154 846 q 92 856 114 854 q 61 858 69 858 q 56 878 57 864 q 61 897 56 892 q 143 894 103 896 q 222 892 183 892 z "},"":{"ha":796,"x_min":56,"x_max":758,"o":"m 413 1165 q 421 1162 417 1165 q 429 1154 425 1158 q 476 1104 457 1125 q 517 1063 496 1083 q 567 1010 538 1042 q 563 995 567 1004 q 554 986 560 986 q 523 1006 546 992 q 474 1035 500 1019 q 431 1061 449 1050 q 413 1072 413 1072 q 396 1062 413 1072 q 355 1037 379 1051 q 308 1008 331 1022 q 271 986 285 994 q 261 995 265 986 q 257 1010 257 1004 q 307 1061 286 1040 q 348 1103 328 1082 q 396 1154 368 1124 q 404 1162 400 1158 q 413 1165 408 1165 m 222 892 q 433 896 318 892 q 658 900 549 900 q 676 806 665 849 q 697 717 688 763 q 674 710 690 710 q 654 719 656 710 q 592 824 632 801 q 497 846 551 846 l 381 846 q 350 845 372 846 q 308 842 328 844 q 286 832 289 839 q 281 796 282 818 q 281 750 281 774 q 281 735 281 740 l 281 482 q 299 475 281 476 q 339 474 317 474 l 410 474 q 485 476 458 474 q 525 489 513 479 q 544 518 538 499 q 560 571 551 538 q 579 581 561 581 q 603 574 596 581 l 603 318 q 581 313 597 313 q 560 322 564 313 q 544 378 550 361 q 533 402 538 396 q 521 413 528 408 q 489 420 514 418 q 434 423 464 422 q 378 424 404 424 q 337 423 360 424 q 297 420 314 422 q 281 411 281 418 l 281 153 q 281 144 281 150 q 281 94 281 125 q 288 60 282 64 q 322 48 301 50 q 385 46 342 46 l 450 46 q 546 56 499 46 q 621 83 593 65 q 671 140 653 103 q 706 219 689 176 q 725 228 708 228 q 758 219 750 228 q 716 101 739 164 q 686 -6 693 39 q 468 -3 576 -6 q 224 0 360 0 q 139 -2 176 0 q 61 -4 101 -4 q 56 15 56 1 q 61 35 57 29 q 92 37 69 35 q 134 44 114 39 q 156 57 154 50 q 162 100 161 74 q 163 157 163 126 l 163 736 q 162 794 163 767 q 156 838 161 821 q 134 850 154 846 q 92 856 114 854 q 61 858 69 858 q 56 878 57 864 q 61 897 56 892 q 143 894 103 896 q 222 892 183 892 z "},"":{"ha":796,"x_min":56,"x_max":758,"o":"m 222 892 q 433 896 318 892 q 658 900 549 900 q 676 806 665 849 q 697 717 688 763 q 674 710 690 710 q 654 719 656 710 q 592 824 632 801 q 497 846 551 846 l 381 846 q 350 845 372 846 q 308 842 328 844 q 286 832 289 839 q 281 796 282 818 q 281 750 281 774 q 281 735 281 740 l 281 482 q 299 475 281 476 q 339 474 317 474 l 410 474 q 485 476 458 474 q 525 489 513 479 q 544 518 538 499 q 560 571 551 538 q 579 581 561 581 q 603 574 596 581 l 603 318 q 581 313 597 313 q 560 322 564 313 q 544 378 550 361 q 533 402 538 396 q 521 413 528 408 q 489 420 514 418 q 434 423 464 422 q 378 424 404 424 q 337 423 360 424 q 297 420 314 422 q 281 411 281 418 l 281 153 q 281 144 281 150 q 281 94 281 125 q 288 60 282 64 q 322 48 301 50 q 385 46 342 46 l 450 46 q 546 56 499 46 q 621 83 593 65 q 671 140 653 103 q 706 219 689 176 q 725 228 708 228 q 758 219 750 228 q 716 101 739 164 q 686 -6 693 39 q 468 -3 576 -6 q 224 0 360 0 q 139 -2 176 0 q 61 -4 101 -4 q 56 15 56 1 q 61 35 57 29 q 92 37 69 35 q 134 44 114 39 q 156 57 154 50 q 162 100 161 74 q 163 157 163 126 l 163 736 q 162 794 163 767 q 156 838 161 821 q 134 850 154 846 q 92 856 114 854 q 61 858 69 858 q 56 878 57 864 q 61 897 56 892 q 143 894 103 896 q 222 892 183 892 m 211 1056 q 231 1103 211 1083 q 279 1124 251 1124 q 327 1103 307 1124 q 347 1056 347 1083 q 327 1008 347 1028 q 279 988 307 988 q 231 1008 251 988 q 211 1056 211 1028 m 457 1056 q 477 1103 457 1083 q 525 1124 497 1124 q 573 1103 553 1124 q 593 1056 593 1083 q 573 1008 593 1028 q 525 988 553 988 q 477 1008 497 988 q 457 1056 457 1028 z "},"":{"ha":439,"x_min":50,"x_max":386,"o":"m 301 1000 q 299 992 301 997 q 293 988 296 988 q 260 997 286 988 q 198 1023 233 1007 q 128 1058 163 1039 q 72 1095 94 1076 q 50 1128 50 1114 q 62 1154 50 1140 q 113 1168 74 1168 q 138 1164 129 1168 q 183 1126 156 1151 q 237 1072 210 1100 q 283 1024 264 1044 q 301 1000 301 1004 m 222 892 q 301 894 263 892 q 381 897 339 896 q 385 878 386 892 q 381 858 385 864 q 350 856 372 858 q 308 850 328 854 q 286 838 289 846 q 281 801 282 824 q 281 753 281 779 q 281 744 281 749 q 281 736 281 740 l 281 157 q 281 149 281 153 q 281 140 281 144 q 281 92 281 114 q 286 57 282 71 q 308 44 289 50 q 350 37 328 39 q 381 35 372 35 q 385 15 385 29 q 381 -4 386 1 q 301 1 339 -1 q 222 3 263 3 q 143 1 183 3 q 61 -4 103 -1 q 56 15 56 1 q 61 35 57 29 q 92 37 69 35 q 134 44 114 39 q 156 57 154 50 q 162 100 161 74 q 163 157 163 126 l 163 736 q 162 794 163 767 q 156 838 161 821 q 134 850 154 846 q 92 856 114 854 q 61 858 69 858 q 56 878 57 864 q 61 897 56 892 q 143 894 103 896 q 222 892 183 892 z "},"":{"ha":439,"x_min":56,"x_max":408,"o":"m 157 1000 q 176 1024 157 1004 q 222 1072 194 1044 q 276 1126 249 1100 q 321 1164 303 1151 q 346 1168 329 1168 q 397 1154 386 1168 q 408 1128 408 1140 q 386 1095 408 1114 q 330 1058 364 1076 q 260 1023 296 1039 q 199 997 225 1007 q 165 988 172 988 q 160 992 163 988 q 157 1000 157 997 m 222 892 q 301 894 263 892 q 381 897 339 896 q 385 878 386 892 q 381 858 385 864 q 350 856 372 858 q 308 850 328 854 q 286 838 289 846 q 281 801 282 824 q 281 753 281 779 q 281 744 281 749 q 281 736 281 740 l 281 157 q 281 149 281 153 q 281 140 281 144 q 281 92 281 114 q 286 57 282 71 q 308 44 289 50 q 350 37 328 39 q 381 35 372 35 q 385 15 385 29 q 381 -4 386 1 q 301 1 339 -1 q 222 3 263 3 q 143 1 183 3 q 61 -4 103 -1 q 56 15 56 1 q 61 35 57 29 q 92 37 69 35 q 134 44 114 39 q 156 57 154 50 q 162 100 161 74 q 163 157 163 126 l 163 736 q 162 794 163 767 q 156 838 161 821 q 134 850 154 846 q 92 856 114 854 q 61 858 69 858 q 56 878 57 864 q 61 897 56 892 q 143 894 103 896 q 222 892 183 892 z "},"":{"ha":439,"x_min":56,"x_max":388,"o":"m 233 1135 q 242 1131 238 1135 q 250 1124 246 1128 q 297 1074 278 1094 q 338 1032 317 1053 q 388 979 358 1011 q 384 965 388 974 q 375 956 381 956 q 344 975 367 961 q 295 1004 321 989 q 251 1031 269 1019 q 233 1042 233 1042 q 217 1031 233 1042 q 176 1006 200 1021 q 128 978 151 992 q 92 956 106 964 q 82 965 86 956 q 78 979 78 974 q 128 1031 107 1010 q 169 1072 149 1051 q 217 1124 189 1093 q 225 1131 221 1128 q 233 1135 229 1135 m 222 892 q 301 894 263 892 q 381 897 339 896 q 385 878 386 892 q 381 858 385 864 q 350 856 372 858 q 308 850 328 854 q 286 838 289 846 q 281 801 282 824 q 281 753 281 779 q 281 744 281 749 q 281 736 281 740 l 281 157 q 281 149 281 153 q 281 140 281 144 q 281 92 281 114 q 286 57 282 71 q 308 44 289 50 q 350 37 328 39 q 381 35 372 35 q 385 15 385 29 q 381 -4 386 1 q 301 1 339 -1 q 222 3 263 3 q 143 1 183 3 q 61 -4 103 -1 q 56 15 56 1 q 61 35 57 29 q 92 37 69 35 q 134 44 114 39 q 156 57 154 50 q 162 100 161 74 q 163 157 163 126 l 163 736 q 162 794 163 767 q 156 838 161 821 q 134 850 154 846 q 92 856 114 854 q 61 858 69 858 q 56 878 57 864 q 61 897 56 892 q 143 894 103 896 q 222 892 183 892 z "},"":{"ha":439,"x_min":38,"x_max":419,"o":"m 222 892 q 301 894 263 892 q 381 897 339 896 q 385 878 386 892 q 381 858 385 864 q 350 856 372 858 q 308 850 328 854 q 286 838 289 846 q 281 801 282 824 q 281 753 281 779 q 281 744 281 749 q 281 736 281 740 l 281 157 q 281 149 281 153 q 281 140 281 144 q 281 92 281 114 q 286 57 282 71 q 308 44 289 50 q 350 37 328 39 q 381 35 372 35 q 385 15 385 29 q 381 -4 386 1 q 301 1 339 -1 q 222 3 263 3 q 143 1 183 3 q 61 -4 103 -1 q 56 15 56 1 q 61 35 57 29 q 92 37 69 35 q 134 44 114 39 q 156 57 154 50 q 162 100 161 74 q 163 157 163 126 l 163 736 q 162 794 163 767 q 156 838 161 821 q 134 850 154 846 q 92 856 114 854 q 61 858 69 858 q 56 878 57 864 q 61 897 56 892 q 143 894 103 896 q 222 892 183 892 m 38 1056 q 58 1103 38 1083 q 106 1124 78 1124 q 153 1103 133 1124 q 174 1056 174 1083 q 153 1008 174 1028 q 106 988 133 988 q 58 1008 78 988 q 38 1056 38 1028 m 283 1056 q 303 1103 283 1083 q 351 1124 324 1124 q 399 1103 379 1124 q 419 1056 419 1083 q 399 1008 419 1028 q 351 988 379 988 q 303 1008 324 988 q 283 1056 283 1028 z "},"":{"ha":963,"x_min":56,"x_max":894,"o":"m 418 893 q 674 835 567 893 q 838 678 781 778 q 894 453 894 579 q 871 285 894 367 q 791 138 847 203 q 639 34 735 72 q 400 -4 543 -4 l 61 -4 q 56 15 56 1 q 61 35 57 29 q 92 37 69 35 q 134 44 114 39 q 156 57 154 50 q 162 100 161 74 q 163 157 163 126 l 163 422 l 67 422 q 63 442 63 422 q 68 472 63 463 l 163 472 l 163 736 q 162 794 163 767 q 156 838 161 821 q 134 850 154 846 q 92 856 114 854 q 61 858 69 858 q 56 878 57 864 q 61 897 56 892 q 143 894 103 896 q 222 892 183 892 q 318 892 263 892 q 418 893 374 893 m 494 422 l 282 422 l 282 156 q 282 124 282 146 q 284 83 282 103 q 289 58 286 63 q 330 43 297 47 q 400 39 363 39 q 578 81 497 39 q 710 208 660 122 q 760 425 760 293 q 728 621 760 540 q 644 752 697 701 q 523 826 590 803 q 382 849 456 849 q 351 848 374 849 q 310 844 329 847 q 288 835 290 842 q 283 798 283 821 q 282 750 282 775 q 282 742 282 746 q 282 733 282 738 l 282 472 l 494 472 q 499 452 499 472 q 494 422 499 432 z "},"":{"ha":1051,"x_min":50,"x_max":1017,"o":"m 425 1100 q 474 1091 453 1100 q 515 1071 494 1082 q 560 1049 538 1058 q 599 1039 583 1039 q 644 1050 626 1039 q 672 1074 661 1061 q 686 1089 682 1086 q 692 1084 690 1089 q 694 1075 694 1079 q 688 1050 694 1063 q 675 1028 682 1038 q 633 992 657 1006 q 582 978 610 978 q 533 987 554 978 q 492 1007 513 996 q 449 1030 469 1019 q 408 1040 429 1040 q 364 1028 382 1040 q 336 1003 346 1017 q 321 988 326 990 q 315 993 317 988 q 313 1003 313 999 q 319 1028 313 1015 q 332 1051 325 1042 q 425 1100 372 1100 m 194 896 q 254 896 225 896 q 297 897 283 896 q 364 807 318 865 q 471 674 410 749 q 597 521 532 600 q 724 365 663 442 q 829 225 785 288 l 829 739 q 828 796 829 775 q 815 833 826 817 q 790 847 811 840 q 747 856 769 853 q 713 860 724 860 q 708 880 707 867 q 710 899 708 893 q 785 895 750 897 q 865 893 821 893 q 917 894 897 893 q 959 896 938 894 q 1011 899 981 897 q 1015 882 1014 893 q 1011 860 1017 871 q 978 857 1003 860 q 932 848 954 854 q 904 833 910 842 q 893 799 894 818 q 892 740 892 779 l 892 189 q 892 121 892 150 q 892 65 892 92 q 894 1 893 38 q 886 -6 893 -4 q 876 -7 879 -7 q 858 0 871 -7 q 829 25 844 7 l 238 772 l 238 156 q 240 99 238 119 q 251 63 242 79 q 276 49 256 56 q 319 39 296 43 q 353 35 342 35 q 358 15 358 28 q 356 -4 358 3 q 281 1 315 -1 q 201 3 246 3 q 149 1 171 3 q 108 -1 128 0 q 56 -4 88 -3 q 51 13 53 1 q 56 35 50 24 q 88 38 64 35 q 134 48 111 42 q 161 63 157 54 q 173 97 171 78 q 175 154 175 115 l 175 743 q 173 801 175 782 q 161 836 171 821 q 134 851 157 844 q 88 860 111 857 q 56 863 64 863 q 51 885 50 874 q 56 901 53 896 q 132 898 103 900 q 194 896 161 896 z "},"":{"ha":1014,"x_min":67,"x_max":949,"o":"m 567 1000 q 564 992 567 997 q 558 988 561 988 q 525 997 551 988 q 463 1023 499 1007 q 394 1058 428 1039 q 338 1095 360 1076 q 315 1128 315 1114 q 327 1154 315 1140 q 378 1168 339 1168 q 403 1164 394 1168 q 448 1126 421 1151 q 502 1072 475 1100 q 548 1024 529 1044 q 567 1000 567 1004 m 506 904 q 676 871 596 904 q 817 776 756 838 q 913 630 878 714 q 949 444 949 546 q 913 266 949 349 q 817 120 878 183 q 676 22 756 57 q 506 -14 596 -14 q 337 19 417 -14 q 197 115 257 53 q 101 260 136 176 q 67 444 67 344 q 101 624 67 540 q 197 770 136 707 q 337 869 257 833 q 506 904 417 904 m 486 858 q 356 824 410 858 q 267 735 301 790 q 217 611 233 679 q 201 475 201 543 q 223 317 201 396 q 286 174 244 239 q 388 71 328 110 q 528 32 449 32 q 658 66 604 32 q 747 157 713 100 q 798 283 782 214 q 814 419 814 351 q 792 576 814 499 q 728 718 771 654 q 626 820 686 782 q 486 858 565 858 z "},"":{"ha":1014,"x_min":67,"x_max":949,"o":"m 422 1000 q 441 1024 422 1004 q 487 1072 460 1044 q 541 1126 514 1100 q 586 1164 568 1151 q 611 1168 594 1168 q 663 1154 651 1168 q 674 1128 674 1140 q 651 1095 674 1114 q 595 1058 629 1076 q 526 1023 561 1039 q 464 997 490 1007 q 431 988 438 988 q 425 992 428 988 q 422 1000 422 997 m 506 904 q 676 871 596 904 q 817 776 756 838 q 913 630 878 714 q 949 444 949 546 q 913 266 949 349 q 817 120 878 183 q 676 22 756 57 q 506 -14 596 -14 q 337 19 417 -14 q 197 115 257 53 q 101 260 136 176 q 67 444 67 344 q 101 624 67 540 q 197 770 136 707 q 337 869 257 833 q 506 904 417 904 m 486 858 q 356 824 410 858 q 267 735 301 790 q 217 611 233 679 q 201 475 201 543 q 223 317 201 396 q 286 174 244 239 q 388 71 328 110 q 528 32 449 32 q 658 66 604 32 q 747 157 713 100 q 798 283 782 214 q 814 419 814 351 q 792 576 814 499 q 728 718 771 654 q 626 820 686 782 q 486 858 565 858 z "},"":{"ha":1014,"x_min":67,"x_max":949,"o":"m 510 1165 q 518 1162 514 1165 q 526 1154 522 1158 q 574 1104 554 1125 q 614 1063 593 1083 q 664 1010 635 1042 q 660 995 664 1004 q 651 986 657 986 q 620 1006 643 992 q 572 1035 597 1019 q 528 1061 546 1050 q 510 1072 510 1072 q 493 1062 510 1072 q 452 1037 476 1051 q 405 1008 428 1022 q 368 986 382 994 q 358 995 363 986 q 354 1010 354 1004 q 404 1061 383 1040 q 445 1103 425 1082 q 493 1154 465 1124 q 501 1162 497 1158 q 510 1165 506 1165 m 506 904 q 676 871 596 904 q 817 776 756 838 q 913 630 878 714 q 949 444 949 546 q 913 266 949 349 q 817 120 878 183 q 676 22 756 57 q 506 -14 596 -14 q 337 19 417 -14 q 197 115 257 53 q 101 260 136 176 q 67 444 67 344 q 101 624 67 540 q 197 770 136 707 q 337 869 257 833 q 506 904 417 904 m 486 858 q 356 824 410 858 q 267 735 301 790 q 217 611 233 679 q 201 475 201 543 q 223 317 201 396 q 286 174 244 239 q 388 71 328 110 q 528 32 449 32 q 658 66 604 32 q 747 157 713 100 q 798 283 782 214 q 814 419 814 351 q 792 576 814 499 q 728 718 771 654 q 626 820 686 782 q 486 858 565 858 z "},"":{"ha":1014,"x_min":67,"x_max":949,"o":"m 439 1099 q 488 1090 467 1099 q 529 1069 508 1081 q 574 1047 551 1057 q 613 1038 597 1038 q 658 1049 640 1038 q 685 1072 675 1060 q 700 1088 696 1085 q 706 1083 704 1088 q 708 1074 708 1078 q 702 1049 708 1061 q 689 1026 696 1036 q 647 990 671 1004 q 596 976 624 976 q 547 985 568 976 q 506 1006 526 994 q 463 1028 483 1018 q 422 1039 443 1039 q 378 1027 396 1039 q 350 1002 360 1015 q 335 986 340 989 q 328 992 331 986 q 326 1001 326 997 q 333 1027 326 1014 q 346 1050 339 1040 q 439 1099 386 1099 m 506 904 q 676 871 596 904 q 817 776 756 838 q 913 630 878 714 q 949 444 949 546 q 913 266 949 349 q 817 120 878 183 q 676 22 756 57 q 506 -14 596 -14 q 337 19 417 -14 q 197 115 257 53 q 101 260 136 176 q 67 444 67 344 q 101 624 67 540 q 197 770 136 707 q 337 869 257 833 q 506 904 417 904 m 486 858 q 356 824 410 858 q 267 735 301 790 q 217 611 233 679 q 201 475 201 543 q 223 317 201 396 q 286 174 244 239 q 388 71 328 110 q 528 32 449 32 q 658 66 604 32 q 747 157 713 100 q 798 283 782 214 q 814 419 814 351 q 792 576 814 499 q 728 718 771 654 q 626 820 686 782 q 486 858 565 858 z "},"":{"ha":1014,"x_min":67,"x_max":949,"o":"m 506 904 q 676 871 596 904 q 817 776 756 838 q 913 630 878 714 q 949 444 949 546 q 913 266 949 349 q 817 120 878 183 q 676 22 756 57 q 506 -14 596 -14 q 337 19 417 -14 q 197 115 257 53 q 101 260 136 176 q 67 444 67 344 q 101 624 67 540 q 197 770 136 707 q 337 869 257 833 q 506 904 417 904 m 486 858 q 356 824 410 858 q 267 735 301 790 q 217 611 233 679 q 201 475 201 543 q 223 317 201 396 q 286 174 244 239 q 388 71 328 110 q 528 32 449 32 q 658 66 604 32 q 747 157 713 100 q 798 283 782 214 q 814 419 814 351 q 792 576 814 499 q 728 718 771 654 q 626 820 686 782 q 486 858 565 858 m 317 1056 q 337 1103 317 1083 q 385 1124 357 1124 q 433 1103 413 1124 q 453 1056 453 1083 q 433 1008 453 1028 q 385 988 413 988 q 337 1008 357 988 q 317 1056 317 1028 m 563 1056 q 583 1103 563 1083 q 631 1124 603 1124 q 678 1103 658 1124 q 699 1056 699 1083 q 678 1008 699 1028 q 631 988 658 988 q 583 1008 603 988 q 563 1056 563 1028 z "},"":{"ha":629,"x_min":75,"x_max":553,"o":"m 269 335 l 75 531 q 86 564 75 546 q 107 582 97 582 q 117 579 114 582 q 137 560 117 579 q 187 511 157 540 q 247 453 217 482 q 297 404 276 424 q 318 383 317 385 l 515 579 q 524 582 518 582 q 543 560 533 582 q 553 528 553 539 l 364 339 q 383 319 364 339 q 431 269 403 299 q 487 211 458 240 q 534 163 515 182 q 553 143 553 143 q 544 108 553 128 q 524 88 535 88 q 514 90 517 88 q 494 110 514 90 q 444 160 474 131 q 385 219 415 190 q 335 269 356 249 q 315 290 315 290 q 294 269 314 289 q 243 219 274 249 q 183 159 213 189 q 133 109 153 129 q 113 89 113 89 q 104 86 110 86 q 92 97 99 86 q 80 122 85 108 q 75 143 75 136 q 94 162 75 143 q 142 208 114 181 q 199 265 169 236 q 248 313 228 293 q 269 335 268 333 z "},"":{"ha":1014,"x_min":67,"x_max":949,"o":"m 767 904 q 793 892 776 903 q 806 875 810 882 l 768 817 q 899 660 850 757 q 949 444 949 564 q 913 266 949 349 q 817 120 878 183 q 676 22 756 57 q 506 -14 596 -14 q 281 49 383 -14 l 239 -18 q 213 -3 229 -15 q 200 14 196 8 l 240 76 q 114 232 161 138 q 67 444 67 326 q 101 624 67 540 q 197 770 136 707 q 337 869 257 833 q 506 904 417 904 q 728 844 625 904 l 767 904 m 717 735 l 328 122 q 417 56 367 81 q 528 32 467 32 q 658 66 604 32 q 747 157 713 100 q 798 283 782 214 q 814 419 814 351 q 789 588 814 504 q 717 735 764 671 m 486 858 q 356 824 410 858 q 267 735 301 790 q 217 611 233 679 q 201 475 201 543 q 225 310 201 393 q 294 163 249 226 l 683 774 q 595 835 644 813 q 486 858 546 858 z "},"":{"ha":981,"x_min":35,"x_max":961,"o":"m 571 1000 q 568 992 571 997 q 563 988 565 988 q 529 997 556 988 q 467 1023 503 1007 q 398 1058 432 1039 q 342 1095 364 1076 q 319 1128 319 1114 q 331 1154 319 1140 q 382 1168 343 1168 q 407 1164 399 1168 q 452 1126 425 1151 q 506 1072 479 1100 q 552 1024 533 1044 q 571 1000 571 1004 m 200 892 q 278 894 240 892 q 358 897 317 896 q 363 878 364 892 q 358 858 363 864 q 328 856 350 858 q 288 850 307 854 q 265 838 268 846 q 259 794 260 821 q 258 736 258 767 l 258 401 q 276 254 258 317 q 325 151 293 192 q 511 74 389 74 q 640 100 582 74 q 735 191 699 126 q 774 372 772 256 l 774 739 q 772 796 774 775 q 760 833 771 817 q 736 847 756 840 q 695 856 717 853 q 663 860 674 860 q 658 880 657 867 q 660 899 658 893 q 733 895 700 897 q 810 893 765 893 q 862 894 842 893 q 903 896 882 894 q 956 899 925 897 q 960 882 958 893 q 956 860 961 871 q 924 857 947 860 q 878 848 900 854 q 850 833 856 842 q 838 799 840 818 q 836 740 836 779 l 836 375 q 792 156 836 240 q 667 33 747 72 q 482 -6 588 -6 q 347 18 410 -6 q 240 85 285 42 q 167 194 193 129 q 140 340 140 260 l 140 736 q 140 794 140 767 q 133 838 139 821 q 112 850 132 846 q 70 856 92 854 q 40 858 49 858 q 35 878 36 864 q 40 897 35 892 q 122 894 82 896 q 200 892 161 892 z "},"":{"ha":981,"x_min":35,"x_max":961,"o":"m 453 1000 q 472 1024 453 1004 q 517 1072 490 1044 q 572 1126 544 1100 q 617 1164 599 1151 q 642 1168 625 1168 q 693 1154 682 1168 q 704 1128 704 1140 q 682 1095 704 1114 q 626 1058 660 1076 q 556 1023 592 1039 q 494 997 521 1007 q 461 988 468 988 q 456 992 458 988 q 453 1000 453 997 m 200 892 q 278 894 240 892 q 358 897 317 896 q 363 878 364 892 q 358 858 363 864 q 328 856 350 858 q 288 850 307 854 q 265 838 268 846 q 259 794 260 821 q 258 736 258 767 l 258 401 q 276 254 258 317 q 325 151 293 192 q 511 74 389 74 q 640 100 582 74 q 735 191 699 126 q 774 372 772 256 l 774 739 q 772 796 774 775 q 760 833 771 817 q 736 847 756 840 q 695 856 717 853 q 663 860 674 860 q 658 880 657 867 q 660 899 658 893 q 733 895 700 897 q 810 893 765 893 q 862 894 842 893 q 903 896 882 894 q 956 899 925 897 q 960 882 958 893 q 956 860 961 871 q 924 857 947 860 q 878 848 900 854 q 850 833 856 842 q 838 799 840 818 q 836 740 836 779 l 836 375 q 792 156 836 240 q 667 33 747 72 q 482 -6 588 -6 q 347 18 410 -6 q 240 85 285 42 q 167 194 193 129 q 140 340 140 260 l 140 736 q 140 794 140 767 q 133 838 139 821 q 112 850 132 846 q 70 856 92 854 q 40 858 49 858 q 35 878 36 864 q 40 897 35 892 q 122 894 82 896 q 200 892 161 892 z "},"":{"ha":981,"x_min":35,"x_max":961,"o":"m 497 1165 q 506 1162 501 1165 q 514 1154 510 1158 q 561 1104 542 1125 q 601 1063 581 1083 q 651 1010 622 1042 q 648 995 651 1004 q 639 986 644 986 q 608 1006 631 992 q 559 1035 585 1019 q 515 1061 533 1050 q 497 1072 497 1072 q 481 1062 497 1072 q 440 1037 464 1051 q 392 1008 415 1022 q 356 986 369 994 q 346 995 350 986 q 342 1010 342 1004 q 392 1061 371 1040 q 433 1103 413 1082 q 481 1154 453 1124 q 489 1162 485 1158 q 497 1165 493 1165 m 200 892 q 278 894 240 892 q 358 897 317 896 q 363 878 364 892 q 358 858 363 864 q 328 856 350 858 q 288 850 307 854 q 265 838 268 846 q 259 794 260 821 q 258 736 258 767 l 258 401 q 276 254 258 317 q 325 151 293 192 q 511 74 389 74 q 640 100 582 74 q 735 191 699 126 q 774 372 772 256 l 774 739 q 772 796 774 775 q 760 833 771 817 q 736 847 756 840 q 695 856 717 853 q 663 860 674 860 q 658 880 657 867 q 660 899 658 893 q 733 895 700 897 q 810 893 765 893 q 862 894 842 893 q 903 896 882 894 q 956 899 925 897 q 960 882 958 893 q 956 860 961 871 q 924 857 947 860 q 878 848 900 854 q 850 833 856 842 q 838 799 840 818 q 836 740 836 779 l 836 375 q 792 156 836 240 q 667 33 747 72 q 482 -6 588 -6 q 347 18 410 -6 q 240 85 285 42 q 167 194 193 129 q 140 340 140 260 l 140 736 q 140 794 140 767 q 133 838 139 821 q 112 850 132 846 q 70 856 92 854 q 40 858 49 858 q 35 878 36 864 q 40 897 35 892 q 122 894 82 896 q 200 892 161 892 z "},"":{"ha":981,"x_min":35,"x_max":961,"o":"m 200 892 q 278 894 240 892 q 358 897 317 896 q 363 878 364 892 q 358 858 363 864 q 328 856 350 858 q 288 850 307 854 q 265 838 268 846 q 259 794 260 821 q 258 736 258 767 l 258 401 q 276 254 258 317 q 325 151 293 192 q 511 74 389 74 q 640 100 582 74 q 735 191 699 126 q 774 372 772 256 l 774 739 q 772 796 774 775 q 760 833 771 817 q 736 847 756 840 q 695 856 717 853 q 663 860 674 860 q 658 880 657 867 q 660 899 658 893 q 733 895 700 897 q 810 893 765 893 q 862 894 842 893 q 903 896 882 894 q 956 899 925 897 q 960 882 958 893 q 956 860 961 871 q 924 857 947 860 q 878 848 900 854 q 850 833 856 842 q 838 799 840 818 q 836 740 836 779 l 836 375 q 792 156 836 240 q 667 33 747 72 q 482 -6 588 -6 q 347 18 410 -6 q 240 85 285 42 q 167 194 193 129 q 140 340 140 260 l 140 736 q 140 794 140 767 q 133 838 139 821 q 112 850 132 846 q 70 856 92 854 q 40 858 49 858 q 35 878 36 864 q 40 897 35 892 q 122 894 82 896 q 200 892 161 892 m 304 1056 q 324 1103 304 1083 q 372 1124 344 1124 q 420 1103 400 1124 q 440 1056 440 1083 q 420 1008 440 1028 q 372 988 400 988 q 324 1008 344 988 q 304 1056 304 1028 m 550 1056 q 570 1103 550 1083 q 618 1124 590 1124 q 666 1103 646 1124 q 686 1056 686 1083 q 666 1008 686 1028 q 618 988 646 988 q 570 1008 590 988 q 550 1056 550 1028 z "},"":{"ha":810,"x_min":-19,"x_max":821,"o":"m 393 1000 q 412 1024 393 1004 q 458 1072 431 1044 q 512 1126 485 1100 q 557 1164 539 1151 q 582 1168 565 1168 q 633 1154 622 1168 q 644 1128 644 1140 q 622 1095 644 1114 q 566 1058 600 1076 q 497 1023 532 1039 q 435 997 461 1007 q 401 988 408 988 q 396 992 399 988 q 393 1000 393 997 m 354 157 l 354 363 q 344 400 354 381 q 292 494 315 454 q 249 571 269 535 q 205 648 228 607 q 151 743 182 689 q 110 801 129 781 q 63 838 90 821 q 22 853 44 849 q -14 858 -1 858 q -19 875 -19 858 q -14 897 -19 892 q 71 894 36 896 q 156 892 106 892 q 247 894 206 892 q 329 897 289 896 q 332 875 332 892 q 326 858 332 858 q 297 855 317 858 q 262 842 278 851 q 246 815 246 833 q 261 775 246 800 l 450 449 q 503 547 475 493 q 556 651 531 600 q 599 742 581 701 q 626 800 618 782 q 629 809 628 803 q 631 821 631 815 q 612 844 631 832 q 536 857 593 857 q 533 876 533 857 q 533 897 532 894 q 601 893 571 896 q 668 890 631 890 q 727 892 704 890 q 771 894 750 893 q 818 897 792 896 q 819 874 821 892 q 815 857 818 857 q 786 855 810 857 q 736 842 763 853 q 694 803 710 831 q 647 719 675 769 q 589 612 619 668 q 530 502 558 556 q 479 408 501 449 q 474 390 474 399 q 474 374 474 382 q 474 367 474 369 q 474 277 474 326 q 473 192 474 228 q 472 157 472 157 q 472 149 472 153 q 472 140 472 144 q 473 92 472 114 q 478 57 474 71 q 500 44 481 50 q 542 37 519 39 q 572 35 564 35 q 577 15 576 29 q 572 -4 578 1 q 492 1 531 -1 q 414 3 454 3 q 335 1 375 3 q 253 -4 294 -1 q 248 15 247 1 q 253 35 249 29 q 283 37 261 35 q 326 44 306 39 q 347 57 346 50 q 353 100 353 74 q 354 157 354 126 z "},"":{"ha":743,"x_min":56,"x_max":703,"o":"m 222 892 q 301 894 263 892 q 381 897 339 896 q 385 878 386 892 q 381 858 385 864 q 350 856 372 858 q 308 850 328 854 q 286 838 289 846 q 281 801 282 824 q 281 753 281 779 q 281 744 281 749 q 281 736 281 740 l 281 651 q 338 677 306 669 q 400 688 371 685 q 440 690 429 690 q 527 674 482 690 q 613 627 572 658 q 678 550 653 596 q 703 446 703 504 q 665 302 703 364 q 560 207 628 240 q 404 174 493 174 q 375 176 393 174 q 346 185 357 179 q 335 194 343 188 q 326 214 326 201 q 333 221 326 222 q 357 215 344 218 q 385 211 369 211 q 522 267 467 211 q 578 424 578 322 q 526 581 578 525 q 390 638 474 638 q 362 634 382 638 q 322 622 342 631 q 290 597 301 614 q 282 553 283 586 q 281 489 281 519 l 281 157 q 281 149 281 153 q 281 140 281 144 q 281 92 281 114 q 286 57 282 71 q 308 44 289 50 q 350 37 328 39 q 381 35 372 35 q 385 15 385 29 q 381 -4 386 1 q 301 1 339 -1 q 222 3 263 3 q 143 1 183 3 q 61 -4 103 -1 q 56 15 56 1 q 61 35 57 29 q 92 37 69 35 q 134 44 114 39 q 156 57 154 50 q 162 100 161 74 q 163 157 163 126 l 163 736 q 162 794 163 767 q 156 838 161 821 q 134 850 154 846 q 92 856 114 854 q 61 858 69 858 q 56 878 57 864 q 61 897 56 892 q 143 894 103 896 q 222 892 183 892 z "},"":{"ha":728,"x_min":33,"x_max":693,"o":"m 363 940 q 481 922 426 940 q 568 865 535 904 q 601 761 601 825 q 577 673 601 710 q 521 607 553 636 q 448 545 482 572 q 414 488 414 518 q 434 437 414 460 q 485 395 454 414 q 547 360 515 376 q 613 320 579 343 q 670 265 647 297 q 693 186 693 233 q 669 88 693 133 q 606 14 646 42 q 514 -14 565 -14 q 408 6 451 -14 q 354 44 365 26 q 355 53 354 49 q 356 63 356 58 q 367 107 358 90 q 400 124 376 124 q 431 105 419 124 q 456 67 442 86 q 481 40 467 51 q 517 29 494 29 q 577 58 553 29 q 601 139 601 88 q 567 211 601 185 q 488 261 532 238 q 417 303 451 281 q 359 358 382 325 q 336 440 336 390 q 369 514 336 483 q 436 583 401 544 q 481 650 463 611 q 500 744 500 689 q 466 853 500 810 q 367 896 432 896 q 294 873 321 896 q 256 812 268 850 q 239 730 243 774 q 235 644 235 686 l 235 157 q 235 100 235 126 q 242 57 236 74 q 263 44 244 50 q 303 37 282 39 q 333 35 325 35 q 338 15 338 29 q 333 -4 339 1 q 257 1 292 -1 q 182 3 222 3 q 112 1 143 3 q 39 -4 81 -1 q 34 15 33 1 q 39 35 35 29 q 67 37 47 35 q 104 44 86 39 q 124 57 122 50 q 130 100 129 74 q 131 157 131 126 l 131 531 l 51 531 q 47 535 49 531 q 46 543 46 540 q 54 556 46 546 q 72 576 63 567 q 81 586 81 586 l 131 586 l 131 594 q 151 718 131 657 q 206 829 172 779 q 281 910 240 879 q 363 940 322 940 z "},"":{"ha":583,"x_min":50,"x_max":567,"o":"m 174 888 q 199 883 189 888 q 211 876 210 878 q 249 826 228 856 q 292 765 271 796 q 328 713 314 735 q 342 688 342 690 q 340 676 342 682 q 331 669 338 669 q 304 683 326 669 q 252 719 282 697 q 193 766 222 742 q 144 813 164 790 q 125 847 125 835 q 132 870 125 853 q 174 888 139 888 m 326 592 q 399 567 365 592 q 454 500 433 542 q 475 406 475 458 l 475 126 q 485 81 475 100 q 517 63 494 63 q 547 71 536 63 q 561 81 558 79 q 565 76 564 81 q 567 69 567 72 q 560 43 567 54 q 533 24 551 36 q 494 1 514 11 q 458 -8 474 -8 q 406 21 429 -8 q 376 81 383 50 q 351 60 371 75 q 304 28 331 44 q 252 1 278 13 q 208 -11 226 -11 q 96 34 142 -11 q 50 144 50 79 q 73 216 50 186 q 118 254 96 246 q 205 284 157 268 q 294 315 253 300 q 356 339 336 331 q 369 349 367 343 q 372 374 372 356 l 372 410 q 357 470 372 440 q 315 520 342 500 q 256 540 289 540 q 204 518 221 540 q 181 456 188 496 q 117 390 168 390 q 83 408 94 390 q 71 447 71 426 q 74 463 71 451 q 81 481 76 475 q 140 526 101 500 q 228 572 179 553 q 326 592 278 592 m 254 63 q 306 74 278 63 q 353 98 333 85 q 372 118 372 111 l 372 303 q 306 282 346 294 q 246 263 265 269 q 186 222 210 249 q 163 157 163 196 q 189 91 163 119 q 254 63 215 63 z "},"":{"ha":583,"x_min":50,"x_max":567,"o":"m 372 888 q 415 870 408 888 q 421 847 421 853 q 401 813 421 835 q 353 766 382 790 q 294 719 324 742 q 242 683 264 697 q 215 669 219 669 q 206 676 208 669 q 204 688 204 682 q 218 713 204 690 q 253 765 232 735 q 297 826 275 796 q 335 876 318 856 q 347 883 336 878 q 372 888 358 888 m 326 592 q 399 567 365 592 q 454 500 433 542 q 475 406 475 458 l 475 126 q 485 81 475 100 q 517 63 494 63 q 547 71 536 63 q 561 81 558 79 q 565 76 564 81 q 567 69 567 72 q 560 43 567 54 q 533 24 551 36 q 494 1 514 11 q 458 -8 474 -8 q 406 21 429 -8 q 376 81 383 50 q 351 60 371 75 q 304 28 331 44 q 252 1 278 13 q 208 -11 226 -11 q 96 34 142 -11 q 50 144 50 79 q 73 216 50 186 q 118 254 96 246 q 205 284 157 268 q 294 315 253 300 q 356 339 336 331 q 369 349 367 343 q 372 374 372 356 l 372 410 q 357 470 372 440 q 315 520 342 500 q 256 540 289 540 q 204 518 221 540 q 181 456 188 496 q 117 390 168 390 q 83 408 94 390 q 71 447 71 426 q 74 463 71 451 q 81 481 76 475 q 140 526 101 500 q 228 572 179 553 q 326 592 278 592 m 254 63 q 306 74 278 63 q 353 98 333 85 q 372 118 372 111 l 372 303 q 306 282 346 294 q 246 263 265 269 q 186 222 210 249 q 163 157 163 196 q 189 91 163 119 q 254 63 215 63 z "},"":{"ha":583,"x_min":50,"x_max":567,"o":"m 300 876 q 315 864 308 876 q 358 799 339 826 q 397 746 376 772 q 443 685 417 719 q 438 672 443 678 q 428 667 433 667 q 373 712 403 688 q 322 753 343 736 q 300 771 300 771 q 278 753 300 771 q 226 710 256 735 q 172 667 196 686 q 158 685 158 667 q 205 746 185 719 q 244 799 225 772 q 285 864 263 826 q 300 876 292 876 m 326 592 q 399 567 365 592 q 454 500 433 542 q 475 406 475 458 l 475 126 q 485 81 475 100 q 517 63 494 63 q 547 71 536 63 q 561 81 558 79 q 565 76 564 81 q 567 69 567 72 q 560 43 567 54 q 533 24 551 36 q 494 1 514 11 q 458 -8 474 -8 q 406 21 429 -8 q 376 81 383 50 q 351 60 371 75 q 304 28 331 44 q 252 1 278 13 q 208 -11 226 -11 q 96 34 142 -11 q 50 144 50 79 q 73 216 50 186 q 118 254 96 246 q 205 284 157 268 q 294 315 253 300 q 356 339 336 331 q 369 349 367 343 q 372 374 372 356 l 372 410 q 357 470 372 440 q 315 520 342 500 q 256 540 289 540 q 204 518 221 540 q 181 456 188 496 q 117 390 168 390 q 83 408 94 390 q 71 447 71 426 q 74 463 71 451 q 81 481 76 475 q 140 526 101 500 q 228 572 179 553 q 326 592 278 592 m 254 63 q 306 74 278 63 q 353 98 333 85 q 372 118 372 111 l 372 303 q 306 282 346 294 q 246 263 265 269 q 186 222 210 249 q 163 157 163 196 q 189 91 163 119 q 254 63 215 63 z "},"":{"ha":583,"x_min":50,"x_max":567,"o":"m 214 797 q 259 788 239 797 q 297 767 279 778 q 339 744 317 754 q 375 733 361 733 q 415 745 400 733 q 438 770 429 757 q 451 786 447 783 q 460 775 460 786 q 453 747 460 761 q 440 722 447 732 q 401 686 422 700 q 357 672 381 672 q 313 682 332 672 q 275 703 294 692 q 235 726 256 715 q 194 736 214 736 q 157 724 171 736 q 137 699 143 713 q 125 683 131 686 q 117 689 119 683 q 114 699 114 694 q 119 726 114 713 q 131 749 125 739 q 214 797 168 797 m 326 592 q 399 567 365 592 q 454 500 433 542 q 475 406 475 458 l 475 126 q 485 81 475 100 q 517 63 494 63 q 547 71 536 63 q 561 81 558 79 q 565 76 564 81 q 567 69 567 72 q 560 43 567 54 q 533 24 551 36 q 494 1 514 11 q 458 -8 474 -8 q 406 21 429 -8 q 376 81 383 50 q 351 60 371 75 q 304 28 331 44 q 252 1 278 13 q 208 -11 226 -11 q 96 34 142 -11 q 50 144 50 79 q 73 216 50 186 q 118 254 96 246 q 205 284 157 268 q 294 315 253 300 q 356 339 336 331 q 369 349 367 343 q 372 374 372 356 l 372 410 q 357 470 372 440 q 315 520 342 500 q 256 540 289 540 q 204 518 221 540 q 181 456 188 496 q 117 390 168 390 q 83 408 94 390 q 71 447 71 426 q 74 463 71 451 q 81 481 76 475 q 140 526 101 500 q 228 572 179 553 q 326 592 278 592 m 254 63 q 306 74 278 63 q 353 98 333 85 q 372 118 372 111 l 372 303 q 306 282 346 294 q 246 263 265 269 q 186 222 210 249 q 163 157 163 196 q 189 91 163 119 q 254 63 215 63 z "},"":{"ha":583,"x_min":50,"x_max":567,"o":"m 151 803 q 195 783 176 803 q 214 739 214 764 q 194 696 214 714 q 150 678 175 678 q 106 697 125 678 q 86 740 86 715 q 106 784 86 765 q 151 803 126 803 m 400 803 q 444 783 425 803 q 463 739 463 764 q 443 696 463 714 q 399 678 424 678 q 354 697 374 678 q 335 740 335 715 q 355 784 335 765 q 400 803 375 803 m 326 592 q 399 567 365 592 q 454 500 433 542 q 475 406 475 458 l 475 126 q 485 81 475 100 q 517 63 494 63 q 547 71 536 63 q 561 81 558 79 q 565 76 564 81 q 567 69 567 72 q 560 43 567 54 q 533 24 551 36 q 494 1 514 11 q 458 -8 474 -8 q 406 21 429 -8 q 376 81 383 50 q 351 60 371 75 q 304 28 331 44 q 252 1 278 13 q 208 -11 226 -11 q 96 34 142 -11 q 50 144 50 79 q 73 216 50 186 q 118 254 96 246 q 205 284 157 268 q 294 315 253 300 q 356 339 336 331 q 369 349 367 343 q 372 374 372 356 l 372 410 q 357 470 372 440 q 315 520 342 500 q 256 540 289 540 q 204 518 221 540 q 181 456 188 496 q 117 390 168 390 q 83 408 94 390 q 71 447 71 426 q 74 463 71 451 q 81 481 76 475 q 140 526 101 500 q 228 572 179 553 q 326 592 278 592 m 254 63 q 306 74 278 63 q 353 98 333 85 q 372 118 372 111 l 372 303 q 306 282 346 294 q 246 263 265 269 q 186 222 210 249 q 163 157 163 196 q 189 91 163 119 q 254 63 215 63 z "},"":{"ha":583,"x_min":50,"x_max":567,"o":"m 185 796 q 220 881 185 846 q 304 917 256 917 q 388 881 353 917 q 422 796 422 846 q 388 710 422 746 q 304 674 353 674 q 220 710 256 674 q 185 796 185 746 m 229 796 q 251 743 229 765 q 304 721 274 721 q 356 743 335 721 q 378 796 378 765 q 356 849 378 828 q 304 871 335 871 q 251 849 274 871 q 229 796 229 828 m 326 592 q 399 567 365 592 q 454 500 433 542 q 475 406 475 458 l 475 126 q 485 81 475 100 q 517 63 494 63 q 547 71 536 63 q 561 81 558 79 q 565 76 564 81 q 567 69 567 72 q 560 43 567 54 q 533 24 551 36 q 494 1 514 11 q 458 -8 474 -8 q 406 21 429 -8 q 376 81 383 50 q 351 60 371 75 q 304 28 331 44 q 252 1 278 13 q 208 -11 226 -11 q 96 34 142 -11 q 50 144 50 79 q 73 216 50 186 q 118 254 96 246 q 205 284 157 268 q 294 315 253 300 q 356 339 336 331 q 369 349 367 343 q 372 374 372 356 l 372 410 q 357 470 372 440 q 315 520 342 500 q 256 540 289 540 q 204 518 221 540 q 181 456 188 496 q 117 390 168 390 q 83 408 94 390 q 71 447 71 426 q 74 463 71 451 q 81 481 76 475 q 140 526 101 500 q 228 572 179 553 q 326 592 278 592 m 254 63 q 306 74 278 63 q 353 98 333 85 q 372 118 372 111 l 372 303 q 306 282 346 294 q 246 263 265 269 q 186 222 210 249 q 163 157 163 196 q 189 91 163 119 q 254 63 215 63 z "},"":{"ha":885,"x_min":50,"x_max":835,"o":"m 624 594 q 724 574 685 594 q 787 522 764 553 q 819 461 810 492 q 828 410 828 431 q 821 364 828 381 q 794 346 814 347 q 745 344 782 344 q 661 342 708 343 q 568 339 614 340 q 490 337 522 338 q 453 336 458 336 q 481 192 451 250 q 563 105 511 133 q 674 76 614 76 q 742 90 711 76 q 794 120 772 103 q 824 147 815 138 q 830 142 825 147 q 835 129 835 138 q 826 104 835 118 q 788 58 814 85 q 721 10 761 31 q 628 -11 681 -11 q 502 17 565 -11 q 404 104 439 46 q 367 72 392 92 q 312 34 342 53 q 254 2 282 15 q 208 -11 226 -11 q 96 34 142 -11 q 50 144 50 79 q 70 213 50 186 q 113 253 90 240 q 191 288 146 269 q 277 322 236 306 q 338 347 318 339 q 357 367 354 354 q 360 387 360 376 q 360 410 360 397 q 348 470 360 440 q 313 520 336 500 q 256 540 289 540 q 204 517 221 540 q 181 454 188 494 q 158 405 175 419 q 117 390 142 390 q 83 408 94 390 q 71 447 71 426 q 81 481 71 468 q 135 522 97 496 q 224 570 174 549 q 324 592 275 592 q 400 565 368 592 q 450 507 432 539 q 519 564 474 533 q 624 594 565 594 m 246 263 q 186 222 210 249 q 163 157 163 196 q 189 91 163 119 q 254 63 215 63 q 308 74 279 63 q 357 103 336 85 q 378 142 378 122 q 363 195 369 160 q 354 261 357 231 q 352 283 353 272 q 351 299 351 293 q 294 279 325 289 q 246 263 264 269 m 601 546 q 531 522 558 546 q 487 466 503 497 q 465 410 471 435 q 460 386 458 386 l 681 386 q 702 393 693 386 q 713 418 711 400 q 703 465 714 435 q 667 521 692 496 q 601 546 643 546 z "},"":{"ha":574,"x_min":53,"x_max":533,"o":"m 326 -31 l 360 -31 q 403 -51 386 -31 q 419 -97 419 -71 q 383 -172 419 -144 q 293 -200 346 -200 q 246 -189 263 -200 q 243 -179 244 -183 q 242 -169 242 -175 q 249 -156 242 -162 q 261 -150 256 -150 q 284 -159 274 -150 q 311 -168 294 -168 q 354 -155 339 -168 q 369 -124 369 -142 q 356 -89 369 -100 q 328 -78 342 -78 q 310 -80 317 -78 q 293 -86 304 -82 q 285 -80 292 -86 q 279 -69 278 -74 q 301 -34 289 -54 q 322 0 314 -14 l 351 0 l 326 -31 m 518 524 q 501 473 518 488 q 467 458 485 458 q 425 478 444 458 q 388 508 406 497 q 351 529 365 524 q 311 535 338 535 q 240 508 275 535 q 181 431 204 481 q 158 308 158 381 q 222 135 158 190 q 378 79 286 79 q 472 106 435 79 q 522 147 508 132 q 528 142 524 147 q 533 129 533 138 q 525 104 533 118 q 486 58 513 85 q 419 10 460 31 q 326 -11 379 -11 q 183 28 244 -11 q 87 129 121 67 q 53 263 53 192 q 84 398 53 338 q 165 503 115 458 q 272 571 214 547 q 382 594 329 594 q 504 561 457 594 q 513 546 508 557 q 518 524 518 535 z "},"":{"ha":582,"x_min":54,"x_max":532,"o":"m 194 888 q 220 883 210 888 q 232 876 231 878 q 270 826 249 856 q 313 765 292 796 q 349 713 335 735 q 363 688 363 690 q 360 676 363 682 q 351 669 358 669 q 325 683 347 669 q 273 719 303 697 q 214 766 243 742 q 165 813 185 790 q 146 847 146 835 q 153 870 146 853 q 194 888 160 888 m 150 336 q 179 192 149 250 q 261 105 210 133 q 372 76 313 76 q 440 90 410 76 q 492 120 471 103 q 521 147 513 138 q 527 142 522 147 q 532 129 532 138 q 524 104 532 118 q 485 58 511 85 q 418 10 458 31 q 325 -11 378 -11 q 185 26 246 -11 q 89 128 124 64 q 54 271 54 192 q 78 398 54 339 q 142 501 103 457 q 229 569 182 544 q 321 594 276 594 q 422 574 382 594 q 484 522 461 553 q 516 461 507 492 q 525 410 525 431 q 518 364 525 381 q 492 346 511 347 q 442 344 479 344 q 358 342 406 343 q 265 339 311 340 q 188 337 219 338 q 150 336 156 336 m 157 386 l 378 386 q 399 393 390 386 q 410 418 408 400 q 400 465 411 435 q 365 521 389 496 q 299 546 340 546 q 228 522 256 546 q 184 466 200 497 q 162 410 168 435 q 157 386 156 386 z "},"":{"ha":582,"x_min":54,"x_max":532,"o":"m 407 888 q 449 870 443 888 q 456 847 456 853 q 436 813 456 835 q 388 766 417 790 q 328 719 358 742 q 276 683 299 697 q 250 669 254 669 q 241 676 243 669 q 239 688 239 682 q 253 713 239 690 q 288 765 267 735 q 331 826 310 796 q 369 876 353 856 q 382 883 371 878 q 407 888 393 888 m 150 336 q 179 192 149 250 q 261 105 210 133 q 372 76 313 76 q 440 90 410 76 q 492 120 471 103 q 521 147 513 138 q 527 142 522 147 q 532 129 532 138 q 524 104 532 118 q 485 58 511 85 q 418 10 458 31 q 325 -11 378 -11 q 185 26 246 -11 q 89 128 124 64 q 54 271 54 192 q 78 398 54 339 q 142 501 103 457 q 229 569 182 544 q 321 594 276 594 q 422 574 382 594 q 484 522 461 553 q 516 461 507 492 q 525 410 525 431 q 518 364 525 381 q 492 346 511 347 q 442 344 479 344 q 358 342 406 343 q 265 339 311 340 q 188 337 219 338 q 150 336 156 336 m 157 386 l 378 386 q 399 393 390 386 q 410 418 408 400 q 400 465 411 435 q 365 521 389 496 q 299 546 340 546 q 228 522 256 546 q 184 466 200 497 q 162 410 168 435 q 157 386 156 386 z "},"":{"ha":582,"x_min":54,"x_max":532,"o":"m 303 876 q 318 864 311 876 q 360 799 342 826 q 399 746 379 772 q 446 685 419 719 q 441 672 446 678 q 431 667 436 667 q 376 712 406 688 q 324 753 346 736 q 303 771 303 771 q 281 753 303 771 q 228 710 258 735 q 175 667 199 686 q 161 685 161 667 q 208 746 188 719 q 247 799 228 772 q 288 864 265 826 q 303 876 294 876 m 150 336 q 179 192 149 250 q 261 105 210 133 q 372 76 313 76 q 440 90 410 76 q 492 120 471 103 q 521 147 513 138 q 527 142 522 147 q 532 129 532 138 q 524 104 532 118 q 485 58 511 85 q 418 10 458 31 q 325 -11 378 -11 q 185 26 246 -11 q 89 128 124 64 q 54 271 54 192 q 78 398 54 339 q 142 501 103 457 q 229 569 182 544 q 321 594 276 594 q 422 574 382 594 q 484 522 461 553 q 516 461 507 492 q 525 410 525 431 q 518 364 525 381 q 492 346 511 347 q 442 344 479 344 q 358 342 406 343 q 265 339 311 340 q 188 337 219 338 q 150 336 156 336 m 157 386 l 378 386 q 399 393 390 386 q 410 418 408 400 q 400 465 411 435 q 365 521 389 496 q 299 546 340 546 q 228 522 256 546 q 184 466 200 497 q 162 410 168 435 q 157 386 156 386 z "},"":{"ha":582,"x_min":54,"x_max":532,"o":"m 190 803 q 234 783 215 803 q 253 739 253 764 q 233 696 253 714 q 189 678 214 678 q 144 697 164 678 q 125 740 125 715 q 145 784 125 765 q 190 803 165 803 m 439 803 q 483 783 464 803 q 501 739 501 764 q 482 696 501 714 q 438 678 463 678 q 393 697 413 678 q 374 740 374 715 q 394 784 374 765 q 439 803 414 803 m 150 336 q 179 192 149 250 q 261 105 210 133 q 372 76 313 76 q 440 90 410 76 q 492 120 471 103 q 521 147 513 138 q 527 142 522 147 q 532 129 532 138 q 524 104 532 118 q 485 58 511 85 q 418 10 458 31 q 325 -11 378 -11 q 185 26 246 -11 q 89 128 124 64 q 54 271 54 192 q 78 398 54 339 q 142 501 103 457 q 229 569 182 544 q 321 594 276 594 q 422 574 382 594 q 484 522 461 553 q 516 461 507 492 q 525 410 525 431 q 518 364 525 381 q 492 346 511 347 q 442 344 479 344 q 358 342 406 343 q 265 339 311 340 q 188 337 219 338 q 150 336 156 336 m 157 386 l 378 386 q 399 393 390 386 q 410 418 408 400 q 400 465 411 435 q 365 521 389 496 q 299 546 340 546 q 228 522 256 546 q 184 466 200 497 q 162 410 168 435 q 157 386 156 386 z "},"":{"ha":365,"x_min":28,"x_max":343,"o":"m 76 888 q 102 883 92 888 q 114 876 113 878 q 152 826 131 856 q 195 765 174 796 q 231 713 217 735 q 244 688 244 690 q 242 676 244 682 q 233 669 240 669 q 207 683 229 669 q 155 719 185 697 q 96 766 125 742 q 47 813 67 790 q 28 847 28 835 q 35 870 28 853 q 76 888 42 888 m 246 157 q 247 100 246 126 q 253 57 247 74 q 273 44 256 50 q 310 37 290 39 q 338 35 329 35 q 342 15 342 29 q 338 -4 343 1 q 265 1 296 -1 q 193 3 233 3 q 122 1 154 3 q 49 -4 90 -1 q 44 15 43 1 q 49 35 44 29 q 77 37 57 35 q 115 44 97 39 q 135 57 133 50 q 141 100 140 74 q 142 157 142 126 l 142 410 q 141 446 142 424 q 135 481 140 468 q 111 498 131 493 q 72 503 92 503 q 47 504 53 504 q 44 521 46 507 q 47 540 43 535 q 150 561 100 547 q 240 597 200 575 q 251 589 246 597 q 256 575 256 581 q 253 551 256 571 q 248 513 250 532 q 246 486 246 493 l 246 157 z "},"":{"ha":365,"x_min":43,"x_max":343,"o":"m 282 888 q 324 870 318 888 q 331 847 331 853 q 311 813 331 835 q 263 766 292 790 q 203 719 233 742 q 151 683 174 697 q 125 669 129 669 q 116 676 118 669 q 114 688 114 682 q 128 713 114 690 q 163 765 142 735 q 206 826 185 796 q 244 876 228 856 q 257 883 246 878 q 282 888 268 888 m 246 157 q 247 100 246 126 q 253 57 247 74 q 273 44 256 50 q 310 37 290 39 q 338 35 329 35 q 342 15 342 29 q 338 -4 343 1 q 265 1 296 -1 q 193 3 233 3 q 122 1 154 3 q 49 -4 90 -1 q 44 15 43 1 q 49 35 44 29 q 77 37 57 35 q 115 44 97 39 q 135 57 133 50 q 141 100 140 74 q 142 157 142 126 l 142 410 q 141 446 142 424 q 135 481 140 468 q 111 498 131 493 q 72 503 92 503 q 47 504 53 504 q 44 521 46 507 q 47 540 43 535 q 150 561 100 547 q 240 597 200 575 q 251 589 246 597 q 256 575 256 581 q 253 551 256 571 q 248 513 250 532 q 246 486 246 493 l 246 157 z "},"":{"ha":365,"x_min":43,"x_max":354,"o":"m 211 876 q 226 864 219 876 q 269 799 250 826 q 308 746 288 772 q 354 685 328 719 q 349 672 354 678 q 339 667 344 667 q 284 712 314 688 q 233 753 254 736 q 211 771 211 771 q 189 753 211 771 q 137 710 167 735 q 83 667 107 686 q 69 685 69 667 q 116 746 96 719 q 155 799 136 772 q 196 864 174 826 q 211 876 203 876 m 246 157 q 247 100 246 126 q 253 57 247 74 q 273 44 256 50 q 310 37 290 39 q 338 35 329 35 q 342 15 342 29 q 338 -4 343 1 q 265 1 296 -1 q 193 3 233 3 q 122 1 154 3 q 49 -4 90 -1 q 44 15 43 1 q 49 35 44 29 q 77 37 57 35 q 115 44 97 39 q 135 57 133 50 q 141 100 140 74 q 142 157 142 126 l 142 410 q 141 446 142 424 q 135 481 140 468 q 111 498 131 493 q 72 503 92 503 q 47 504 53 504 q 44 521 46 507 q 47 540 43 535 q 150 561 100 547 q 240 597 200 575 q 251 589 246 597 q 256 575 256 581 q 253 551 256 571 q 248 513 250 532 q 246 486 246 493 l 246 157 z "},"":{"ha":368,"x_min":10,"x_max":363,"o":"m 246 157 q 247 100 246 126 q 253 57 247 74 q 273 44 256 50 q 310 37 290 39 q 338 35 329 35 q 342 15 342 29 q 338 -4 343 1 q 265 1 296 -1 q 193 3 233 3 q 122 1 154 3 q 49 -4 90 -1 q 44 15 43 1 q 49 35 44 29 q 77 37 57 35 q 115 44 97 39 q 135 57 133 50 q 141 100 140 74 q 142 157 142 126 l 142 410 q 141 446 142 424 q 135 481 140 468 q 111 498 131 493 q 72 503 92 503 q 47 504 53 504 q 44 521 46 507 q 47 540 43 535 q 150 561 100 547 q 240 597 200 575 q 251 589 246 597 q 256 575 256 581 q 253 551 256 571 q 248 513 250 532 q 246 486 246 493 l 246 157 m 79 807 q 126 787 107 807 q 146 739 146 767 q 126 693 146 713 q 78 674 106 674 q 31 694 51 674 q 10 740 10 714 q 31 788 10 768 q 79 807 53 807 m 297 807 q 344 787 325 807 q 363 739 363 767 q 343 693 363 713 q 296 674 324 674 q 249 694 269 674 q 228 740 228 714 q 249 788 228 768 q 297 807 271 807 z "},"":{"ha":700,"x_min":54,"x_max":626,"o":"m 469 949 q 489 928 478 943 q 493 906 500 913 l 363 817 q 471 714 422 771 q 583 536 540 633 q 626 335 626 439 q 586 148 626 225 q 483 31 546 71 q 347 -10 419 -10 q 190 31 256 -10 q 89 138 124 71 q 54 286 54 206 q 72 395 54 340 q 124 496 89 450 q 211 569 158 542 q 335 596 264 596 q 397 591 364 596 q 450 574 429 586 q 406 669 435 613 q 310 782 376 725 l 174 690 q 155 712 167 696 q 150 733 143 728 l 269 814 q 198 858 238 836 q 110 900 158 881 q 115 920 110 907 q 129 933 121 933 q 319 847 224 913 l 469 949 m 318 550 q 232 515 264 550 q 185 426 200 481 q 171 308 171 371 q 193 179 171 242 q 256 76 215 117 q 351 35 297 35 q 440 67 406 35 q 492 153 475 99 q 508 274 508 207 q 501 377 508 331 q 482 446 493 424 q 318 550 428 550 z "},"":{"ha":721,"x_min":43,"x_max":710,"o":"m 286 800 q 331 790 311 800 q 369 769 351 781 q 411 747 389 757 q 447 736 433 736 q 487 748 472 736 q 510 773 501 760 q 524 789 519 786 q 532 778 532 789 q 526 749 532 764 q 513 725 519 735 q 474 689 494 703 q 429 675 453 675 q 385 685 404 675 q 347 706 367 694 q 307 728 328 718 q 267 739 286 739 q 229 727 243 739 q 209 702 215 715 q 197 686 203 689 q 189 692 192 686 q 186 701 186 697 q 192 728 186 715 q 203 751 197 742 q 286 800 240 800 m 438 594 q 549 564 511 594 q 599 469 586 533 q 613 307 613 406 l 613 157 q 613 100 613 126 q 619 57 614 74 q 640 44 622 50 q 676 37 657 39 q 704 35 696 35 q 709 15 708 29 q 704 -4 710 1 q 631 1 663 -1 q 560 3 600 3 q 489 1 521 3 q 415 -4 457 -1 q 410 15 410 1 q 415 35 411 29 q 444 37 424 35 q 482 44 464 39 q 501 57 500 50 q 508 100 507 74 q 508 157 508 126 l 508 293 q 497 426 508 378 q 457 494 486 474 q 375 515 428 515 q 320 499 350 515 q 268 465 290 483 q 246 440 246 447 l 246 157 q 247 100 246 126 q 253 57 247 74 q 273 44 256 50 q 310 37 290 39 q 338 35 329 35 q 342 15 342 29 q 338 -4 343 1 q 265 1 296 -1 q 193 3 233 3 q 122 1 154 3 q 49 -4 90 -1 q 44 15 43 1 q 49 35 44 29 q 77 37 57 35 q 115 44 97 39 q 135 57 133 50 q 141 100 140 74 q 142 157 142 126 l 142 404 q 141 443 142 418 q 135 481 140 468 q 111 498 131 493 q 72 503 92 503 q 47 504 53 504 q 44 521 46 507 q 47 540 43 535 q 150 561 100 547 q 240 597 200 575 q 251 589 246 597 q 256 575 256 581 q 253 553 256 571 q 249 519 251 536 q 247 497 247 503 q 250 492 247 492 q 254 494 251 492 q 299 533 268 510 q 368 576 331 557 q 438 594 406 594 z "},"":{"ha":690,"x_min":56,"x_max":635,"o":"m 264 888 q 290 883 279 888 q 301 876 300 878 q 340 826 318 856 q 383 765 361 796 q 418 713 404 735 q 432 688 432 690 q 430 676 432 682 q 421 669 428 669 q 394 683 417 669 q 342 719 372 697 q 283 766 313 742 q 235 813 254 790 q 215 847 215 835 q 222 870 215 853 q 264 888 229 888 m 344 596 q 499 557 435 596 q 599 451 564 518 q 635 300 635 385 q 597 142 635 213 q 494 31 560 72 q 347 -10 429 -10 q 192 30 258 -10 q 91 137 126 69 q 56 289 56 204 q 94 446 56 376 q 197 556 132 515 q 344 596 263 596 m 329 550 q 238 516 272 550 q 188 428 203 482 q 172 317 172 375 q 194 186 172 251 q 258 78 215 121 q 361 35 300 35 q 453 69 419 35 q 503 157 488 103 q 518 268 518 211 q 496 399 518 335 q 432 507 474 464 q 329 550 390 550 z "},"":{"ha":690,"x_min":56,"x_max":635,"o":"m 458 888 q 501 870 494 888 q 507 847 507 853 q 488 813 507 835 q 439 766 468 790 q 380 719 410 742 q 328 683 350 697 q 301 669 306 669 q 292 676 294 669 q 290 688 290 682 q 304 713 290 690 q 340 765 318 735 q 383 826 361 796 q 421 876 404 856 q 433 883 422 878 q 458 888 444 888 m 344 596 q 499 557 435 596 q 599 451 564 518 q 635 300 635 385 q 597 142 635 213 q 494 31 560 72 q 347 -10 429 -10 q 192 30 258 -10 q 91 137 126 69 q 56 289 56 204 q 94 446 56 376 q 197 556 132 515 q 344 596 263 596 m 329 550 q 238 516 272 550 q 188 428 203 482 q 172 317 172 375 q 194 186 172 251 q 258 78 215 121 q 361 35 300 35 q 453 69 419 35 q 503 157 488 103 q 518 268 518 211 q 496 399 518 335 q 432 507 474 464 q 329 550 390 550 z "},"":{"ha":690,"x_min":56,"x_max":635,"o":"m 349 876 q 364 864 357 876 q 406 799 388 826 q 445 746 425 772 q 492 685 465 719 q 487 672 492 678 q 476 667 482 667 q 422 712 451 688 q 370 753 392 736 q 349 771 349 771 q 326 753 349 771 q 274 710 304 735 q 221 667 244 686 q 207 685 207 667 q 253 746 233 719 q 292 799 274 772 q 333 864 311 826 q 349 876 340 876 m 344 596 q 499 557 435 596 q 599 451 564 518 q 635 300 635 385 q 597 142 635 213 q 494 31 560 72 q 347 -10 429 -10 q 192 30 258 -10 q 91 137 126 69 q 56 289 56 204 q 94 446 56 376 q 197 556 132 515 q 344 596 263 596 m 329 550 q 238 516 272 550 q 188 428 203 482 q 172 317 172 375 q 194 186 172 251 q 258 78 215 121 q 361 35 300 35 q 453 69 419 35 q 503 157 488 103 q 518 268 518 211 q 496 399 518 335 q 432 507 474 464 q 329 550 390 550 z "},"":{"ha":690,"x_min":56,"x_max":635,"o":"m 279 799 q 324 789 304 799 q 363 768 344 779 q 404 745 382 756 q 440 735 426 735 q 480 747 465 735 q 503 772 494 758 q 517 788 513 785 q 525 776 525 788 q 519 748 525 763 q 506 724 513 733 q 467 688 488 701 q 422 674 446 674 q 378 683 397 674 q 340 704 360 693 q 300 727 321 717 q 260 738 279 738 q 222 726 236 738 q 202 701 208 714 q 190 685 196 688 q 182 690 185 685 q 179 700 179 696 q 185 727 179 714 q 196 750 190 740 q 279 799 233 799 m 344 596 q 499 557 435 596 q 599 451 564 518 q 635 300 635 385 q 597 142 635 213 q 494 31 560 72 q 347 -10 429 -10 q 192 30 258 -10 q 91 137 126 69 q 56 289 56 204 q 94 446 56 376 q 197 556 132 515 q 344 596 263 596 m 329 550 q 238 516 272 550 q 188 428 203 482 q 172 317 172 375 q 194 186 172 251 q 258 78 215 121 q 361 35 300 35 q 453 69 419 35 q 503 157 488 103 q 518 268 518 211 q 496 399 518 335 q 432 507 474 464 q 329 550 390 550 z "},"":{"ha":690,"x_min":56,"x_max":635,"o":"m 222 803 q 266 783 247 803 q 285 739 285 764 q 265 696 285 714 q 221 678 246 678 q 176 697 196 678 q 157 740 157 715 q 177 784 157 765 q 222 803 197 803 m 471 803 q 515 783 496 803 q 533 739 533 764 q 514 696 533 714 q 469 678 494 678 q 425 697 444 678 q 406 740 406 715 q 426 784 406 765 q 471 803 446 803 m 344 596 q 499 557 435 596 q 599 451 564 518 q 635 300 635 385 q 597 142 635 213 q 494 31 560 72 q 347 -10 429 -10 q 192 30 258 -10 q 91 137 126 69 q 56 289 56 204 q 94 446 56 376 q 197 556 132 515 q 344 596 263 596 m 329 550 q 238 516 272 550 q 188 428 203 482 q 172 317 172 375 q 194 186 172 251 q 258 78 215 121 q 361 35 300 35 q 453 69 419 35 q 503 157 488 103 q 518 268 518 211 q 496 399 518 335 q 432 507 474 464 q 329 550 390 550 z "},"":{"ha":811,"x_min":82,"x_max":732,"o":"m 89 297 q 85 299 89 297 q 82 311 82 301 q 84 327 82 314 q 92 354 86 340 q 104 374 97 368 l 721 374 q 732 357 732 374 q 711 297 732 318 l 89 297 m 342 594 q 362 642 342 622 q 410 663 382 663 q 458 642 438 663 q 478 594 478 622 q 458 547 478 567 q 410 526 438 526 q 362 547 382 526 q 342 594 342 567 m 342 75 q 362 123 342 103 q 410 143 382 143 q 458 123 438 143 q 478 75 478 103 q 458 27 478 47 q 410 7 438 7 q 362 27 382 7 q 342 75 342 47 z "},"":{"ha":690,"x_min":57,"x_max":636,"o":"m 175 -11 q 151 3 167 -7 q 139 18 136 13 l 161 53 q 57 289 57 138 q 95 446 57 376 q 199 556 133 515 q 346 596 264 596 q 486 565 424 596 l 504 593 q 528 581 511 590 q 542 565 544 572 l 526 540 q 608 439 579 501 q 636 300 636 376 q 599 142 636 213 q 496 31 561 72 q 349 -10 431 -10 q 199 26 265 -10 l 175 -11 m 472 456 l 243 96 q 296 51 265 68 q 363 35 326 35 q 455 69 421 35 q 504 157 489 103 q 519 268 519 211 q 508 366 519 317 q 472 456 496 415 m 331 550 q 239 516 274 550 q 189 428 204 482 q 174 317 174 375 q 184 224 174 271 q 215 139 194 178 l 443 496 q 392 535 421 521 q 331 550 364 550 z "},"":{"ha":697,"x_min":18,"x_max":672,"o":"m 224 888 q 249 883 239 888 q 261 876 260 878 q 299 826 278 856 q 342 765 321 796 q 378 713 364 735 q 392 688 392 690 q 390 676 392 682 q 381 669 388 669 q 354 683 376 669 q 302 719 332 697 q 243 766 272 742 q 194 813 214 790 q 175 847 175 835 q 182 870 175 853 q 224 888 189 888 m 474 433 q 474 439 474 435 q 472 473 474 453 q 464 507 471 493 q 428 531 454 526 q 388 535 401 535 q 384 551 385 538 q 388 569 383 564 q 489 579 440 572 q 574 597 538 586 q 583 583 579 597 q 588 564 588 569 q 581 531 583 556 q 579 476 579 506 l 579 192 q 581 148 579 181 q 588 88 582 115 q 619 68 592 71 q 660 64 646 65 q 668 64 667 64 q 672 57 671 63 q 672 49 672 51 q 669 38 672 47 q 661 28 667 28 q 585 17 626 26 q 515 -2 544 7 q 485 -11 486 -11 q 476 -3 479 -11 q 474 11 474 4 l 474 74 q 472 80 474 79 q 471 81 471 81 q 421 40 453 61 q 351 4 389 18 q 279 -10 314 -10 q 192 16 225 -10 q 140 83 158 42 q 116 171 122 124 q 110 261 110 218 l 110 433 q 108 469 110 447 q 99 507 107 492 q 63 531 89 526 q 22 535 36 535 q 19 551 19 538 q 22 569 18 564 q 124 579 75 572 q 208 597 172 586 q 219 586 214 597 q 224 569 224 575 q 217 533 219 561 q 214 476 214 506 l 214 276 q 247 117 214 168 q 350 67 279 67 q 408 78 381 67 q 455 108 436 90 q 474 142 474 126 l 474 433 z "},"":{"ha":697,"x_min":18,"x_max":672,"o":"m 467 888 q 509 870 503 888 q 515 847 515 853 q 496 813 515 835 q 447 766 476 790 q 388 719 418 742 q 336 683 358 697 q 310 669 314 669 q 301 676 303 669 q 299 688 299 682 q 313 713 299 690 q 348 765 326 735 q 391 826 369 796 q 429 876 413 856 q 442 883 431 878 q 467 888 453 888 m 474 433 q 474 439 474 435 q 472 473 474 453 q 464 507 471 493 q 428 531 454 526 q 388 535 401 535 q 384 551 385 538 q 388 569 383 564 q 489 579 440 572 q 574 597 538 586 q 583 583 579 597 q 588 564 588 569 q 581 531 583 556 q 579 476 579 506 l 579 192 q 581 148 579 181 q 588 88 582 115 q 619 68 592 71 q 660 64 646 65 q 668 64 667 64 q 672 57 671 63 q 672 49 672 51 q 669 38 672 47 q 661 28 667 28 q 585 17 626 26 q 515 -2 544 7 q 485 -11 486 -11 q 476 -3 479 -11 q 474 11 474 4 l 474 74 q 472 80 474 79 q 471 81 471 81 q 421 40 453 61 q 351 4 389 18 q 279 -10 314 -10 q 192 16 225 -10 q 140 83 158 42 q 116 171 122 124 q 110 261 110 218 l 110 433 q 108 469 110 447 q 99 507 107 492 q 63 531 89 526 q 22 535 36 535 q 19 551 19 538 q 22 569 18 564 q 124 579 75 572 q 208 597 172 586 q 219 586 214 597 q 224 569 224 575 q 217 533 219 561 q 214 476 214 506 l 214 276 q 247 117 214 168 q 350 67 279 67 q 408 78 381 67 q 455 108 436 90 q 474 142 474 126 l 474 433 z "},"":{"ha":697,"x_min":18,"x_max":672,"o":"m 344 876 q 360 864 353 876 q 402 799 383 826 q 441 746 421 772 q 488 685 461 719 q 483 672 488 678 q 472 667 478 667 q 417 712 447 688 q 366 753 388 736 q 344 771 344 771 q 322 753 344 771 q 270 710 300 735 q 217 667 240 686 q 203 685 203 667 q 249 746 229 719 q 288 799 269 772 q 329 864 307 826 q 344 876 336 876 m 474 433 q 474 439 474 435 q 472 473 474 453 q 464 507 471 493 q 428 531 454 526 q 388 535 401 535 q 384 551 385 538 q 388 569 383 564 q 489 579 440 572 q 574 597 538 586 q 583 583 579 597 q 588 564 588 569 q 581 531 583 556 q 579 476 579 506 l 579 192 q 581 148 579 181 q 588 88 582 115 q 619 68 592 71 q 660 64 646 65 q 668 64 667 64 q 672 57 671 63 q 672 49 672 51 q 669 38 672 47 q 661 28 667 28 q 585 17 626 26 q 515 -2 544 7 q 485 -11 486 -11 q 476 -3 479 -11 q 474 11 474 4 l 474 74 q 472 80 474 79 q 471 81 471 81 q 421 40 453 61 q 351 4 389 18 q 279 -10 314 -10 q 192 16 225 -10 q 140 83 158 42 q 116 171 122 124 q 110 261 110 218 l 110 433 q 108 469 110 447 q 99 507 107 492 q 63 531 89 526 q 22 535 36 535 q 19 551 19 538 q 22 569 18 564 q 124 579 75 572 q 208 597 172 586 q 219 586 214 597 q 224 569 224 575 q 217 533 219 561 q 214 476 214 506 l 214 276 q 247 117 214 168 q 350 67 279 67 q 408 78 381 67 q 455 108 436 90 q 474 142 474 126 l 474 433 z "},"":{"ha":697,"x_min":18,"x_max":672,"o":"m 208 803 q 252 783 233 803 q 271 739 271 764 q 251 696 271 714 q 207 678 232 678 q 163 697 182 678 q 143 740 143 715 q 163 784 143 765 q 208 803 183 803 m 457 803 q 501 783 482 803 q 519 739 519 764 q 500 696 519 714 q 456 678 481 678 q 411 697 431 678 q 392 740 392 715 q 412 784 392 765 q 457 803 432 803 m 474 433 q 474 439 474 435 q 472 473 474 453 q 464 507 471 493 q 428 531 454 526 q 388 535 401 535 q 384 551 385 538 q 388 569 383 564 q 489 579 440 572 q 574 597 538 586 q 583 583 579 597 q 588 564 588 569 q 581 531 583 556 q 579 476 579 506 l 579 192 q 581 148 579 181 q 588 88 582 115 q 619 68 592 71 q 660 64 646 65 q 668 64 667 64 q 672 57 671 63 q 672 49 672 51 q 669 38 672 47 q 661 28 667 28 q 585 17 626 26 q 515 -2 544 7 q 485 -11 486 -11 q 476 -3 479 -11 q 474 11 474 4 l 474 74 q 472 80 474 79 q 471 81 471 81 q 421 40 453 61 q 351 4 389 18 q 279 -10 314 -10 q 192 16 225 -10 q 140 83 158 42 q 116 171 122 124 q 110 261 110 218 l 110 433 q 108 469 110 447 q 99 507 107 492 q 63 531 89 526 q 22 535 36 535 q 19 551 19 538 q 22 569 18 564 q 124 579 75 572 q 208 597 172 586 q 219 586 214 597 q 224 569 224 575 q 217 533 219 561 q 214 476 214 506 l 214 276 q 247 117 214 168 q 350 67 279 67 q 408 78 381 67 q 455 108 436 90 q 474 142 474 126 l 474 433 z "},"":{"ha":636,"x_min":0,"x_max":638,"o":"m 483 888 q 526 870 519 888 q 532 847 532 853 q 513 813 532 835 q 464 766 493 790 q 405 719 435 742 q 353 683 375 697 q 326 669 331 669 q 317 676 319 669 q 315 688 315 682 q 329 713 315 690 q 365 765 343 735 q 408 826 386 796 q 446 876 429 856 q 458 883 447 878 q 483 888 469 888 m 138 576 q 216 579 176 576 q 274 583 256 582 q 275 561 276 578 q 268 544 274 544 q 247 543 264 544 q 216 537 231 542 q 201 521 201 532 q 203 515 201 518 l 347 149 q 358 178 347 149 q 388 255 369 208 q 426 356 406 301 q 467 457 447 410 q 474 481 472 469 q 475 500 475 493 q 453 533 475 521 q 397 544 432 544 q 392 561 392 544 q 397 583 392 578 q 445 579 413 582 q 519 576 478 576 q 585 579 558 576 q 633 583 613 582 q 635 561 638 578 q 629 544 633 544 q 606 540 624 544 q 570 526 589 536 q 543 497 551 517 q 488 367 513 425 q 441 253 464 308 q 394 140 418 199 q 340 8 369 81 q 292 -117 315 -54 q 232 -233 268 -179 q 178 -289 210 -268 q 114 -310 147 -310 q 75 -299 94 -310 q 56 -251 56 -287 q 60 -228 56 -239 q 71 -211 65 -217 q 127 -208 103 -211 q 174 -187 151 -204 q 225 -135 197 -171 q 250 -90 236 -119 q 276 -32 264 -60 q 289 3 288 -4 q 218 184 251 100 q 151 349 185 268 q 76 517 117 431 q 42 541 67 538 q 4 544 17 544 q 1 544 1 544 q 0 563 0 544 q 1 583 0 582 q 58 579 21 582 q 138 576 96 576 z "},"":{"ha":671,"x_min":-1,"x_max":619,"o":"m 374 594 q 483 568 436 594 q 560 499 529 542 q 605 408 590 456 q 619 315 619 360 q 592 191 619 250 q 517 87 564 132 q 415 15 471 42 q 301 -11 358 -11 q 249 -6 275 -11 q 207 4 224 -1 q 204 -1 207 4 q 201 -14 201 -6 l 201 -144 q 202 -202 201 -175 q 208 -246 203 -229 q 228 -258 211 -253 q 265 -265 246 -262 q 293 -267 285 -267 q 298 -287 297 -272 q 293 -307 299 -301 q 220 -302 251 -304 q 149 -300 189 -300 q 78 -302 110 -300 q 4 -307 46 -304 q -1 -287 -1 -301 q 4 -267 0 -272 q 33 -265 13 -267 q 71 -258 53 -262 q 90 -246 89 -253 q 97 -202 96 -229 q 97 -144 97 -175 l 97 757 q 97 794 97 772 q 90 828 96 815 q 60 847 85 843 q 7 851 35 851 q 5 869 6 851 q 8 888 4 886 q 109 908 60 893 q 201 942 158 922 q 212 934 207 942 q 217 919 217 926 q 209 889 217 919 q 201 801 201 858 l 201 521 q 202 517 201 519 q 204 514 203 514 q 208 517 206 514 q 253 550 225 532 q 315 581 282 568 q 374 594 347 594 m 315 514 q 261 505 288 514 q 218 483 235 496 q 201 461 201 471 l 201 136 q 223 79 201 101 q 274 47 244 57 q 328 36 304 36 q 424 70 385 36 q 485 157 464 104 q 506 264 506 210 q 449 449 506 385 q 315 514 393 514 z "},"":{"ha":636,"x_min":0,"x_max":638,"o":"m 218 803 q 262 783 243 803 q 281 739 281 764 q 261 696 281 714 q 217 678 242 678 q 172 697 192 678 q 153 740 153 715 q 173 784 153 765 q 218 803 193 803 m 467 803 q 510 783 492 803 q 529 739 529 764 q 510 696 529 714 q 465 678 490 678 q 421 697 440 678 q 401 740 401 715 q 422 784 401 765 q 467 803 442 803 m 138 576 q 216 579 176 576 q 274 583 256 582 q 275 561 276 578 q 268 544 274 544 q 247 543 264 544 q 216 537 231 542 q 201 521 201 532 q 203 515 201 518 l 347 149 q 358 178 347 149 q 388 255 369 208 q 426 356 406 301 q 467 457 447 410 q 474 481 472 469 q 475 500 475 493 q 453 533 475 521 q 397 544 432 544 q 392 561 392 544 q 397 583 392 578 q 445 579 413 582 q 519 576 478 576 q 585 579 558 576 q 633 583 613 582 q 635 561 638 578 q 629 544 633 544 q 606 540 624 544 q 570 526 589 536 q 543 497 551 517 q 488 367 513 425 q 441 253 464 308 q 394 140 418 199 q 340 8 369 81 q 292 -117 315 -54 q 232 -233 268 -179 q 178 -289 210 -268 q 114 -310 147 -310 q 75 -299 94 -310 q 56 -251 56 -287 q 60 -228 56 -239 q 71 -211 65 -217 q 127 -208 103 -211 q 174 -187 151 -204 q 225 -135 197 -171 q 250 -90 236 -119 q 276 -32 264 -60 q 289 3 288 -4 q 218 184 251 100 q 151 349 185 268 q 76 517 117 431 q 42 541 67 538 q 4 544 17 544 q 1 544 1 544 q 0 563 0 544 q 1 583 0 582 q 58 579 21 582 q 138 576 96 576 z "},"":{"ha":850,"x_min":-19,"x_max":860,"o":"m 596 1025 q 506 1025 565 1025 q 380 1025 446 1025 q 263 1025 314 1025 q 256 1040 256 1028 q 260 1065 256 1053 q 271 1082 265 1078 q 306 1082 271 1082 q 393 1082 340 1082 q 503 1082 446 1082 q 604 1082 560 1082 q 609 1056 611 1076 q 596 1025 607 1036 m 129 189 q 142 223 129 189 q 178 315 156 257 q 228 445 200 374 q 286 592 257 517 q 342 738 315 668 q 390 860 369 807 q 415 885 396 871 q 443 899 433 899 q 447 898 446 899 q 450 896 447 897 l 726 171 q 761 82 757 90 q 788 56 768 67 q 828 40 808 44 q 854 35 849 35 q 858 13 860 28 q 856 -4 857 -1 q 783 1 815 -1 q 707 3 751 3 q 628 1 660 3 q 550 -4 597 -1 q 545 15 544 1 q 551 35 546 29 q 590 40 564 35 q 626 53 617 44 q 632 72 632 58 q 623 115 632 85 q 600 182 614 144 q 572 255 586 219 q 549 313 558 290 q 540 336 540 336 q 538 339 540 336 q 532 342 535 342 q 481 343 511 343 q 424 343 450 343 q 410 343 417 343 q 397 343 403 343 q 326 342 356 343 q 251 339 297 342 q 247 337 250 339 q 244 335 244 335 q 234 307 244 335 q 209 241 224 279 q 183 169 194 203 q 167 111 171 135 q 164 74 164 88 q 185 49 164 58 q 230 38 207 40 q 258 35 253 35 q 263 17 261 32 q 261 -4 264 3 q 216 -1 235 -3 q 178 1 197 0 q 129 3 160 3 q 78 1 99 3 q 36 -1 57 0 q -17 -4 15 -3 q -19 13 -19 -1 q -17 35 -19 28 q 26 41 -4 35 q 65 61 56 47 q 101 120 86 88 q 129 189 115 153 m 394 735 l 271 404 q 272 401 271 404 q 274 399 272 399 q 337 397 300 397 q 396 396 374 396 q 453 397 428 396 q 510 400 479 399 q 513 403 513 400 q 514 407 514 407 l 394 735 z "},"":{"ha":583,"x_min":50,"x_max":567,"o":"m 438 711 q 354 711 407 711 q 243 711 301 711 q 133 711 185 711 q 126 726 126 714 q 131 751 126 739 q 142 768 136 764 q 247 768 201 768 q 340 768 293 768 q 444 768 386 768 q 450 742 451 763 q 438 711 449 722 m 326 592 q 399 567 365 592 q 454 500 433 542 q 475 406 475 458 l 475 126 q 485 81 475 100 q 517 63 494 63 q 547 71 536 63 q 561 81 558 79 q 565 76 564 81 q 567 69 567 72 q 560 43 567 54 q 533 24 551 36 q 494 1 514 11 q 458 -8 474 -8 q 406 21 429 -8 q 376 81 383 50 q 351 60 371 75 q 304 28 331 44 q 252 1 278 13 q 208 -11 226 -11 q 96 34 142 -11 q 50 144 50 79 q 73 216 50 186 q 118 254 96 246 q 205 284 157 268 q 294 315 253 300 q 356 339 336 331 q 369 349 367 343 q 372 374 372 356 l 372 410 q 357 470 372 440 q 315 520 342 500 q 256 540 289 540 q 204 518 221 540 q 181 456 188 496 q 117 390 168 390 q 83 408 94 390 q 71 447 71 426 q 74 463 71 451 q 81 481 76 475 q 140 526 101 500 q 228 572 179 553 q 326 592 278 592 m 254 63 q 306 74 278 63 q 353 98 333 85 q 372 118 372 111 l 372 303 q 306 282 346 294 q 246 263 265 269 q 186 222 210 249 q 163 157 163 196 q 189 91 163 119 q 254 63 215 63 z "},"":{"ha":850,"x_min":-19,"x_max":860,"o":"m 560 1129 q 580 1122 571 1129 q 589 1107 589 1114 q 588 1099 589 1101 q 532 1015 574 1046 q 442 983 490 983 q 352 1015 393 983 q 296 1099 311 1046 q 294 1107 294 1101 q 304 1122 294 1114 q 324 1129 314 1129 q 442 1046 353 1046 q 560 1129 531 1046 m 129 189 q 142 223 129 189 q 178 315 156 257 q 228 445 200 374 q 286 592 257 517 q 342 738 315 668 q 390 860 369 807 q 415 885 396 871 q 443 899 433 899 q 447 898 446 899 q 450 896 447 897 l 726 171 q 761 82 757 90 q 788 56 768 67 q 828 40 808 44 q 854 35 849 35 q 858 13 860 28 q 856 -4 857 -1 q 783 1 815 -1 q 707 3 751 3 q 628 1 660 3 q 550 -4 597 -1 q 545 15 544 1 q 551 35 546 29 q 590 40 564 35 q 626 53 617 44 q 632 72 632 58 q 623 115 632 85 q 600 182 614 144 q 572 255 586 219 q 549 313 558 290 q 540 336 540 336 q 538 339 540 336 q 532 342 535 342 q 481 343 511 343 q 424 343 450 343 q 410 343 417 343 q 397 343 403 343 q 326 342 356 343 q 251 339 297 342 q 247 337 250 339 q 244 335 244 335 q 234 307 244 335 q 209 241 224 279 q 183 169 194 203 q 167 111 171 135 q 164 74 164 88 q 185 49 164 58 q 230 38 207 40 q 258 35 253 35 q 263 17 261 32 q 261 -4 264 3 q 216 -1 235 -3 q 178 1 197 0 q 129 3 160 3 q 78 1 99 3 q 36 -1 57 0 q -17 -4 15 -3 q -19 13 -19 -1 q -17 35 -19 28 q 26 41 -4 35 q 65 61 56 47 q 101 120 86 88 q 129 189 115 153 m 394 735 l 271 404 q 272 401 271 404 q 274 399 272 399 q 337 397 300 397 q 396 396 374 396 q 453 397 428 396 q 510 400 479 399 q 513 403 513 400 q 514 407 514 407 l 394 735 z "},"":{"ha":583,"x_min":50,"x_max":567,"o":"m 289 736 q 365 764 332 736 q 407 835 397 792 q 413 839 407 839 q 428 833 419 839 q 438 821 438 826 q 437 816 438 819 q 436 810 436 813 q 385 715 426 756 q 289 674 344 674 q 193 713 233 674 q 143 811 153 753 q 142 817 143 814 q 142 821 142 819 q 151 833 142 826 q 165 839 160 839 q 171 835 171 839 q 214 764 182 792 q 289 736 246 736 m 326 592 q 399 567 365 592 q 454 500 433 542 q 475 406 475 458 l 475 126 q 485 81 475 100 q 517 63 494 63 q 547 71 536 63 q 561 81 558 79 q 565 76 564 81 q 567 69 567 72 q 560 43 567 54 q 533 24 551 36 q 494 1 514 11 q 458 -8 474 -8 q 406 21 429 -8 q 376 81 383 50 q 351 60 371 75 q 304 28 331 44 q 252 1 278 13 q 208 -11 226 -11 q 96 34 142 -11 q 50 144 50 79 q 73 216 50 186 q 118 254 96 246 q 205 284 157 268 q 294 315 253 300 q 356 339 336 331 q 369 349 367 343 q 372 374 372 356 l 372 410 q 357 470 372 440 q 315 520 342 500 q 256 540 289 540 q 204 518 221 540 q 181 456 188 496 q 117 390 168 390 q 83 408 94 390 q 71 447 71 426 q 74 463 71 451 q 81 481 76 475 q 140 526 101 500 q 228 572 179 553 q 326 592 278 592 m 254 63 q 306 74 278 63 q 353 98 333 85 q 372 118 372 111 l 372 303 q 306 282 346 294 q 246 263 265 269 q 186 222 210 249 q 163 157 163 196 q 189 91 163 119 q 254 63 215 63 z "},"":{"ha":850,"x_min":-19,"x_max":860,"o":"m 856 -4 q 805 -1 826 -3 q 758 1 783 0 q 697 -44 729 -17 q 642 -102 664 -71 q 619 -164 619 -133 q 630 -201 619 -179 q 675 -222 640 -222 q 733 -209 710 -222 q 768 -183 756 -196 q 785 -171 781 -171 q 789 -176 786 -171 q 792 -189 792 -181 q 785 -212 792 -203 q 725 -272 763 -242 q 642 -303 688 -303 q 583 -284 604 -303 q 554 -241 563 -265 q 546 -199 546 -217 q 568 -124 546 -161 q 626 -53 590 -86 q 697 3 661 -19 l 694 3 q 624 1 654 3 q 550 -4 593 -1 q 545 15 544 1 q 551 35 546 29 q 590 40 564 35 q 626 53 617 44 q 632 72 632 58 q 623 115 632 85 q 600 182 614 144 q 572 255 586 219 q 549 313 558 290 q 540 336 540 336 q 538 339 540 336 q 532 342 535 342 q 481 343 511 343 q 424 343 450 343 q 410 343 417 343 q 397 343 403 343 q 326 342 356 343 q 251 339 297 342 q 247 337 250 339 q 244 335 244 335 q 234 307 244 335 q 209 241 224 279 q 183 169 194 203 q 167 111 171 135 q 164 74 164 88 q 186 49 165 58 q 230 38 207 40 q 258 35 253 35 q 263 17 261 32 q 261 -4 264 3 q 197 1 221 -1 q 129 3 174 3 q 78 1 99 3 q 36 -1 57 0 q -17 -4 15 -3 q -19 13 -19 -1 q -17 35 -19 28 q 26 41 -4 35 q 65 61 56 47 q 101 120 86 88 q 129 189 115 153 q 142 223 129 189 q 178 315 156 257 q 228 445 200 374 q 286 592 257 517 q 342 738 315 668 q 390 860 369 807 q 415 885 396 871 q 443 899 433 899 q 447 898 446 899 q 450 896 447 897 l 726 171 q 761 82 757 90 q 788 56 768 67 q 828 40 808 44 q 854 35 849 35 q 858 13 860 28 q 856 -4 857 -1 m 394 735 l 271 404 q 272 401 271 404 q 274 399 272 399 q 337 397 300 397 q 396 396 374 396 q 453 397 428 396 q 510 400 479 399 q 513 403 513 400 q 514 407 514 407 l 394 735 z "},"":{"ha":583,"x_min":50,"x_max":567,"o":"m 376 81 q 351 60 371 75 q 304 28 331 44 q 252 1 278 13 q 208 -11 226 -11 q 96 34 142 -11 q 50 144 50 79 q 73 216 50 186 q 118 254 96 246 q 205 284 157 268 q 294 315 253 300 q 356 339 336 331 q 369 349 367 343 q 372 374 372 356 l 372 410 q 357 470 372 440 q 315 520 342 500 q 256 540 289 540 q 204 518 221 540 q 181 456 188 496 q 117 390 168 390 q 83 408 94 390 q 71 447 71 426 q 74 463 71 451 q 81 481 76 475 q 140 526 101 500 q 228 572 179 553 q 326 592 278 592 q 399 567 365 592 q 454 500 433 542 q 475 406 475 458 l 475 126 q 485 81 475 100 q 517 63 494 63 q 547 71 536 63 q 561 81 558 79 q 565 76 564 81 q 567 69 567 72 q 560 43 567 54 q 537 27 550 36 q 511 10 524 18 q 450 -35 486 -8 q 386 -94 414 -61 q 358 -164 358 -126 q 369 -201 358 -179 q 414 -222 379 -222 q 472 -209 449 -222 q 507 -183 494 -196 q 524 -171 519 -171 q 528 -176 525 -171 q 531 -189 531 -181 q 524 -212 531 -203 q 464 -272 501 -242 q 381 -303 426 -303 q 322 -284 343 -303 q 293 -241 301 -265 q 285 -199 285 -217 q 306 -131 285 -168 q 360 -59 328 -94 q 425 1 393 -24 q 393 35 407 13 q 376 81 379 57 m 254 63 q 306 74 278 63 q 353 98 333 85 q 372 118 372 111 l 372 303 q 306 282 346 294 q 246 263 265 269 q 186 222 210 249 q 163 157 163 196 q 189 91 163 119 q 254 63 215 63 z "},"":{"ha":914,"x_min":65,"x_max":857,"o":"m 482 1000 q 501 1024 482 1004 q 547 1072 519 1044 q 601 1126 574 1100 q 646 1164 628 1151 q 671 1168 654 1168 q 722 1154 711 1168 q 733 1128 733 1140 q 711 1095 733 1114 q 655 1058 689 1076 q 585 1023 621 1039 q 524 997 550 1007 q 490 988 497 988 q 485 992 488 988 q 482 1000 482 997 m 524 904 q 663 899 590 904 q 811 876 736 893 q 816 848 811 876 q 826 781 821 819 q 837 712 832 743 q 842 675 842 681 q 833 664 843 669 q 813 658 824 658 q 796 663 803 658 q 783 710 793 678 q 745 776 772 742 q 667 835 718 811 q 531 860 615 860 q 394 826 456 860 q 290 734 333 792 q 223 606 246 676 q 200 465 200 536 q 222 310 200 386 q 287 172 243 233 q 397 73 331 110 q 551 36 463 36 q 658 56 614 36 q 731 101 701 75 q 789 182 771 138 q 814 260 807 226 q 857 249 838 263 q 852 210 857 239 q 840 147 847 181 q 825 86 833 113 q 810 53 817 60 q 683 7 754 22 q 518 -8 613 -8 q 335 27 418 -8 q 191 124 251 63 q 98 266 131 186 q 65 436 65 346 q 99 616 65 532 q 194 765 133 700 q 340 867 256 831 q 524 904 424 904 z "},"":{"ha":574,"x_min":53,"x_max":533,"o":"m 431 888 q 473 870 467 888 q 479 847 479 853 q 460 813 479 835 q 411 766 440 790 q 352 719 382 742 q 300 683 322 697 q 274 669 278 669 q 265 676 267 669 q 263 688 263 682 q 276 713 263 690 q 312 765 290 735 q 355 826 333 796 q 393 876 376 856 q 406 883 394 878 q 431 888 417 888 m 518 524 q 501 473 518 488 q 467 458 485 458 q 425 478 444 458 q 388 508 406 497 q 351 529 365 524 q 311 535 338 535 q 240 508 275 535 q 181 431 204 481 q 158 308 158 381 q 222 135 158 190 q 378 79 286 79 q 472 106 435 79 q 522 147 508 132 q 528 142 524 147 q 533 129 533 138 q 525 104 533 118 q 486 58 513 85 q 419 10 460 31 q 326 -11 379 -11 q 183 28 244 -11 q 87 129 121 67 q 53 263 53 192 q 84 398 53 338 q 165 503 115 458 q 272 571 214 547 q 382 594 329 594 q 504 561 457 594 q 513 546 508 557 q 518 524 518 535 z "},"":{"ha":914,"x_min":65,"x_max":857,"o":"m 539 1165 q 547 1162 543 1165 q 556 1154 551 1158 q 603 1104 583 1125 q 643 1063 622 1083 q 693 1010 664 1042 q 690 995 693 1004 q 681 986 686 986 q 649 1006 672 992 q 601 1035 626 1019 q 557 1061 575 1050 q 539 1072 539 1072 q 522 1062 539 1072 q 481 1037 506 1051 q 434 1008 457 1022 q 397 986 411 994 q 388 995 392 986 q 383 1010 383 1004 q 433 1061 413 1040 q 474 1103 454 1082 q 522 1154 494 1124 q 531 1162 526 1158 q 539 1165 535 1165 m 524 904 q 663 899 590 904 q 811 876 736 893 q 816 848 811 876 q 826 781 821 819 q 837 712 832 743 q 842 675 842 681 q 833 664 843 669 q 813 658 824 658 q 796 663 803 658 q 783 710 793 678 q 745 776 772 742 q 667 835 718 811 q 531 860 615 860 q 394 826 456 860 q 290 734 333 792 q 223 606 246 676 q 200 465 200 536 q 222 310 200 386 q 287 172 243 233 q 397 73 331 110 q 551 36 463 36 q 658 56 614 36 q 731 101 701 75 q 789 182 771 138 q 814 260 807 226 q 857 249 838 263 q 852 210 857 239 q 840 147 847 181 q 825 86 833 113 q 810 53 817 60 q 683 7 754 22 q 518 -8 613 -8 q 335 27 418 -8 q 191 124 251 63 q 98 266 131 186 q 65 436 65 346 q 99 616 65 532 q 194 765 133 700 q 340 867 256 831 q 524 904 424 904 z "},"":{"ha":574,"x_min":53,"x_max":533,"o":"m 322 876 q 338 864 331 876 q 380 799 361 826 q 419 746 399 772 q 465 685 439 719 q 460 672 465 678 q 450 667 456 667 q 395 712 425 688 q 344 753 365 736 q 322 771 322 771 q 300 753 322 771 q 248 710 278 735 q 194 667 218 686 q 181 685 181 667 q 227 746 207 719 q 266 799 247 772 q 307 864 285 826 q 322 876 314 876 m 518 524 q 501 473 518 488 q 467 458 485 458 q 425 478 444 458 q 388 508 406 497 q 351 529 365 524 q 311 535 338 535 q 240 508 275 535 q 181 431 204 481 q 158 308 158 381 q 222 135 158 190 q 378 79 286 79 q 472 106 435 79 q 522 147 508 132 q 528 142 524 147 q 533 129 533 138 q 525 104 533 118 q 486 58 513 85 q 419 10 460 31 q 326 -11 379 -11 q 183 28 244 -11 q 87 129 121 67 q 53 263 53 192 q 84 398 53 338 q 165 503 115 458 q 272 571 214 547 q 382 594 329 594 q 504 561 457 594 q 513 546 508 557 q 518 524 518 535 z "},"":{"ha":914,"x_min":65,"x_max":857,"o":"m 451 1056 q 472 1103 451 1083 q 519 1124 492 1124 q 567 1103 547 1124 q 588 1056 588 1083 q 567 1008 588 1028 q 519 988 547 988 q 472 1008 492 988 q 451 1056 451 1028 m 524 904 q 663 899 590 904 q 811 876 736 893 q 816 848 811 876 q 826 781 821 819 q 837 712 832 743 q 842 675 842 681 q 833 664 843 669 q 813 658 824 658 q 796 663 803 658 q 783 710 793 678 q 745 776 772 742 q 667 835 718 811 q 531 860 615 860 q 394 826 456 860 q 290 734 333 792 q 223 606 246 676 q 200 465 200 536 q 222 310 200 386 q 287 172 243 233 q 397 73 331 110 q 551 36 463 36 q 658 56 614 36 q 731 101 701 75 q 789 182 771 138 q 814 260 807 226 q 857 249 838 263 q 852 210 857 239 q 840 147 847 181 q 825 86 833 113 q 810 53 817 60 q 683 7 754 22 q 518 -8 613 -8 q 335 27 418 -8 q 191 124 251 63 q 98 266 131 186 q 65 436 65 346 q 99 616 65 532 q 194 765 133 700 q 340 867 256 831 q 524 904 424 904 z "},"":{"ha":574,"x_min":53,"x_max":533,"o":"m 267 804 q 287 852 267 832 q 335 872 307 872 q 383 852 363 872 q 403 804 403 832 q 383 756 403 776 q 335 736 363 736 q 287 756 307 736 q 267 804 267 776 m 518 524 q 501 473 518 488 q 467 458 485 458 q 425 478 444 458 q 388 508 406 497 q 351 529 365 524 q 311 535 338 535 q 240 508 275 535 q 181 431 204 481 q 158 308 158 381 q 222 135 158 190 q 378 79 286 79 q 472 106 435 79 q 522 147 508 132 q 528 142 524 147 q 533 129 533 138 q 525 104 533 118 q 486 58 513 85 q 419 10 460 31 q 326 -11 379 -11 q 183 28 244 -11 q 87 129 121 67 q 53 263 53 192 q 84 398 53 338 q 165 503 115 458 q 272 571 214 547 q 382 594 329 594 q 504 561 457 594 q 513 546 508 557 q 518 524 518 535 z "},"":{"ha":914,"x_min":65,"x_max":857,"o":"m 524 904 q 663 899 590 904 q 811 876 736 893 q 816 848 811 876 q 826 781 821 819 q 837 712 832 743 q 842 675 842 681 q 833 664 843 669 q 813 658 824 658 q 796 663 803 658 q 783 710 793 678 q 745 776 772 742 q 667 835 718 811 q 531 860 615 860 q 394 826 456 860 q 290 734 333 792 q 223 606 246 676 q 200 465 200 536 q 222 310 200 386 q 287 172 243 233 q 397 73 331 110 q 551 36 463 36 q 658 56 614 36 q 731 101 701 75 q 789 182 771 138 q 814 260 807 226 q 857 249 838 263 q 852 210 857 239 q 840 147 847 181 q 825 86 833 113 q 810 53 817 60 q 683 7 754 22 q 518 -8 613 -8 q 335 27 418 -8 q 191 124 251 63 q 98 266 131 186 q 65 436 65 346 q 99 616 65 532 q 194 765 133 700 q 340 867 256 831 q 524 904 424 904 m 518 986 q 510 990 514 986 q 501 997 506 993 q 454 1047 475 1026 q 413 1090 433 1068 q 363 1143 392 1113 q 367 1158 363 1150 q 376 1165 371 1165 q 408 1146 385 1160 q 456 1117 431 1132 q 500 1090 482 1101 q 518 1079 518 1079 q 535 1090 518 1079 q 576 1115 551 1100 q 623 1143 600 1129 q 660 1165 646 1157 q 669 1158 665 1165 q 674 1143 674 1150 q 624 1092 644 1113 q 583 1049 603 1071 q 535 997 563 1028 q 526 990 531 993 q 518 986 522 986 z "},"":{"ha":574,"x_min":53,"x_max":533,"o":"m 338 674 q 322 686 329 674 q 281 751 300 724 q 241 804 261 778 q 194 865 221 831 q 199 878 194 872 q 210 883 204 883 q 266 835 236 861 q 317 790 296 808 q 338 771 338 771 q 358 790 338 771 q 409 835 379 808 q 465 883 439 861 q 476 878 471 883 q 481 865 481 872 q 434 804 454 831 q 395 751 414 778 q 353 686 376 724 q 338 674 346 674 m 518 524 q 501 473 518 488 q 467 458 485 458 q 425 478 444 458 q 388 508 406 497 q 351 529 365 524 q 311 535 338 535 q 240 508 275 535 q 181 431 204 481 q 158 308 158 381 q 222 135 158 190 q 378 79 286 79 q 472 106 435 79 q 522 147 508 132 q 528 142 524 147 q 533 129 533 138 q 525 104 533 118 q 486 58 513 85 q 419 10 460 31 q 326 -11 379 -11 q 183 28 244 -11 q 87 129 121 67 q 53 263 53 192 q 84 398 53 338 q 165 503 115 458 q 272 571 214 547 q 382 594 329 594 q 504 561 457 594 q 513 546 508 557 q 518 524 518 535 z "},"":{"ha":963,"x_min":56,"x_max":894,"o":"m 418 893 q 674 835 567 893 q 838 678 781 778 q 894 453 894 579 q 871 285 894 367 q 791 138 847 203 q 639 34 735 72 q 400 -4 543 -4 l 61 -4 q 56 15 56 1 q 61 35 57 29 q 92 37 69 35 q 134 44 114 39 q 156 57 154 50 q 162 100 161 74 q 163 157 163 126 l 163 736 q 162 794 163 767 q 156 838 161 821 q 134 850 154 846 q 92 856 114 854 q 61 858 69 858 q 56 878 57 864 q 61 897 56 892 q 143 894 103 896 q 222 892 183 892 q 318 892 263 892 q 418 893 374 893 m 282 733 l 282 156 q 282 124 282 146 q 284 83 282 103 q 289 58 286 63 q 330 43 297 47 q 400 39 363 39 q 578 81 497 39 q 710 208 660 122 q 760 425 760 293 q 728 621 760 540 q 644 752 697 701 q 523 826 590 803 q 382 849 456 849 q 351 848 374 849 q 310 844 329 847 q 288 835 290 842 q 283 798 283 821 q 282 750 282 775 q 282 742 282 746 q 282 733 282 738 m 453 986 q 444 990 449 986 q 436 997 440 993 q 389 1047 410 1026 q 347 1090 368 1068 q 297 1143 326 1113 q 301 1158 297 1150 q 311 1165 306 1165 q 342 1146 319 1160 q 391 1117 365 1132 q 435 1090 417 1101 q 453 1079 453 1079 q 469 1090 453 1079 q 510 1115 486 1100 q 558 1143 535 1129 q 594 1165 581 1157 q 604 1158 600 1165 q 608 1143 608 1150 q 558 1092 579 1113 q 517 1049 538 1071 q 469 997 497 1028 q 461 990 465 993 q 453 986 457 986 z "},"":{"ha":721,"x_min":53,"x_max":803,"o":"m 754 969 q 770 967 761 969 q 785 961 779 964 q 797 935 792 951 q 803 886 803 919 q 776 780 803 835 q 708 681 749 725 q 692 685 703 681 q 682 696 682 690 q 713 747 701 719 q 725 806 725 775 q 715 852 725 838 q 696 878 706 867 q 686 913 686 890 q 705 951 686 932 q 754 969 724 969 m 376 594 q 429 590 399 594 q 469 581 460 585 q 476 608 476 581 l 476 757 q 476 794 476 772 q 469 828 475 815 q 439 847 464 843 q 386 851 414 851 q 384 869 385 851 q 388 888 383 886 q 488 908 439 893 q 581 942 538 922 q 591 934 586 942 q 596 919 596 926 q 588 889 596 919 q 581 801 581 858 l 581 221 q 583 142 581 182 q 590 88 585 103 q 623 69 597 72 q 663 64 649 65 q 669 64 668 64 q 673 56 672 63 q 674 47 674 50 q 672 37 674 46 q 664 28 669 28 q 588 17 629 26 q 518 -2 547 7 q 488 -11 489 -11 q 479 -1 482 -11 q 476 15 476 8 l 476 63 q 472 71 476 75 q 431 40 463 60 q 363 5 400 21 q 292 -11 325 -11 q 176 27 231 -11 q 87 131 121 65 q 53 279 53 197 q 85 403 53 346 q 169 503 118 461 q 275 570 219 546 q 376 594 331 594 m 332 538 q 244 505 281 538 q 187 421 207 472 q 167 313 167 369 q 189 194 167 249 q 254 107 211 140 q 358 74 297 74 q 440 92 404 74 q 476 128 476 111 l 476 471 q 433 516 476 494 q 332 538 389 538 z "},"":{"ha":963,"x_min":56,"x_max":894,"o":"m 418 893 q 674 835 567 893 q 838 678 781 778 q 894 453 894 579 q 871 285 894 367 q 791 138 847 203 q 639 34 735 72 q 400 -4 543 -4 l 61 -4 q 56 15 56 1 q 61 35 57 29 q 92 37 69 35 q 134 44 114 39 q 156 57 154 50 q 162 100 161 74 q 163 157 163 126 l 163 422 l 67 422 q 63 442 63 422 q 68 472 63 463 l 163 472 l 163 736 q 162 794 163 767 q 156 838 161 821 q 134 850 154 846 q 92 856 114 854 q 61 858 69 858 q 56 878 57 864 q 61 897 56 892 q 143 894 103 896 q 222 892 183 892 q 318 892 263 892 q 418 893 374 893 m 494 422 l 282 422 l 282 156 q 282 124 282 146 q 284 83 282 103 q 289 58 286 63 q 330 43 297 47 q 400 39 363 39 q 578 81 497 39 q 710 208 660 122 q 760 425 760 293 q 728 621 760 540 q 644 752 697 701 q 523 826 590 803 q 382 849 456 849 q 351 848 374 849 q 310 844 329 847 q 288 835 290 842 q 283 798 283 821 q 282 750 282 775 q 282 742 282 746 q 282 733 282 738 l 282 472 l 494 472 q 499 452 499 472 q 494 422 499 432 z "},"":{"ha":697,"x_min":53,"x_max":674,"o":"m 297 760 l 476 760 q 476 795 476 775 q 469 828 475 815 q 439 847 464 843 q 386 851 414 851 q 384 869 385 851 q 388 888 383 886 q 488 908 439 893 q 581 942 538 922 q 591 934 586 942 q 596 919 596 926 q 588 889 596 919 q 581 801 581 858 l 581 760 l 657 760 q 665 749 665 760 q 663 732 665 743 q 657 713 661 721 l 581 713 l 581 221 q 583 142 581 182 q 590 88 585 103 q 623 69 597 72 q 663 64 649 65 q 669 64 668 64 q 673 56 672 63 q 674 47 674 50 q 672 37 674 46 q 664 28 669 28 q 588 17 629 26 q 518 -2 547 7 q 488 -11 489 -11 q 479 -1 482 -11 q 476 15 476 8 l 476 63 q 472 71 476 75 q 431 40 463 60 q 363 5 400 21 q 292 -11 325 -11 q 176 27 231 -11 q 87 131 121 65 q 53 279 53 197 q 85 403 53 346 q 169 503 118 461 q 275 570 219 546 q 376 594 331 594 q 429 590 399 594 q 469 581 460 585 q 476 608 476 581 l 476 713 l 296 713 q 290 718 292 713 q 289 728 289 724 q 291 743 289 733 q 297 760 293 753 m 332 538 q 244 505 281 538 q 187 421 207 472 q 167 313 167 369 q 189 194 167 249 q 254 107 211 140 q 358 74 297 74 q 440 92 404 74 q 476 128 476 111 l 476 471 q 433 516 476 494 q 332 538 389 538 z "},"":{"ha":796,"x_min":56,"x_max":758,"o":"m 525 1025 q 435 1025 494 1025 q 309 1025 375 1025 q 192 1025 243 1025 q 185 1040 185 1028 q 190 1065 185 1053 q 200 1082 194 1078 q 235 1082 200 1082 q 322 1082 269 1082 q 432 1082 375 1082 q 533 1082 489 1082 q 538 1056 540 1076 q 525 1025 536 1036 m 222 892 q 433 896 318 892 q 658 900 549 900 q 676 806 665 849 q 697 717 688 763 q 674 710 690 710 q 654 719 656 710 q 592 824 632 801 q 497 846 551 846 l 381 846 q 350 845 372 846 q 308 842 328 844 q 286 832 289 839 q 281 796 282 818 q 281 750 281 774 q 281 735 281 740 l 281 482 q 299 475 281 476 q 339 474 317 474 l 410 474 q 485 476 458 474 q 525 489 513 479 q 544 518 538 499 q 560 571 551 538 q 579 581 561 581 q 603 574 596 581 l 603 318 q 581 313 597 313 q 560 322 564 313 q 544 378 550 361 q 533 402 538 396 q 521 413 528 408 q 489 420 514 418 q 434 423 464 422 q 378 424 404 424 q 337 423 360 424 q 297 420 314 422 q 281 411 281 418 l 281 153 q 281 144 281 150 q 281 94 281 125 q 288 60 282 64 q 322 48 301 50 q 385 46 342 46 l 450 46 q 546 56 499 46 q 621 83 593 65 q 671 140 653 103 q 706 219 689 176 q 725 228 708 228 q 758 219 750 228 q 716 101 739 164 q 686 -6 693 39 q 468 -3 576 -6 q 224 0 360 0 q 139 -2 176 0 q 61 -4 101 -4 q 56 15 56 1 q 61 35 57 29 q 92 37 69 35 q 134 44 114 39 q 156 57 154 50 q 162 100 161 74 q 163 157 163 126 l 163 736 q 162 794 163 767 q 156 838 161 821 q 134 850 154 846 q 92 856 114 854 q 61 858 69 858 q 56 878 57 864 q 61 897 56 892 q 143 894 103 896 q 222 892 183 892 z "},"":{"ha":582,"x_min":54,"x_max":532,"o":"m 442 711 q 358 711 411 711 q 247 711 306 711 q 138 711 189 711 q 131 726 131 714 q 135 751 131 739 q 146 768 140 764 q 251 768 206 768 q 344 768 297 768 q 449 768 390 768 q 454 742 456 763 q 442 711 453 722 m 150 336 q 179 192 149 250 q 261 105 210 133 q 372 76 313 76 q 440 90 410 76 q 492 120 471 103 q 521 147 513 138 q 527 142 522 147 q 532 129 532 138 q 524 104 532 118 q 485 58 511 85 q 418 10 458 31 q 325 -11 378 -11 q 185 26 246 -11 q 89 128 124 64 q 54 271 54 192 q 78 398 54 339 q 142 501 103 457 q 229 569 182 544 q 321 594 276 594 q 422 574 382 594 q 484 522 461 553 q 516 461 507 492 q 525 410 525 431 q 518 364 525 381 q 492 346 511 347 q 442 344 479 344 q 358 342 406 343 q 265 339 311 340 q 188 337 219 338 q 150 336 156 336 m 157 386 l 378 386 q 399 393 390 386 q 410 418 408 400 q 400 465 411 435 q 365 521 389 496 q 299 546 340 546 q 228 522 256 546 q 184 466 200 497 q 162 410 168 435 q 157 386 156 386 z "}}}
